<?xml version='1.0' encoding='utf-8'?>
<svg xmlns="http://www.w3.org/2000/svg" viewBox="0 0 114.000000 95.000000">
<defs><clipPath id="compact-icon-artwork"><rect x="0.0" y="0.0" width="114.0" height="72.200000" /></clipPath></defs><g transform="translate(0.000000,95.000000) scale(0.100000,-0.100000)" fill="currentColor" stroke="none" clip-path="url(#compact-icon-artwork)">
<path d="M520 764 c-71 -61 -81 -145 -25 -236 19 -32 40 -81 47 -110 10 -43 17 -54 36 -56 21 -3 22 -1 22 81 0 82 -1 85 -25 91 -30 8 -49 40 -41 72 10 40 44 31 65 -18 l17 -41 13 31 c7 17 11 35 8 39 -10 16 50 13 63 -2 19 -23 -3 -64 -40 -77 l-30 -10 0 -84 c0 -76 2 -84 19 -84 25 0 37 17 44 60 3 20 22 65 43 100 61 104 50 193 -30 248 -49 33 -143 31 -186 -4z" />
<path d="M651 589 c-13 -39 -10 -44 19 -29 13 7 20 19 18 32 -5 34 -25 32 -37 -3z" />
<path d="M545 600 c-9 -14 13 -50 30 -50 18 0 18 1 5 34 -10 27 -24 33 -35 16z" />
<path d="M611 514 c0 -11 3 -14 6 -6 3 7 2 16 -1 19 -3 4 -6 -2 -5 -13z" />
</g>
</svg>