<?xml version='1.0' encoding='utf-8'?>
<svg xmlns="http://www.w3.org/2000/svg" viewBox="0 0 100 100">
<g transform="translate(50,50) scale(1.65975) translate(18,-112.05) translate(0.000000,95.000000) scale(0.100000,-0.100000)" fill="currentColor" stroke="none">
<path d="m-1 -181 c-3 -10 -5 -4 -5 12 0 17 2 24 5 18 2 -7 2 -21 0 -30z" fill="currentColor" stroke="none" /><path d="m-421 -388 c8 -8 21 -12 29 -9 10 4 15 -1 16 -17 l2 -24 4 23 c2 12 9 20 14 17 5 -4 9 -1 9 4 0 18 36 13 61 -8 16 -13 21 -23 14 -30 -13 -13 -114 -21 -121 -10 -2 5 -16 4 -29 -1 -24 -9 -25 -8 -25 30 0 44 4 47 26 25z" fill="currentColor" stroke="none" /></g>
</svg>