<?xml version='1.0' encoding='utf-8'?>
<svg xmlns="http://www.w3.org/2000/svg" viewBox="0 0 114.000000 95.000000">
<defs><clipPath id="compact-icon-artwork"><rect x="0.0" y="0.0" width="114.0" height="72.200000" /></clipPath></defs><g transform="translate(0.000000,95.000000) scale(0.100000,-0.100000)" fill="currentColor" stroke="none" clip-path="url(#compact-icon-artwork)">
<path d="M132 847 c-22 -23 -22 -27 -22 -384 l0 -362 26 -20 c26 -21 37 -21 465 -21 l438 0 25 23 c30 25 28 2 27 479 -1 261 -1 268 -23 288 -21 19 -33 20 -468 20 l-447 0 -21 -23z m878 -206 c0 -21 -6 -32 -20 -36 -19 -6 -20 -15 -20 -131 0 -68 -2 -124 -4 -124 -2 0 -11 -3 -20 -6 -14 -5 -16 8 -16 111 0 116 0 116 -22 109 -13 -3 -24 -7 -25 -8 -1 -1 -3 -71 -5 -156 -3 -147 -4 -155 -23 -155 -19 0 -20 8 -23 158 l-3 157 -110 0 -110 0 3 -42 c3 -40 5 -43 42 -53 45 -13 58 -34 27 -42 -11 -3 -19 -8 -17 -12 2 -3 -6 -7 -17 -7 -77 -4 -78 -5 -75 -53 3 -42 5 -45 38 -54 34 -9 64 -26 57 -34 -2 -2 -20 4 -40 12 -51 21 -57 19 -59 -17 l-1 -33 -4 33 c-5 36 -10 38 -60 17 -42 -18 -43 -18 -43 -5 0 5 21 16 48 23 46 14 47 15 50 58 l3 44 -52 12 c-74 18 -87 33 -86 99 2 53 1 54 -25 54 l-28 0 0 -110 c0 -103 -1 -110 -20 -110 -19 0 -20 7 -20 110 l0 110 -25 0 -25 0 0 -160 c0 -153 -1 -160 -20 -160 -19 0 -20 7 -20 160 0 150 -1 160 -19 160 -22 0 -35 25 -23 47 5 8 33 25 63 38 53 22 63 23 402 24 l347 1 0 -29z m-454 -467 c-5 -14 -4 -15 9 -4 12 10 18 10 30 0 12 -10 15 -10 15 0 0 7 8 10 20 7 10 -3 21 0 24 7 3 8 7 7 14 -3 6 -8 15 -10 23 -6 9 6 11 3 6 -9 -4 -10 -7 -23 -7 -29 0 -17 -69 -15 -79 1 -6 11 -10 10 -15 -4 -6 -16 -8 -16 -26 1 -12 10 -20 13 -20 7 0 -18 -40 -14 -47 4 -4 11 1 22 12 30 26 19 49 18 41 -2z" />
<path d="M337 649 c-95 -11 -95 -29 0 -29 61 0 82 4 86 14 3 8 16 17 29 19 32 7 -45 4 -115 -4z" />
<path d="M545 637 c22 -5 110 -12 196 -14 123 -3 164 -1 190 11 31 13 14 14 -196 14 -178 0 -221 -3 -190 -11z" />
<path d="M442 544 c3 -99 3 -99 33 -113 34 -17 169 -28 146 -12 -9 6 -19 43 -25 98 -12 99 -20 107 -110 119 l-47 7 3 -99z" />
<path d="M948 624 c-16 -8 -28 -22 -28 -30 0 -14 5 -13 32 5 54 33 50 55 -4 25z" />
<path d="M210 590 c0 -19 6 -20 105 -20 97 0 105 2 105 19 0 18 -9 19 -105 20 -99 1 -105 0 -105 -19z" />
<path d="M602 593 c3 -16 18 -18 153 -18 127 0 150 2 150 15 0 13 -25 15 -153 18 -143 2 -153 1 -150 -15z" />
<path d="M944 470 c0 -63 1 -89 3 -57 2 31 2 83 0 115 -2 31 -3 5 -3 -58z" />
<path d="M250 411 c0 -98 4 -151 10 -151 13 0 10 289 -2 296 -5 3 -8 -63 -8 -145z" />
<path d="M344 460 c0 -58 1 -81 3 -52 2 28 2 76 0 105 -2 28 -3 5 -3 -53z" />
<path d="M850 408 c0 -83 2 -149 4 -147 8 10 14 299 5 299 -5 0 -9 -64 -9 -152z" />
<path d="M620 445 c0 -8 8 -11 20 -8 11 3 20 7 20 8 0 1 -9 5 -20 8 -12 3 -20 0 -20 -8z" />
</g>
</svg>