<?xml version='1.0' encoding='utf-8'?>
<svg xmlns="http://www.w3.org/2000/svg" viewBox="0 0 114.000000 95.000000">
<defs><clipPath id="compact-icon-artwork"><rect x="0.0" y="0.0" width="114.0" height="72.200000" /></clipPath></defs><g transform="translate(0.000000,95.000000) scale(0.100000,-0.100000)" fill="currentColor" stroke="none" clip-path="url(#compact-icon-artwork)">
<path d="M120 850 c-23 -23 -23 -15 -22 -435 1 -209 5 -307 13 -322 7 -13 25 -25 43 -28 17 -3 224 -5 459 -3 l429 3 19 24 c18 22 19 44 19 378 l0 354 -25 24 -24 25 -446 0 c-432 0 -446 -1 -465 -20z m535 -54 c19 -14 19 -16 3 -68 -27 -85 -41 -159 -32 -168 5 -4 39 -3 76 3 129 20 199 -19 168 -93 -15 -37 -16 -37 -150 0 -94 26 -107 18 -89 -54 17 -69 6 -146 -26 -173 -22 -19 -29 -21 -57 -11 -18 6 -36 13 -40 17 -4 3 6 55 21 114 16 62 24 110 19 113 -5 4 -42 3 -81 0 -121 -10 -181 15 -171 72 9 47 26 57 76 43 115 -32 162 -41 170 -33 5 5 4 38 -3 77 -12 68 -3 131 23 163 14 16 70 15 93 -2z m70 -51 c17 -13 26 -24 20 -24 -5 0 -23 11 -40 24 -16 14 -25 25 -20 25 6 0 24 -11 40 -25z m-20 -25 c3 -5 2 -10 -4 -10 -5 0 -13 5 -16 10 -3 6 -2 10 4 10 5 0 13 -4 16 -10z m-333 -65 c-20 -41 -30 -45 -28 -11 0 13 4 22 9 19 4 -2 10 3 13 11 3 9 10 16 15 16 5 0 1 -16 -9 -35z m28 -15 c-6 -11 -16 -20 -22 -20 -6 0 -3 9 7 20 10 11 20 20 22 20 2 0 -1 -9 -7 -20z m381 -253 c-8 -8 -11 -7 -11 4 0 20 13 34 18 19 3 -7 -1 -17 -7 -23z m29 -11 c-12 -20 -26 -36 -31 -36 -5 0 3 18 17 40 33 49 45 45 14 -4z m-330 -46 c13 -8 13 -10 -2 -10 -9 0 -20 5 -23 10 -8 13 5 13 25 0z m-40 -8 c0 -5 11 -15 25 -22 14 -7 23 -15 21 -18 -5 -4 -76 36 -76 44 0 2 7 4 15 4 8 0 15 -4 15 -8z m224 -60 c3 -5 -1 -9 -9 -9 -8 0 -12 4 -9 9 3 4 7 8 9 8 2 0 6 -4 9 -8z m-68 -85 c47 4 60 -7 51 -44 -3 -15 -6 -14 -15 7 -9 22 -11 22 -11 5 -1 -17 -8 -20 -45 -21 -38 -1 -45 2 -49 21 -2 13 1 31 7 42 9 15 11 15 14 2 2 -12 13 -14 48 -12z" />
<path d="M566 778 c-14 -43 -16 -78 -10 -138 6 -64 7 -67 30 -62 16 3 24 11 24 26 0 11 9 50 20 86 29 94 28 100 -20 100 -24 0 -42 -5 -44 -12z" />
<path d="M320 570 c-16 -30 -12 -58 10 -70 11 -6 58 -10 108 -8 80 3 87 5 88 24 1 17 -9 23 -60 34 -34 8 -63 15 -66 16 -3 0 -13 4 -22 7 -41 16 -48 15 -58 -3z" />
<path d="M552 548 c-19 -19 -14 -45 10 -62 19 -13 25 -14 43 -2 25 16 31 42 15 61 -15 18 -52 19 -68 3z" />
<path d="M663 543 c-14 -3 -23 -12 -23 -23 0 -14 9 -20 38 -25 20 -3 65 -14 100 -25 34 -12 67 -18 72 -15 19 11 11 74 -9 85 -19 10 -133 12 -178 3z" />
<path d="M560 438 c0 -13 -7 -48 -16 -78 -30 -104 -30 -106 7 -114 17 -3 37 -1 44 4 19 16 27 75 20 146 -7 59 -9 64 -31 64 -18 0 -24 -5 -24 -22z" />
</g>
</svg>