<?xml version='1.0' encoding='utf-8'?>
<svg xmlns="http://www.w3.org/2000/svg" viewBox="0 0 100 100">
<g transform="translate(50,50) scale(0.569395) translate(-18,-85.85) translate(0.000000,95.000000) scale(0.100000,-0.100000)" fill="currentColor" stroke="none">
<path d="m593 -60 c60 -19 140 -44 178 -56 136 -42 170 -56 173 -74 3 -14 -2 -17 -27 -13 l-31 5 0 -219 0 -218 -420 0 -420 0 0 215 0 215 -26 0 c-45 0 -24 31 36 52 150 52 388 126 407 127 13 1 71 -15 130 -34z" fill="currentColor" stroke="none" /><path d="m-27 -611 c0 -10 5 -12 12 -7 7 4 30 8 51 9 32 2 37 -1 33 -14 -4 -12 -2 -12 9 3 13 16 19 17 34 8 15 -10 22 -9 31 2 19 23 30 18 30 -14 0 -29 -24 -49 -35 -31 -4 7 -13 6 -25 0 -13 -7 -21 -7 -25 0 -5 8 -11 7 -21 -1 -11 -9 -18 -9 -26 -1 -8 8 -15 9 -25 1 -9 -9 -17 -8 -28 1 -8 7 -15 8 -15 3 0 -13 -47 -10 -61 4 -15 15 7 47 28 39 7 -3 13 -1 13 4 0 6 5 10 10 10 6 0 10 -7 10 -16z" fill="currentColor" stroke="none" /><path d="M530 794 c-25 -7 -110 -34 -190 -59 -80 -25 -162 -51 -182 -57 -21 -6 -38 -14 -38 -19 0 -12 17 -12 24 0 3 5 20 12 38 15 18 3 109 31 203 61 93 30 179 55 190 55 11 0 40 -7 65 -16 48 -17 198 -65 295 -94 33 -10 69 -21 80 -25 15 -6 17 -5 9 4 -5 6 -104 40 -220 76 -115 36 -213 67 -219 69 -5 1 -30 -3 -55 -10z" fill="currentColor" stroke="none" /><path d="M515 763 c-27 -8 -52 -18 -55 -22 -3 -3 -9 -6 -15 -6 -24 0 -134 -39 -130 -46 3 -4 -3 -5 -12 -3 -10 3 -43 -3 -73 -13 l-55 -18 -3 -217 -2 -218 25 2 25 2 0 203 0 203 355 0 355 0 2 -202 3 -203 23 -1 22 -1 -2 215 -3 215 -40 13 c-22 7 -94 29 -160 49 -66 20 -137 43 -158 51 -44 17 -39 17 -102 -3z" fill="currentColor" stroke="none" /><path d="M230 565 l0 -55 343 0 342 0 3 55 3 55 -346 0 -345 0 0 -55z" fill="currentColor" stroke="none" /><path d="M283 583 c-7 -3 -13 -13 -13 -24 0 -18 9 -19 135 -19 128 0 135 1 135 20 0 19 -7 20 -102 21 -57 0 -112 2 -123 4 -11 1 -26 1 -32 -2z" fill="currentColor" stroke="none" /><path d="M610 560 c0 -19 7 -20 135 -20 128 0 135 1 135 20 0 19 -7 20 -135 20 -128 0 -135 -1 -135 -20z" fill="currentColor" stroke="none" /><path d="M230 455 l0 -45 345 0 345 0 0 45 0 45 -345 0 -345 0 0 -45z" fill="currentColor" stroke="none" /><path d="M270 459 c0 -16 8 -19 55 -19 46 0 55 3 55 18 0 14 -10 17 -55 18 -48 2 -55 0 -55 -17z" fill="currentColor" stroke="none" /><path d="M434 471 c-2 -2 -4 -10 -4 -18 0 -9 16 -13 55 -13 48 0 55 2 55 20 0 17 -6 20 -51 17 -28 -1 -52 -4 -55 -6z" fill="currentColor" stroke="none" /><path d="M610 460 c0 -17 7 -20 50 -20 43 0 50 3 50 20 0 17 -7 20 -50 20 -43 0 -50 -3 -50 -20z" fill="currentColor" stroke="none" /><path d="M780 472 c-5 -2 -10 -10 -10 -18 0 -10 14 -14 55 -14 47 0 55 3 55 19 0 16 -7 19 -45 18 -24 -1 -49 -3 -55 -5z" fill="currentColor" stroke="none" /><path d="M230 360 l0 -40 345 0 345 0 0 40 0 40 -345 0 -345 0 0 -40z" fill="currentColor" stroke="none" /><path d="M270 358 c0 -15 9 -18 55 -18 48 0 55 3 55 20 0 17 -7 19 -55 18 -46 -2 -55 -5 -55 -20z" fill="currentColor" stroke="none" /><path d="M434 368 c-11 -18 10 -28 57 -28 43 0 49 3 49 20 0 19 -6 21 -51 19 -27 -2 -52 -6 -55 -11z" fill="currentColor" stroke="none" /><path d="M607 374 c-3 -3 -3 -12 0 -20 3 -9 21 -14 54 -14 42 0 49 3 49 20 0 17 -7 20 -48 20 -27 0 -51 -3 -55 -6z" fill="currentColor" stroke="none" /><path d="M770 360 c0 -18 7 -20 55 -20 48 0 55 2 55 20 0 18 -7 20 -55 20 -48 0 -55 -2 -55 -20z" fill="currentColor" stroke="none" /></g>
</svg>