<?xml version='1.0' encoding='utf-8'?>
<svg xmlns="http://www.w3.org/2000/svg" viewBox="0 0 100 100">
<g transform="translate(50,50) scale(0.582666) translate(-16.85,-84.85) translate(0.000000,95.000000) scale(0.100000,-0.100000)" fill="currentColor" stroke="none">
<path d="m812 -135 c98 -30 122 -41 122 -56 0 -13 -8 -18 -25 -18 l-25 0 0 -215 0 -215 -43 0 c-35 0 -54 8 -110 49 -38 28 -74 48 -83 44 -8 -3 -14 -19 -14 -40 0 -33 -1 -34 -32 -31 -20 2 -32 8 -30 15 1 10 -25 13 -108 13 -87 0 -110 -3 -110 -14 0 -17 -45 -27 -59 -13 -5 5 -7 23 -4 38 5 26 3 29 -21 29 -29 0 -68 -28 -59 -43 3 -6 1 -7 -6 -3 -6 4 -25 -4 -42 -18 -23 -19 -42 -26 -75 -26 l-44 0 0 215 0 215 -25 0 c-17 0 -25 5 -25 18 0 12 16 22 53 33 184 58 329 104 371 119 l48 17 112 -38 c61 -21 166 -55 234 -75z" fill="currentColor" stroke="none" /><path d="m-518 -565 c0 -26 -3 -31 -20 -26 -11 3 -23 1 -26 -4 -10 -17 -42 -9 -47 13 -9 32 10 48 54 48 37 0 39 -2 39 -31z" fill="currentColor" stroke="none" /><path d="M360 745 c-107 -36 -207 -67 -223 -70 -15 -4 -27 -11 -27 -17 0 -6 8 -7 18 -3 9 4 60 20 112 36 52 16 113 35 135 43 22 7 72 24 112 37 l72 23 98 -31 c54 -18 143 -46 198 -63 55 -17 112 -35 128 -40 15 -5 27 -5 27 -1 0 4 -33 18 -72 30 -40 11 -142 44 -227 71 -85 28 -155 50 -155 49 -1 0 -89 -29 -196 -64z" fill="currentColor" stroke="none" /><path d="M523 768 c-32 -11 -45 -28 -21 -28 6 0 8 -3 5 -6 -4 -4 -14 -1 -23 7 -14 11 -18 11 -21 1 -3 -6 -9 -10 -14 -7 -4 3 -72 -15 -149 -40 l-140 -46 0 -213 0 -213 28 1 c31 1 27 -32 30 279 l2 127 340 0 340 0 0 -206 0 -205 32 3 33 3 2 212 c3 204 2 212 -17 218 -11 3 -24 3 -30 0 -5 -3 -10 -2 -10 3 0 9 -80 37 -250 87 -41 12 -82 25 -90 28 -8 3 -30 0 -47 -5z" fill="currentColor" stroke="none" /><path d="M231 593 c0 -28 1 -28 11 -5 l11 22 302 0 c302 0 303 0 318 -22 l16 -23 0 28 1 27 -330 0 -330 0 1 -27z" fill="currentColor" stroke="none" /><path d="M252 575 c-7 -14 -12 -28 -12 -30 0 -3 26 -4 58 -3 l57 2 -53 3 c-48 4 -51 6 -42 24 9 16 22 19 75 19 l65 0 -10 -25 -10 -25 148 2 c88 1 127 4 97 7 -37 4 -51 11 -53 24 -3 15 5 17 62 17 64 0 66 -1 66 -25 0 -24 2 -25 58 -23 48 1 50 2 16 5 -31 3 -43 9 -47 24 -5 17 0 19 59 19 35 0 64 -3 64 -7 0 -5 -25 -6 -55 -5 -38 3 -55 0 -55 -8 0 -8 19 -11 60 -8 45 2 59 0 55 -9 -2 -7 2 -13 11 -13 13 0 13 4 -1 30 l-16 30 -293 0 -293 0 -11 -25z" fill="currentColor" stroke="none" /><path d="M430 570 c0 -5 23 -10 50 -10 28 0 50 5 50 10 0 6 -22 10 -50 10 -27 0 -50 -4 -50 -10z" fill="currentColor" stroke="none" /><path d="M275 570 c-4 -6 15 -10 49 -10 31 0 56 5 56 10 0 6 -22 10 -49 10 -28 0 -53 -4 -56 -10z" fill="currentColor" stroke="none" /><path d="M590 570 c0 -5 23 -10 50 -10 28 0 50 5 50 10 0 6 -22 10 -50 10 -27 0 -50 -4 -50 -10z" fill="currentColor" stroke="none" /><path d="M243 523 c-17 -6 -17 -63 0 -63 7 0 13 12 12 28 0 27 1 27 69 30 l68 3 -4 -31 c-4 -23 -1 -30 12 -30 13 0 16 7 12 30 l-4 31 68 -3 c68 -3 69 -3 69 -30 -1 -20 4 -28 17 -28 13 0 18 8 18 30 l0 30 66 0 66 0 -4 -30 c-4 -24 -1 -30 14 -30 13 0 18 8 18 29 0 28 2 30 48 34 26 2 -83 4 -243 4 -159 1 -296 -1 -302 -4z" fill="currentColor" stroke="none" /><path d="M855 516 c12 -8 16 -20 12 -35 -3 -14 -1 -21 9 -21 20 0 18 56 -2 64 -28 11 -38 6 -19 -8z" fill="currentColor" stroke="none" /><path d="M270 490 c0 -5 23 -10 50 -10 28 0 50 5 50 10 0 6 -22 10 -50 10 -27 0 -50 -4 -50 -10z" fill="currentColor" stroke="none" /><path d="M430 490 c0 -5 23 -10 50 -10 28 0 50 5 50 10 0 6 -22 10 -50 10 -27 0 -50 -4 -50 -10z" fill="currentColor" stroke="none" /><path d="M590 490 c0 -5 25 -10 56 -10 34 0 53 4 49 10 -3 6 -28 10 -56 10 -27 0 -49 -4 -49 -10z" fill="currentColor" stroke="none" /><path d="M750 490 c0 -5 23 -10 50 -10 28 0 50 5 50 10 0 6 -22 10 -50 10 -27 0 -50 -4 -50 -10z" fill="currentColor" stroke="none" /><path d="M776 440 c-2 -3 -4 -32 -4 -65 l-2 -60 60 -42 60 -43 0 104 0 104 -56 4 c-31 1 -57 1 -58 -2z" fill="currentColor" stroke="none" /><path d="M230 335 l0 -104 55 41 55 41 0 63 0 64 -55 0 -55 0 0 -105z" fill="currentColor" stroke="none" /><path d="M353 380 c2 -47 5 -60 18 -60 9 0 16 6 16 13 0 6 4 20 8 30 4 10 3 17 -4 17 -6 0 -11 7 -11 15 0 9 9 15 24 15 13 0 26 7 30 15 4 12 -4 15 -38 15 l-44 0 1 -60z" fill="currentColor" stroke="none" /><path d="M446 424 c-3 -9 -6 -17 -6 -19 0 -2 56 -5 124 -7 l123 -3 -15 23 c-13 20 -22 22 -117 22 -85 0 -104 -3 -109 -16z" fill="currentColor" stroke="none" /><path d="M686 425 c4 -8 17 -15 30 -15 26 0 33 -17 10 -26 -11 -4 -12 -11 -3 -35 19 -50 37 -36 37 31 l0 60 -40 0 c-31 0 -38 -3 -34 -15z" fill="currentColor" stroke="none" /><path d="M414 371 c-2 -3 9 -10 26 -17 42 -18 39 -37 -5 -32 -33 4 -35 2 -35 -24 l0 -28 160 0 160 0 0 25 c0 23 -4 25 -43 25 -24 0 -48 -5 -54 -11 -17 -17 -124 -7 -137 14 -16 25 7 37 76 37 44 0 59 -4 68 -17 10 -17 10 -17 20 0 6 9 20 17 30 17 11 0 20 4 20 9 0 9 -277 10 -286 2z" fill="currentColor" stroke="none" /></g>
</svg>