<?xml version='1.0' encoding='utf-8'?>
<svg xmlns="http://www.w3.org/2000/svg" viewBox="0 0 114.000000 95.000000">
<defs><clipPath id="compact-icon-artwork"><rect x="0.0" y="0.0" width="114.0" height="72.200000" /></clipPath></defs><g transform="translate(0.000000,95.000000) scale(0.100000,-0.100000)" fill="currentColor" stroke="none" clip-path="url(#compact-icon-artwork)">
<path d="M76 839 l-26 -31 0 -335 c0 -361 4 -394 53 -407 12 -3 217 -6 455 -6 l433 0 24 25 25 24 0 354 c0 343 -1 355 -21 381 l-20 26 -449 0 -448 0 -26 -31z m611 -40 c34 -11 38 -27 50 -192 l6 -88 -84 7 -84 6 3 -55 c3 -49 9 -62 43 -101 48 -54 52 -99 14 -140 -21 -23 -32 -26 -89 -26 -63 0 -66 1 -92 35 -34 45 -28 85 20 135 26 27 36 48 43 91 l9 56 -91 -2 -91 -1 8 60 c4 34 11 93 14 133 l7 72 41 10 c57 13 237 13 273 0z m-216 -631 c1 -16 3 -18 6 -6 3 13 15 16 56 15 48 -2 52 -4 55 -27 2 -20 -2 -26 -18 -26 -13 0 -20 7 -21 21 0 19 -1 19 -8 0 -6 -14 -18 -19 -49 -20 -41 -1 -42 0 -42 32 0 37 19 46 21 11z m173 -4 c6 -17 -19 -54 -36 -54 -4 0 -8 16 -8 35 0 28 4 35 19 35 10 0 22 -7 25 -16z" />
<path d="M408 783 c-12 -3 -18 -20 -23 -61 -3 -31 -9 -85 -14 -119 l-7 -63 184 0 185 0 -6 29 c-4 16 -9 70 -13 119 -6 81 -9 91 -28 96 -24 7 -253 6 -278 -1z" />
<path d="M535 460 c-4 -24 -21 -57 -41 -81 -38 -45 -54 -91 -36 -97 7 -2 9 -8 6 -13 -14 -24 19 -39 87 -39 60 0 70 3 80 22 20 38 12 76 -25 119 -23 28 -37 56 -42 85 -8 55 -20 56 -29 4z" />
</g>
</svg>