<?xml version='1.0' encoding='utf-8'?>
<svg xmlns="http://www.w3.org/2000/svg" viewBox="0 0 100 100">
<g transform="translate(50,50) scale(0.565771) translate(-12.85,-87.4) translate(0.000000,95.000000) scale(0.100000,-0.100000)" fill="currentColor" stroke="none">
<path d="m-216 -631 c1 -16 3 -18 6 -6 3 13 15 16 56 15 48 -2 52 -4 55 -27 2 -20 -2 -26 -18 -26 -13 0 -20 7 -21 21 0 19 -1 19 -8 0 -6 -14 -18 -19 -49 -20 -41 -1 -42 0 -42 32 0 37 19 46 21 11z" fill="currentColor" stroke="none" /><path d="M408 783 c-12 -3 -18 -20 -23 -61 -3 -31 -9 -85 -14 -119 l-7 -63 184 0 185 0 -6 29 c-4 16 -9 70 -13 119 -6 81 -9 91 -28 96 -24 7 -253 6 -278 -1z" fill="currentColor" stroke="none" /><path d="M535 460 c-4 -24 -21 -57 -41 -81 -38 -45 -54 -91 -36 -97 7 -2 9 -8 6 -13 -14 -24 19 -39 87 -39 60 0 70 3 80 22 20 38 12 76 -25 119 -23 28 -37 56 -42 85 -8 55 -20 56 -29 4z" fill="currentColor" stroke="none" /></g>
</svg>