<?xml version='1.0' encoding='utf-8'?>
<svg xmlns="http://www.w3.org/2000/svg" viewBox="0 0 114.000000 96.000000">
<g transform="translate(0.000000,96.000000) scale(0.100000,-0.100000)" fill="currentColor" stroke="none">
<path d="M607 857 c-3 -9 -18 -17 -33 -19 -38 -4 -61 -43 -69 -116 -6 -63 -6 -64 17 -57 34 11 43 22 29 39 -19 23 22 40 76 32 54 -7 70 -15 52 -27 -10 -6 -9 -12 5 -28 34 -38 49 -27 41 27 -5 26 -7 56 -7 67 1 27 -36 65 -64 65 -13 0 -27 7 -32 16 -8 14 -10 14 -15 1z" />
<path d="M588 703 c12 -2 30 -2 40 0 9 3 -1 5 -23 4 -22 0 -30 -2 -17 -4z" />
<path d="M560 660 c-7 -17 -10 -33 -7 -37 3 -3 32 -5 64 -5 55 0 58 1 55 23 -4 44 -10 49 -55 49 -40 0 -46 -3 -57 -30z" />
<path d="M518 648 c-11 -9 -20 -41 -27 -98 -23 -187 -24 -201 -5 -221 25 -28 37 -12 14 19 -17 22 -19 33 -11 57 5 17 12 68 15 114 4 57 11 90 22 102 21 23 15 45 -8 27z" />
<path d="M704 628 c8 -13 20 -78 27 -146 11 -114 11 -123 -6 -142 -24 -27 -11 -38 16 -14 23 21 23 38 -1 219 -13 98 -15 105 -35 105 -14 0 -14 -3 -1 -22z" />
<path d="M522 537 c-27 -194 -27 -185 3 -193 15 -4 31 -2 38 5 8 8 7 11 -4 11 -18 0 -39 53 -39 98 0 18 8 56 18 85 15 41 16 55 7 64 -9 8 -15 -8 -23 -70z" />
<path d="M683 604 c-10 -10 -9 -22 7 -59 11 -26 20 -65 20 -86 0 -42 -23 -99 -40 -99 -6 0 -10 -4 -10 -10 0 -14 43 -13 57 1 12 12 8 106 -11 205 -9 50 -13 59 -23 48z" />
<path d="M570 588 c0 -9 16 -13 46 -14 58 -2 55 20 -4 24 -30 2 -42 -1 -42 -10z" />
<path d="M555 550 c-4 -6 8 -11 27 -11 l33 -2 -35 -6 c-44 -8 -45 -29 -3 -54 32 -18 34 -18 73 -1 50 22 50 46 0 55 -31 6 -32 6 -7 8 48 2 19 21 -33 21 -27 0 -52 -4 -55 -10z" />
<path d="M535 469 c-9 -14 5 -70 16 -63 5 3 6 11 3 17 -4 7 -4 9 1 5 8 -8 35 9 35 22 0 13 -49 30 -55 19z" />
<path d="M647 459 c-18 -10 -18 -12 4 -35 31 -33 39 -30 39 11 0 37 -11 43 -43 24z" />
<path d="M592 423 c-38 -33 -32 -45 26 -46 28 -1 52 1 52 4 0 3 -13 18 -28 32 -28 27 -29 27 -50 10z" />
</g>
</svg>