<?xml version='1.0' encoding='utf-8'?>
<svg xmlns="http://www.w3.org/2000/svg" viewBox="0 0 100 100">
<g transform="translate(50,50) scale(0.691443) translate(-23.3,-86.25) translate(0.000000,96.000000) scale(0.100000,-0.100000)" fill="currentColor" stroke="none">
<path d="m-309 -481 c0 -18 2 -20 16 -8 12 10 17 10 23 1 5 -9 13 -6 29 8 29 27 32 26 32 -20 0 -32 -4 -40 -18 -40 -10 0 -23 5 -30 12 -9 9 -12 9 -12 0 0 -16 -30 -16 -31 1 0 10 -2 10 -6 0 -10 -27 -23 -11 -23 27 0 22 5 40 10 40 6 0 10 -10 10 -21z" fill="currentColor" stroke="none" /><path d="M515 584 c-191 -127 -258 -175 -251 -181 2 -3 31 13 63 36 32 22 76 53 98 68 52 37 175 113 181 113 3 0 2 -6 -2 -12 -4 -8 -3 -10 2 -5 5 5 9 14 9 19 0 6 6 13 14 16 9 3 11 0 6 -8 -5 -9 -4 -11 4 -6 6 4 9 11 6 16 -3 5 11 18 32 29 28 15 32 20 18 21 -11 0 -92 -48 -180 -106z" fill="currentColor" stroke="none" /><path d="M775 676 c98 -31 171 -88 158 -123 -4 -11 -2 -14 5 -9 21 13 13 38 -23 72 -34 32 -129 75 -163 73 -9 0 1 -6 23 -13z" fill="currentColor" stroke="none" /><path d="M670 650 c-11 -8 -7 -9 15 -4 37 8 45 14 19 14 -10 0 -26 -5 -34 -10z" fill="currentColor" stroke="none" /><path d="M595 580 c-100 -66 -120 -87 -104 -106 7 -8 7 -14 -1 -19 -14 -9 -30 3 -30 22 0 13 -3 13 -16 2 -14 -12 -14 -14 3 -26 15 -12 16 -15 3 -23 -17 -11 -30 -4 -30 16 0 12 -4 12 -20 4 -11 -6 -20 -15 -20 -19 0 -10 48 -25 69 -22 7 1 10 -2 7 -7 -5 -8 66 -42 89 -42 8 0 130 72 211 125 17 11 52 32 78 47 54 32 53 48 -7 77 -59 27 -91 36 -83 22 4 -7 -1 -11 -13 -11 -12 0 -21 5 -21 10 0 20 -26 8 -115 -50z" fill="currentColor" stroke="none" /><path d="M336 421 c12 -12 157 -72 161 -67 2 2 -27 16 -64 32 -37 15 -72 31 -77 36 -14 11 -33 11 -20 -1z" fill="currentColor" stroke="none" /><path d="M301 386 c-31 -17 -35 -43 -9 -57 46 -25 128 -48 134 -37 3 5 17 8 30 5 16 -3 28 2 34 12 8 14 11 14 20 1 9 -13 10 -13 10 0 0 9 -16 22 -37 29 -21 8 -56 22 -78 32 -61 27 -78 29 -104 15z" fill="currentColor" stroke="none" /><path d="M565 350 c-3 -6 -18 -8 -33 -5 -15 3 -20 2 -12 -1 8 -4 23 -11 32 -15 13 -7 20 -4 28 11 11 20 -3 30 -15 10z" fill="currentColor" stroke="none" /></g>
</svg>