<?xml version='1.0' encoding='utf-8'?>
<svg xmlns="http://www.w3.org/2000/svg" viewBox="0 0 114.000000 96.000000">
<defs><clipPath id="compact-icon-artwork"><rect x="0.0" y="0.0" width="114.0" height="72.960000" /></clipPath></defs><g transform="translate(0.000000,96.000000) scale(0.100000,-0.100000)" fill="currentColor" stroke="none" clip-path="url(#compact-icon-artwork)">
<path d="M150 878 c-38 -14 -40 -37 -40 -402 0 -353 0 -355 22 -376 21 -19 33 -20 468 -20 435 0 447 1 468 20 25 24 23 -11 25 437 2 301 2 303 -20 325 l-23 22 -441 1 c-242 0 -449 -3 -459 -7z m719 -198 c70 -38 102 -79 92 -119 -5 -19 -32 -41 -101 -83 -52 -32 -98 -58 -101 -58 -13 0 -3 34 11 38 8 3 10 0 5 -8 -5 -9 -4 -11 4 -6 6 4 9 11 6 16 -3 5 24 26 59 47 36 20 67 42 70 49 13 33 -95 105 -154 103 l-25 -1 27 -8 c44 -13 128 -53 123 -58 -3 -3 0 -11 5 -17 7 -8 4 -17 -8 -28 -18 -16 -139 -91 -204 -127 -21 -11 -38 -25 -38 -30 0 -5 21 4 47 20 54 34 60 36 60 14 0 -18 -53 -48 -68 -39 -5 4 -8 1 -7 -5 2 -7 -31 -31 -73 -54 -98 -55 -164 -64 -255 -34 -76 25 -92 41 -100 99 -5 44 -5 44 43 74 26 17 104 69 173 115 198 134 214 142 286 137 44 -3 78 -14 123 -37z m-309 -481 c0 -18 2 -20 16 -8 12 10 17 10 23 1 5 -9 13 -6 29 8 29 27 32 26 32 -20 0 -32 -4 -40 -18 -40 -10 0 -23 5 -30 12 -9 9 -12 9 -12 0 0 -16 -30 -16 -31 1 0 10 -2 10 -6 0 -10 -27 -23 -11 -23 27 0 22 5 40 10 40 6 0 10 -10 10 -21z" />
<path d="M515 584 c-191 -127 -258 -175 -251 -181 2 -3 31 13 63 36 32 22 76 53 98 68 52 37 175 113 181 113 3 0 2 -6 -2 -12 -4 -8 -3 -10 2 -5 5 5 9 14 9 19 0 6 6 13 14 16 9 3 11 0 6 -8 -5 -9 -4 -11 4 -6 6 4 9 11 6 16 -3 5 11 18 32 29 28 15 32 20 18 21 -11 0 -92 -48 -180 -106z" />
<path d="M775 676 c98 -31 171 -88 158 -123 -4 -11 -2 -14 5 -9 21 13 13 38 -23 72 -34 32 -129 75 -163 73 -9 0 1 -6 23 -13z" />
<path d="M670 650 c-11 -8 -7 -9 15 -4 37 8 45 14 19 14 -10 0 -26 -5 -34 -10z" />
<path d="M595 580 c-100 -66 -120 -87 -104 -106 7 -8 7 -14 -1 -19 -14 -9 -30 3 -30 22 0 13 -3 13 -16 2 -14 -12 -14 -14 3 -26 15 -12 16 -15 3 -23 -17 -11 -30 -4 -30 16 0 12 -4 12 -20 4 -11 -6 -20 -15 -20 -19 0 -10 48 -25 69 -22 7 1 10 -2 7 -7 -5 -8 66 -42 89 -42 8 0 130 72 211 125 17 11 52 32 78 47 54 32 53 48 -7 77 -59 27 -91 36 -83 22 4 -7 -1 -11 -13 -11 -12 0 -21 5 -21 10 0 20 -26 8 -115 -50z m115 20 c0 -5 -5 -12 -11 -16 -14 -8 -33 11 -25 25 7 11 36 4 36 -9z m90 1 c0 -4 -3 -11 -7 -14 -8 -9 -34 13 -28 24 6 9 35 1 35 -10z m-135 -20 c3 -5 1 -12 -4 -15 -13 -8 -42 4 -35 15 7 12 31 12 39 0z m90 0 c7 -12 -12 -24 -25 -16 -11 7 -4 25 10 25 5 0 11 -4 15 -9z m95 -6 c0 -8 -7 -15 -15 -15 -8 0 -15 7 -15 15 0 8 7 15 15 15 8 0 15 -7 15 -15z m-231 -36 c-7 -4 -18 -5 -26 -2 -10 4 -11 9 -2 19 9 11 15 12 26 3 11 -9 11 -14 2 -20z m191 10 c0 -12 -37 -12 -45 0 -3 5 3 11 12 13 21 5 33 0 33 -13z m-90 1 c0 -5 -12 -10 -26 -10 -14 0 -23 4 -19 10 3 6 15 10 26 10 10 0 19 -4 19 -10z m-144 -21 c10 -17 -13 -36 -27 -22 -12 12 -4 33 11 33 5 0 12 -5 16 -11z m93 -20 c-14 -8 -39 -1 -39 11 0 14 24 18 38 7 10 -8 10 -12 1 -18z m98 14 c5 -15 -21 -23 -38 -12 -12 8 -12 10 1 19 17 11 32 8 37 -7z m-232 -19 c13 -5 14 -8 3 -15 -20 -13 -38 -11 -38 6 0 16 9 19 35 9z m94 -3 c9 -6 10 -10 2 -16 -16 -9 -44 2 -36 15 8 12 16 12 34 1z m85 3 c23 -9 20 -24 -4 -24 -11 0 -20 7 -20 15 0 17 2 18 24 9z m-124 -44 c-14 -9 -40 -3 -40 9 0 16 14 20 33 10 15 -9 17 -13 7 -19z m88 12 c2 -7 -3 -12 -12 -12 -9 0 -16 7 -16 16 0 17 22 14 28 -4z m-130 -29 c2 -8 -5 -13 -17 -13 -12 0 -21 6 -21 16 0 18 31 15 38 -3z m92 2 c0 -8 -7 -15 -15 -15 -8 0 -15 7 -15 15 0 8 7 15 15 15 8 0 15 -7 15 -15z m-45 -15 c11 -17 -5 -32 -21 -19 -7 6 -11 15 -8 20 7 12 21 11 29 -1z m-87 -18 c3 -9 -2 -13 -14 -10 -9 1 -19 9 -22 16 -3 9 2 13 14 10 9 -1 19 -9 22 -16z m46 -8 c22 -9 20 -24 -3 -24 -21 0 -34 13 -24 24 8 7 8 7 27 0z" />
<path d="M336 421 c12 -12 157 -72 161 -67 2 2 -27 16 -64 32 -37 15 -72 31 -77 36 -14 11 -33 11 -20 -1z" />
<path d="M301 386 c-31 -17 -35 -43 -9 -57 46 -25 128 -48 134 -37 3 5 17 8 30 5 16 -3 28 2 34 12 8 14 11 14 20 1 9 -13 10 -13 10 0 0 9 -16 22 -37 29 -21 8 -56 22 -78 32 -61 27 -78 29 -104 15z" />
</g>
</svg>