<?xml version='1.0' encoding='utf-8'?>
<svg xmlns="http://www.w3.org/2000/svg" viewBox="0 0 114.000000 96.000000">
<defs><clipPath id="compact-icon-artwork"><rect x="0.0" y="0.0" width="114.0" height="72.960000" /></clipPath></defs><g transform="translate(0.000000,96.000000) scale(0.100000,-0.100000)" fill="currentColor" stroke="none" clip-path="url(#compact-icon-artwork)">
<path d="M140 878 c-39 -14 -42 -41 -42 -322 1 -461 0 -434 22 -456 19 -19 33 -20 464 -20 422 0 445 1 467 19 l24 19 3 360 c3 339 2 360 -16 382 l-19 23 -442 1 c-243 1 -451 -2 -461 -6z m620 -192 c30 -8 64 -18 74 -22 15 -6 17 -4 11 6 -5 9 -4 11 4 6 6 -4 9 -10 7 -14 -2 -4 15 -20 39 -37 50 -34 65 -60 65 -115 0 -54 -16 -85 -60 -114 -121 -80 -354 -101 -520 -47 -255 83 -203 296 84 346 84 14 219 10 296 -9z m-227 -484 c3 8 6 6 6 -6 1 -15 4 -16 16 -6 8 7 22 10 30 6 9 -3 15 0 15 9 0 19 16 19 24 0 3 -8 15 -14 27 -12 16 1 22 -4 24 -20 1 -14 -4 -23 -12 -23 -7 0 -13 8 -14 18 0 14 -2 14 -9 -3 -6 -14 -9 -15 -10 -5 0 12 -3 11 -11 -3 -6 -9 -14 -15 -20 -12 -5 4 -9 1 -9 -4 0 -6 -9 -11 -20 -11 -12 0 -20 7 -20 18 0 9 -4 13 -8 7 -4 -5 -15 -11 -24 -11 -15 -2 -18 6 -18 40 1 37 2 39 14 23 11 -14 15 -15 19 -5z" />
<path d="M470 684 c-107 -22 -195 -67 -220 -114 -9 -17 -3 -15 32 10 24 16 70 39 102 51 76 26 237 36 330 20 72 -13 189 -60 168 -68 -7 -3 -19 1 -28 7 -8 7 -17 10 -20 7 -3 -3 7 -13 23 -21 61 -34 76 -54 70 -93 -4 -20 -16 -48 -29 -62 -14 -16 -10 -14 11 6 44 41 46 81 6 123 -30 32 -25 42 7 13 10 -9 18 -11 18 -5 0 6 -12 18 -27 26 -16 8 -24 15 -19 16 21 1 -48 42 -101 61 -43 16 -89 22 -178 24 -66 2 -131 1 -145 -1z" />
<path d="M548 643 c17 -2 47 -2 65 0 17 2 3 4 -33 4 -36 0 -50 -2 -32 -4z" />
<path d="M463 633 c9 -2 23 -2 30 0 6 3 -1 5 -18 5 -16 0 -22 -2 -12 -5z" />
<path d="M698 633 c7 -3 16 -2 19 1 4 3 -2 6 -13 5 -11 0 -14 -3 -6 -6z" />
<path d="M418 623 c7 -3 16 -2 19 1 4 3 -2 6 -13 5 -11 0 -14 -3 -6 -6z" />
<path d="M494 620 c-34 -5 -79 -16 -100 -26 -21 -9 -44 -18 -51 -19 -23 -6 -62 -41 -73 -67 -10 -21 -8 -31 6 -52 78 -121 434 -145 586 -41 152 104 -97 243 -368 205z" />
<path d="M738 623 c7 -3 16 -2 19 1 4 3 -2 6 -13 5 -11 0 -14 -3 -6 -6z" />
<path d="M304 578 c-64 -43 -81 -76 -59 -120 15 -33 80 -86 91 -75 3 3 -4 8 -15 12 -29 9 -71 63 -71 91 0 40 17 62 73 94 29 16 47 30 41 30 -7 0 -34 -15 -60 -32z" />
<path d="M850 390 c-9 -6 -10 -10 -3 -10 6 0 15 5 18 10 8 12 4 12 -15 0z" />
</g>
</svg>