<?xml version='1.0' encoding='utf-8'?>
<svg xmlns="http://www.w3.org/2000/svg" viewBox="0 0 114.000000 96.000000">
<defs><clipPath id="compact-icon-artwork"><rect x="0.0" y="0.0" width="114.0" height="72.960000" /></clipPath></defs><g transform="translate(0.000000,96.000000) scale(0.100000,-0.100000)" fill="currentColor" stroke="none" clip-path="url(#compact-icon-artwork)">
<path d="M497 682 c-21 -24 -22 -90 -1 -120 13 -19 24 -22 79 -22 55 0 66 3 79 22 9 12 16 38 16 58 0 20 -7 46 -16 58 -13 19 -24 22 -78 22 -48 0 -67 -4 -79 -18z m51 -34 c-4 -41 -28 -50 -28 -10 0 16 3 32 7 35 15 16 24 5 21 -25z m86 19 c11 -11 11 -17 1 -30 -19 -26 -35 -20 -35 13 0 32 13 38 34 17z m-38 -106 c-9 -14 -33 -14 -41 -1 -4 6 -1 18 6 26 11 13 14 13 27 0 8 -8 11 -19 8 -25z" />
<path d="M496 428 c-20 -29 -20 -87 0 -116 13 -19 24 -22 78 -22 73 0 85 9 93 69 4 28 1 48 -11 66 -15 22 -23 25 -81 25 -55 0 -66 -3 -79 -22z m54 -38 c0 -20 -5 -30 -15 -30 -10 0 -15 10 -15 30 0 20 5 30 15 30 10 0 15 -10 15 -30z m80 5 c0 -16 -6 -25 -15 -25 -9 0 -15 9 -15 25 0 16 6 25 15 25 9 0 15 -9 15 -25z m-30 -87 c0 -4 -19 -8 -42 -7 -24 0 -36 3 -28 6 8 4 21 15 29 26 14 19 15 19 28 2 7 -11 13 -22 13 -27z" />
</g>
</svg>