<?xml version='1.0' encoding='utf-8'?>
<svg xmlns="http://www.w3.org/2000/svg" viewBox="0 0 100 100">
<g transform="translate(50,50) scale(0.748363) translate(-20.75,-81.25) translate(0.000000,96.000000) scale(0.100000,-0.100000)" fill="currentColor" stroke="none">
<path d="m605 -387 l2 -333 -35 0 c-22 0 -34 4 -30 10 3 6 15 10 26 10 18 0 19 10 19 315 l0 315 -190 0 -190 0 0 -314 0 -314 35 -4 c22 -2 40 1 49 11 12 11 18 12 30 2 11 -9 15 -9 19 1 3 8 9 4 15 -12 10 -22 11 -23 11 -4 1 11 7 21 14 21 6 0 22 3 35 7 17 6 22 3 22 -10 0 -14 2 -14 16 -3 13 10 17 10 25 -2 7 -11 9 -11 9 -1 0 23 23 7 25 -16 2 -25 -5 -28 -23 -10 -9 9 -12 8 -12 -5 0 -20 -11 -22 -28 -5 -7 7 -12 8 -12 2 0 -16 -41 -14 -47 2 -4 12 -8 12 -20 -3 -13 -17 -15 -17 -25 -1 -11 15 -13 15 -24 0 -10 -14 -15 -15 -25 -4 -7 6 -32 12 -56 12 l-43 0 0 335 0 335 203 -2 202 -3 3 -332z" fill="currentColor" stroke="none" /><path d="m-66 -185 c6 -19 -3 -38 -18 -38 -7 0 -15 6 -18 13 -6 18 3 37 18 37 7 0 15 -6 18 -12z" fill="currentColor" stroke="none" /><path d="M497 682 c-21 -24 -22 -90 -1 -120 13 -19 24 -22 79 -22 55 0 66 3 79 22 9 12 16 38 16 58 0 20 -7 46 -16 58 -13 19 -24 22 -78 22 -48 0 -67 -4 -79 -18z" fill="currentColor" stroke="none" /><path d="m-38 -106 c-9 -14 -33 -14 -41 -1 -4 6 -1 18 6 26 11 13 14 13 27 0 8 -8 11 -19 8 -25z" fill="currentColor" stroke="none" /><path d="M496 428 c-20 -29 -20 -87 0 -116 13 -19 24 -22 78 -22 73 0 85 9 93 69 4 28 1 48 -11 66 -15 22 -23 25 -81 25 -55 0 -66 -3 -79 -22z" fill="currentColor" stroke="none" /><path d="m-30 -87 c0 -4 -19 -8 -42 -7 -24 0 -36 3 -28 6 8 4 21 15 29 26 14 19 15 19 28 2 7 -11 13 -22 13 -27z" fill="currentColor" stroke="none" /></g>
</svg>