<?xml version='1.0' encoding='utf-8'?>
<svg xmlns="http://www.w3.org/2000/svg" viewBox="0 0 114.000000 96.000000">
<g transform="translate(0.000000,96.000000) scale(0.100000,-0.100000)" fill="currentColor" stroke="none">
<path d="M155 882 c-89 -6 -85 15 -85 -397 l0 -362 23 -21 c23 -22 25 -22 468 -22 434 0 446 1 467 20 22 21 22 23 22 384 0 355 0 363 -21 382 -19 17 -39 19 -240 19 l-220 0 3 -74 3 -74 115 -62 c102 -55 115 -65 118 -91 2 -16 18 -43 38 -62 74 -72 72 -96 -8 -108 -128 -18 -163 21 -88 98 66 69 60 83 -70 151 l-110 58 0 -86 c0 -50 4 -85 10 -85 6 0 10 -4 10 -9 0 -5 14 -23 30 -39 18 -18 30 -41 30 -56 l0 -26 -90 0 -90 0 0 29 c0 20 12 40 40 69 l40 40 0 81 0 82 -112 -60 c-94 -50 -114 -64 -116 -86 -2 -14 1 -25 7 -25 6 0 11 -5 11 -10 0 -6 11 -21 25 -33 14 -12 28 -36 31 -53 6 -30 4 -31 -35 -38 -47 -7 -151 3 -151 15 0 21 21 58 53 93 20 22 34 42 32 47 -9 13 29 47 90 79 33 18 84 46 112 62 l53 29 0 72 0 72 -173 0 c-94 0 -194 -1 -222 -3z m385 -102 c0 -5 -2 -10 -4 -10 -3 0 -8 5 -11 10 -3 6 -1 10 4 10 6 0 11 -4 11 -10z m62 -602 c3 12 11 22 17 22 7 0 16 -10 21 -22 l9 -23 0 22 c1 19 6 22 37 20 32 -2 37 -6 40 -30 3 -33 -13 -36 -26 -4 -9 22 -9 22 -10 -3 -1 -24 -1 -24 -15 -6 -12 16 -15 17 -15 4 0 -13 -10 -16 -52 -15 -43 2 -53 5 -56 21 -3 11 4 26 14 33 17 13 20 11 24 -14 5 -27 6 -27 12 -5z m-167 12 c4 -7 11 -7 18 -2 7 5 28 8 47 8 31 -1 35 -5 38 -28 2 -16 -1 -28 -7 -28 -6 0 -12 10 -12 23 l-2 22 -4 -22 c-3 -18 -11 -23 -33 -23 -16 0 -30 5 -32 10 -2 6 -13 2 -25 -9 -11 -11 -24 -17 -27 -14 -8 8 -8 58 1 66 10 10 31 8 38 -3z" />
<path d="M298 533 c7 -3 16 -2 19 1 4 3 -2 6 -13 5 -11 0 -14 -3 -6 -6z" />
<path d="M548 533 c7 -3 16 -2 19 1 4 3 -2 6 -13 5 -11 0 -14 -3 -6 -6z" />
<path d="M798 533 c7 -3 16 -2 19 1 4 3 -2 6 -13 5 -11 0 -14 -3 -6 -6z" />
<path d="M763 500 c-23 -14 -33 -27 -33 -45 0 -25 1 -25 80 -25 44 0 80 2 80 5 0 20 -33 63 -55 73 -34 16 -34 15 -72 -8z" />
<path d="M251 484 c-37 -47 -29 -54 54 -54 65 0 75 2 75 18 0 62 -89 87 -129 36z" />
<path d="M501 484 c-37 -47 -29 -54 54 -54 72 0 75 1 75 23 0 58 -91 79 -129 31z" />
</g>
</svg>