<?xml version='1.0' encoding='utf-8'?>
<svg xmlns="http://www.w3.org/2000/svg" viewBox="0 0 114.000000 96.000000">
<defs><clipPath id="compact-icon-artwork"><rect x="0.0" y="0.0" width="114.0" height="72.960000" /></clipPath></defs><g transform="translate(0.000000,96.000000) scale(0.100000,-0.100000)" fill="currentColor" stroke="none" clip-path="url(#compact-icon-artwork)">
<path d="M100 878 c-48 -18 -50 -30 -50 -385 0 -205 4 -342 10 -359 21 -55 10 -53 492 -54 l447 0 20 26 c20 26 21 39 21 305 l0 279 -95 -47 c-54 -27 -98 -55 -101 -66 -3 -10 -23 -29 -45 -43 -21 -13 -39 -31 -39 -40 0 -18 -100 -114 -157 -151 -24 -15 -43 -31 -43 -35 0 -4 -3 -8 -7 -8 -5 0 -6 22 -5 50 5 62 -23 150 -46 150 -12 0 -13 3 -5 8 23 15 -47 92 -84 92 -3 0 9 -14 26 -32 17 -17 31 -36 31 -40 0 -5 5 -6 11 -3 6 4 9 1 8 -6 -2 -8 4 -30 13 -51 20 -45 39 -136 34 -163 -4 -27 -52 -22 -76 8 l-18 21 -50 -23 c-58 -27 -82 -23 -82 14 0 20 8 29 40 42 42 18 47 31 29 64 -18 34 -5 38 23 7 15 -16 21 -27 13 -24 -8 3 -15 1 -15 -4 0 -11 11 -13 34 -4 9 3 13 10 10 15 -3 5 1 6 9 3 20 -7 31 -65 15 -76 -10 -6 -7 -14 11 -29 22 -18 26 -18 34 -4 31 56 -69 275 -126 275 -19 0 -39 -25 -35 -44 3 -14 6 -14 30 -2 30 16 48 5 48 -28 0 -17 -18 -28 -83 -54 -123 -49 -117 -49 -117 -15 0 22 7 33 25 41 14 7 36 17 49 23 14 7 26 23 30 40 6 32 56 69 93 69 12 0 25 5 29 11 4 7 21 9 45 5 26 -4 52 -1 77 9 25 11 52 14 82 10 31 -4 54 -1 74 10 15 8 37 15 48 15 10 0 17 4 14 9 -3 5 2 8 12 7 9 0 19 -7 22 -14 4 -9 31 0 98 33 51 25 90 49 87 55 -3 6 1 7 9 4 13 -5 16 1 16 28 0 49 -30 78 -83 79 -315 4 -842 2 -857 -3z m430 -677 c0 -5 11 -8 25 -5 22 4 25 1 25 -25 0 -27 -2 -28 -41 -27 -23 1 -47 -4 -54 -11 -21 -20 -25 -16 -25 27 0 33 3 40 19 40 11 0 22 -6 24 -12 3 -8 6 -6 6 5 1 17 21 25 21 8z m110 -31 c0 -18 -7 -33 -19 -39 -23 -13 -31 -5 -31 29 0 31 7 40 32 40 13 0 18 -8 18 -30z" />
<path d="M950 709 c-47 -23 -95 -45 -108 -50 -19 -7 -21 -12 -12 -29 6 -11 14 -19 18 -17 81 38 122 61 122 69 0 5 4 7 9 3 19 -11 61 18 61 42 0 12 -1 23 -3 23 -1 0 -40 -19 -87 -41z" />
<path d="M805 670 c3 -5 8 -10 11 -10 2 0 4 5 4 10 0 6 -5 10 -11 10 -5 0 -7 -4 -4 -10z" />
<path d="M760 651 c0 -5 -10 -7 -22 -3 -21 5 -22 4 -8 -13 14 -17 13 -18 -5 -11 -11 4 -28 9 -38 11 -10 2 -27 7 -37 10 -10 3 -35 -1 -55 -10 -21 -8 -61 -15 -90 -15 -28 0 -54 -3 -58 -6 -3 -3 7 -17 23 -31 37 -30 88 -136 96 -197 l7 -45 31 21 c52 36 130 111 143 138 18 38 39 60 56 60 27 0 30 20 11 61 -11 23 -26 39 -36 39 -10 0 -18 -4 -18 -9z" />
<path d="M343 511 c-29 -16 -55 -26 -59 -22 -4 3 -4 1 -1 -5 8 -15 -18 -38 -33 -29 -5 3 -10 -1 -10 -9 0 -11 16 -7 70 20 38 18 76 34 85 34 8 0 15 9 15 20 0 26 -5 25 -67 -9z" />
<path d="M390 370 c-62 -27 -84 -50 -61 -64 6 -4 39 7 73 25 76 38 72 34 61 53 -7 13 -17 11 -73 -14z" />
</g>
</svg>