<?xml version='1.0' encoding='utf-8'?>
<svg xmlns="http://www.w3.org/2000/svg" viewBox="0 0 100 100">
<g transform="translate(50,50) scale(0.577201) translate(-42.1,-94.4) translate(0.000000,96.000000) scale(0.100000,-0.100000)" fill="currentColor" stroke="none">
<path d="m430 -677 c0 -5 11 -8 25 -5 22 4 25 1 25 -25 0 -27 -2 -28 -41 -27 -23 1 -47 -4 -54 -11 -21 -20 -25 -16 -25 27 0 33 3 40 19 40 11 0 22 -6 24 -12 3 -8 6 -6 6 5 1 17 21 25 21 8z" fill="currentColor" stroke="none" /><path d="M950 709 c-47 -23 -95 -45 -108 -50 -19 -7 -21 -12 -12 -29 6 -11 14 -19 18 -17 81 38 122 61 122 69 0 5 4 7 9 3 19 -11 61 18 61 42 0 12 -1 23 -3 23 -1 0 -40 -19 -87 -41z" fill="currentColor" stroke="none" /><path d="M805 670 c3 -5 8 -10 11 -10 2 0 4 5 4 10 0 6 -5 10 -11 10 -5 0 -7 -4 -4 -10z" fill="currentColor" stroke="none" /><path d="M760 651 c0 -5 -10 -7 -22 -3 -21 5 -22 4 -8 -13 14 -17 13 -18 -5 -11 -11 4 -28 9 -38 11 -10 2 -27 7 -37 10 -10 3 -35 -1 -55 -10 -21 -8 -61 -15 -90 -15 -28 0 -54 -3 -58 -6 -3 -3 7 -17 23 -31 37 -30 88 -136 96 -197 l7 -45 31 21 c52 36 130 111 143 138 18 38 39 60 56 60 27 0 30 20 11 61 -11 23 -26 39 -36 39 -10 0 -18 -4 -18 -9z" fill="currentColor" stroke="none" /><path d="M343 511 c-29 -16 -55 -26 -59 -22 -4 3 -4 1 -1 -5 8 -15 -18 -38 -33 -29 -5 3 -10 -1 -10 -9 0 -11 16 -7 70 20 38 18 76 34 85 34 8 0 15 9 15 20 0 26 -5 25 -67 -9z" fill="currentColor" stroke="none" /><path d="M390 370 c-62 -27 -84 -50 -61 -64 6 -4 39 7 73 25 76 38 72 34 61 53 -7 13 -17 11 -73 -14z" fill="currentColor" stroke="none" /></g>
</svg>