<?xml version='1.0' encoding='utf-8'?>
<svg xmlns="http://www.w3.org/2000/svg" viewBox="0 0 114.000000 95.000000">
<g transform="translate(0.000000,95.000000) scale(0.100000,-0.100000)" fill="currentColor" stroke="none">
<path d="M163 880 c-34 -14 -43 -42 -43 -135 l0 -86 125 112 c69 62 125 114 125 116 0 7 -187 1 -207 -7z" />
<path d="M346 850 c-29 -28 -35 -38 -23 -43 8 -3 23 3 33 14 21 24 41 25 23 2 -11 -15 -10 -14 9 1 24 21 29 31 10 20 -7 -4 -2 5 11 19 l24 27 -24 -1 c-13 -1 -41 -18 -63 -39z" />
<path d="M436 874 c-5 -14 -4 -15 9 -4 17 14 19 20 6 20 -5 0 -12 -7 -15 -16z" />
<path d="M440 855 c-19 -19 -32 -35 -29 -36 2 0 29 -1 59 -2 45 -1 61 4 82 23 15 12 26 26 23 29 -2 4 6 8 17 8 19 2 18 -1 -7 -28 -33 -33 -25 -39 12 -9 14 11 29 17 34 14 5 -3 9 -2 8 3 -4 21 3 18 37 -13 19 -19 43 -34 52 -34 10 0 1 14 -27 40 l-43 40 -92 0 -92 0 -34 -35z" />
<path d="M720 850 c30 -26 55 -39 75 -40 l29 0 -39 40 c-31 32 -46 40 -75 40 l-35 0 45 -40z" />
<path d="M841 843 c29 -27 71 -65 93 -85 46 -42 52 -44 59 -24 8 22 -145 156 -178 156 -26 0 -24 -2 26 -47z" />
<path d="M874 875 c11 -8 40 -34 66 -57 25 -24 60 -54 78 -68 18 -14 44 -35 58 -47 14 -13 26 -23 28 -23 2 0 4 36 5 80 2 73 0 82 -23 105 -24 23 -31 25 -128 25 -93 -1 -101 -2 -84 -15z" />
<path d="M820 835 c13 -14 26 -25 28 -25 3 0 -5 11 -18 25 -13 14 -26 25 -28 25 -3 0 5 -11 18 -25z" />
<path d="M620 825 c-10 -13 -9 -15 9 -15 12 0 21 6 21 15 0 8 -4 15 -9 15 -5 0 -14 -7 -21 -15z" />
<path d="M208 722 c-47 -42 -87 -85 -87 -95 -1 -22 17 -8 138 104 104 98 60 90 -51 -9z" />
<path d="M345 790 c-4 -7 88 -10 270 -10 182 0 274 3 270 10 -4 6 -105 10 -270 10 -165 0 -266 -4 -270 -10z" />
<path d="M280 729 l-35 -30 38 26 c33 24 43 35 34 35 -1 0 -18 -14 -37 -31z" />
<path d="M310 728 c-14 -11 -24 -25 -22 -30 1 -5 -1 -7 -6 -4 -14 8 -80 -67 -77 -87 2 -9 -1 -15 -6 -11 -5 3 -6 11 -2 17 7 13 -15 -4 -54 -40 -20 -18 -24 -29 -21 -72 l3 -51 52 49 c29 27 49 52 45 56 -4 5 -2 5 4 2 5 -3 50 32 98 79 48 46 91 84 95 84 5 0 14 7 21 15 11 13 5 15 -46 15 -45 -1 -65 -6 -84 -22z m-120 -148 c0 -5 -2 -10 -4 -10 -3 0 -8 5 -11 10 -3 6 -1 10 4 10 6 0 11 -4 11 -10z" />
<path d="M445 723 c-16 -14 -57 -51 -90 -82 -33 -31 -75 -69 -95 -84 -63 -51 -141 -129 -135 -135 3 -3 18 7 34 22 40 38 62 24 25 -15 l-28 -29 25 0 c43 0 69 50 33 64 -8 3 -12 10 -9 16 4 6 11 7 17 4 6 -4 8 -2 5 4 -4 5 34 48 85 94 139 125 183 168 172 168 -5 0 -22 -12 -39 -27z" />
<path d="M516 731 c-18 -20 -18 -20 54 -18 55 1 74 6 78 17 4 12 2 13 -9 3 -7 -7 -17 -13 -21 -13 -4 0 -7 6 -5 13 1 7 -13 13 -39 15 -30 2 -45 -2 -58 -17z m89 -1 c-3 -5 -11 -10 -16 -10 -6 0 -7 5 -4 10 3 6 11 10 16 10 6 0 7 -4 4 -10z" />
<path d="M700 743 c0 -13 27 -26 57 -28 21 -1 21 0 6 17 -19 22 -41 24 -23 3 17 -20 1 -19 -22 2 -10 9 -18 11 -18 6z" />
<path d="M808 730 c13 -11 21 -23 18 -28 -3 -5 -86 -7 -184 -5 -122 3 -182 1 -187 -6 -4 -8 51 -11 184 -11 142 0 190 3 194 13 3 9 10 7 25 -7 12 -10 19 -23 15 -29 -3 -6 -1 -7 6 -3 7 5 46 -23 99 -71 130 -117 132 -118 132 -102 0 8 -16 25 -35 39 -20 14 -52 41 -73 60 -21 19 -58 53 -83 76 -55 51 -113 94 -125 94 -5 -1 1 -9 14 -20z" />
<path d="M856 728 c16 -12 31 -25 34 -28 31 -33 105 -88 113 -83 5 3 7 1 4 -4 -9 -14 29 -47 44 -37 7 4 10 3 6 -3 -4 -5 7 -23 23 -38 l30 -29 0 40 c0 22 -5 45 -12 52 -9 9 -9 12 0 12 26 0 10 42 -29 78 -37 33 -86 68 -67 47 4 -4 0 -14 -8 -23 -14 -13 -12 -18 12 -43 15 -16 32 -29 38 -29 6 0 -5 14 -24 31 -19 16 -30 29 -24 27 14 -4 94 -75 94 -84 0 -3 -6 -2 -12 2 -7 4 -4 -2 6 -14 11 -12 15 -22 9 -22 -5 0 -18 9 -28 20 -10 11 -21 20 -25 20 -4 0 -37 29 -75 65 -57 55 -73 65 -102 65 l-36 0 29 -22z m104 -44 c0 -8 -19 -13 -24 -6 -3 5 1 9 9 9 8 0 15 -2 15 -3z" />
<path d="M665 720 c-3 -5 1 -10 10 -10 9 0 13 5 10 10 -3 6 -8 10 -10 10 -2 0 -7 -4 -10 -10z" />
<path d="M209 667 c-41 -31 -91 -79 -87 -83 3 -2 29 18 59 46 50 47 64 65 28 37z" />
<path d="M402 629 c-18 -17 -30 -34 -27 -40 3 -5 0 -6 -7 -4 -21 8 -90 -68 -86 -94 3 -20 7 -18 55 24 76 67 78 54 3 -16 -51 -48 -54 -53 -15 -21 54 43 110 100 85 87 -8 -4 5 14 30 41 25 27 41 45 36 42 -5 -4 -16 -3 -25 2 -13 6 -25 1 -49 -21z" />
<path d="M800 648 c8 -8 47 -42 87 -77 42 -36 70 -68 67 -75 -3 -8 2 -16 11 -20 9 -3 14 -10 10 -15 -3 -5 -1 -12 4 -15 13 -9 7 19 -8 38 -18 21 -3 20 22 -1 11 -10 17 -12 12 -4 -4 7 -3 16 3 20 14 8 -1 26 -68 81 -30 24 -62 53 -71 62 -9 10 -22 18 -30 18 -7 0 5 -18 26 -40 21 -22 34 -40 29 -40 -6 0 -19 9 -30 21 -10 12 -32 30 -49 42 -16 11 -23 14 -15 5z m160 -108 c25 -22 39 -40 32 -40 -7 0 -32 18 -55 40 -54 51 -36 51 23 0z" />
<path d="M558 643 c7 -3 16 -2 19 1 4 3 -2 6 -13 5 -11 0 -14 -3 -6 -6z" />
<path d="M618 643 c7 -3 16 -2 19 1 4 3 -2 6 -13 5 -11 0 -14 -3 -6 -6z" />
<path d="M688 643 c17 -2 47 -2 65 0 17 2 3 4 -33 4 -36 0 -50 -2 -32 -4z" />
<path d="M456 605 c-22 -19 -35 -35 -30 -35 6 0 25 16 44 35 43 44 36 44 -14 0z" />
<path d="M1050 630 c0 -5 5 -10 11 -10 5 0 7 5 4 10 -3 6 -8 10 -11 10 -2 0 -4 -4 -4 -10z" />
<path d="M468 572 c-25 -26 -45 -55 -45 -64 0 -9 4 -15 9 -12 5 4 7 9 3 12 -6 7 75 92 88 92 5 0 3 -8 -4 -17 -7 -10 -1 -7 14 6 15 14 27 25 27 26 0 0 -10 1 -23 3 -16 1 -37 -13 -69 -46z" />
<path d="M802 612 c-8 -6 9 -24 55 -61 l68 -53 -55 51 c-30 28 -54 55 -52 61 2 12 1 12 -16 2z" />
<path d="M549 583 l-24 -28 30 25 c17 14 32 26 34 28 2 1 0 2 -6 2 -5 0 -20 -12 -34 -27z" />
<path d="M533 545 c-48 -43 -51 -48 -48 -88 l3 -42 196 -3 196 -2 0 44 c0 42 -3 47 -56 90 l-56 46 -91 0 -92 0 -52 -45z m197 -26 l0 -60 -52 3 -52 3 -3 45 c-4 66 0 70 57 70 l50 0 0 -61z" />
<path d="M711 544 c0 -11 3 -14 6 -6 3 7 2 16 -1 19 -3 4 -6 -2 -5 -13z" />
<path d="M693 499 c-1 -10 5 -19 13 -19 17 0 18 14 1 28 -10 8 -13 6 -14 -9z" />
<path d="M653 493 c0 -7 6 -13 14 -13 7 0 13 6 13 13 0 8 -6 14 -13 14 -8 0 -14 -6 -14 -14z" />
<path d="M456 522 c-3 -5 1 -9 9 -9 8 0 12 4 9 9 -3 4 -7 8 -9 8 -2 0 -6 -4 -9 -8z" />
<path d="M248 504 c-5 -4 -8 -54 -8 -110 0 -85 3 -105 17 -112 13 -8 0 -17 -60 -45 -43 -20 -77 -41 -77 -47 0 -14 4 -13 47 11 21 12 58 33 83 47 25 13 59 32 75 42 17 10 41 21 55 24 30 8 -121 -82 -202 -121 -39 -18 -58 -33 -58 -45 0 -22 13 -23 30 -3 7 8 17 15 22 15 5 0 49 27 97 60 48 33 92 60 98 60 6 0 16 7 23 15 16 19 31 19 24 0 -4 -8 -11 -15 -17 -15 -5 0 -33 -15 -61 -33 -28 -18 -86 -56 -129 -84 -65 -42 -75 -52 -63 -62 12 -10 24 -5 68 26 47 34 186 140 264 201 l29 23 -36 -20 c-46 -27 -58 -27 -28 0 13 11 18 18 11 14 -7 -4 -21 -1 -30 7 -15 12 -16 11 -4 -4 16 -20 7 -26 -40 -24 -20 1 -35 0 -33 -3 6 -5 -51 -41 -66 -41 -6 0 -7 4 -4 10 3 5 0 8 -7 5 -10 -4 -12 11 -10 68 4 90 0 151 -10 141z" />
<path d="M933 435 c0 -44 2 -61 4 -37 2 23 2 59 0 80 -2 20 -4 1 -4 -43z" />
<path d="M1030 471 c0 -23 2 -41 4 -41 8 0 12 71 4 76 -4 3 -8 -13 -8 -35z" />
<path d="M350 465 c-7 -8 -18 -15 -25 -15 -7 0 -19 -7 -26 -17 -13 -15 -12 -15 16 0 41 21 72 46 59 47 -6 0 -17 -7 -24 -15z" />
<path d="M444 462 c-16 -11 -24 -41 -13 -48 6 -3 15 -2 21 4 13 13 6 54 -8 44z" />
<path d="M1060 457 c0 -8 11 -22 25 -31 34 -22 34 2 0 27 -20 14 -25 15 -25 4z" />
<path d="M912 435 c0 -16 2 -22 5 -12 2 9 2 23 0 30 -3 6 -5 -1 -5 -18z" />
<path d="M891 424 c0 -11 3 -14 6 -6 3 7 2 16 -1 19 -3 4 -6 -2 -5 -13z" />
<path d="M355 420 c3 -6 -2 -13 -11 -17 -10 -4 -19 -2 -21 4 -6 18 -43 2 -43 -18 0 -23 -4 -23 53 -3 49 16 58 28 31 38 -8 3 -12 2 -9 -4z" />
<path d="M950 420 c0 -5 4 -10 9 -10 5 0 18 -3 28 -6 16 -6 16 -5 -2 9 -23 19 -35 21 -35 7z" />
<path d="M1060 396 c0 -8 9 -18 21 -21 29 -10 31 -3 3 18 -20 15 -24 15 -24 3z" />
<path d="M488 322 c-53 -42 -135 -106 -183 -142 -145 -109 -137 -99 -89 -100 31 0 46 6 65 26 69 75 151 111 185 83 7 -6 15 -6 18 -1 3 5 30 10 61 11 55 1 62 -4 56 -41 0 -5 11 -8 25 -8 31 0 54 -21 54 -49 0 -18 6 -21 40 -21 32 0 40 4 39 18 -1 24 -27 90 -28 70 -1 -12 -10 -16 -38 -15 -21 1 -37 5 -35 10 1 4 2 14 2 23 0 11 6 15 20 11 11 -3 20 -2 20 3 0 11 54 7 62 -5 4 -6 8 -1 8 10 1 17 2 18 13 5 7 -9 20 -14 30 -12 9 2 17 -1 17 -7 0 -6 -4 -11 -10 -11 -5 0 -10 -5 -10 -11 0 -5 5 -7 11 -3 7 4 10 1 7 -7 -3 -9 -16 -13 -38 -11 -27 3 -32 1 -26 -13 3 -9 6 -25 6 -36 0 -16 7 -19 46 -19 40 0 45 2 39 18 -16 38 -14 55 3 20 16 -35 20 -38 60 -38 23 0 42 3 42 6 0 4 -28 49 -62 100 -39 57 -70 93 -80 94 -21 0 -21 -1 -8 -34 18 -48 0 -26 -26 32 -57 126 -56 124 -50 62 3 -30 9 -67 12 -82 4 -18 2 -28 -5 -28 -6 0 -11 13 -11 29 0 17 -4 32 -9 35 -4 3 -6 17 -4 31 3 13 2 37 -3 52 -7 26 -8 26 -15 -17 -4 -25 -8 -64 -8 -87 -1 -23 -6 -45 -11 -48 -11 -6 -9 22 6 140 3 21 2 36 -2 32 -15 -14 -32 -78 -27 -97 3 -11 1 -20 -5 -20 -5 0 -15 -15 -22 -32 -7 -18 -14 -28 -16 -22 -3 7 7 45 21 85 14 40 25 77 25 83 -1 10 -43 -61 -45 -74 0 -3 -8 -16 -17 -30 -9 -14 -18 -32 -20 -40 -2 -8 -7 -18 -13 -22 -22 -16 -25 -7 -8 25 10 17 18 37 18 43 0 6 8 19 18 28 10 10 25 32 34 49 15 30 15 31 0 18 -10 -7 -17 -10 -17 -6 0 4 -45 -34 -101 -85 -55 -50 -103 -89 -107 -86 -3 4 4 13 16 22 12 8 19 20 16 26 -4 7 -2 8 4 4 7 -4 42 23 84 63 40 39 71 70 68 70 -3 0 -49 -35 -102 -77z m122 50 c0 -4 -22 -34 -50 -67 -27 -32 -46 -63 -43 -69 3 -6 3 -8 -2 -4 -4 4 -14 3 -22 -3 -28 -24 -10 4 49 76 65 77 68 80 68 67z" />
<path d="M750 394 c0 -13 18 -39 24 -34 2 3 -2 14 -10 24 -8 11 -14 16 -14 10z" />
<path d="M810 341 c22 -33 49 -62 60 -66 11 -3 20 -11 20 -16 0 -6 -5 -7 -11 -3 -8 4 -8 0 0 -15 7 -13 21 -21 38 -21 21 0 23 2 13 15 -7 8 -15 13 -19 11 -4 -3 -8 5 -8 16 -2 19 2 17 31 -11 26 -25 35 -29 39 -18 7 20 -29 52 -59 52 -24 1 -114 79 -114 99 0 6 18 -8 40 -29 22 -21 40 -34 40 -28 0 15 -66 66 -91 70 -17 3 -14 -5 21 -56z" />
<path d="M1033 350 c0 -30 2 -43 4 -27 2 15 2 39 0 55 -2 15 -4 2 -4 -28z" />
<path d="M133 383 c-17 -6 -17 -63 -1 -63 28 0 98 34 98 47 0 8 -4 11 -10 8 -5 -3 -10 -1 -10 4 0 11 -54 14 -77 4z" />
<path d="M875 361 c28 -30 65 -57 65 -48 0 3 -21 22 -47 43 -46 36 -47 36 -18 5z" />
<path d="M958 358 c5 -5 16 -8 23 -6 8 3 3 7 -10 11 -17 4 -21 3 -13 -5z" />
<path d="M776 342 c-7 -11 6 -27 27 -35 16 -6 16 -5 1 18 -18 27 -20 29 -28 17z" />
<path d="M935 340 c8 -13 65 -43 71 -37 5 4 -61 47 -72 47 -3 0 -2 -5 1 -10z" />
<path d="M150 310 c-8 -5 -10 -10 -5 -10 6 0 17 5 25 10 8 5 11 10 5 10 -5 0 -17 -5 -25 -10z" />
<path d="M950 302 c0 -13 59 -66 66 -59 4 3 4 12 1 19 -6 16 -67 53 -67 40z" />
</g>
</svg>