<?xml version='1.0' encoding='utf-8'?>
<svg xmlns="http://www.w3.org/2000/svg" viewBox="0 0 100 100">
<g transform="translate(50,50) scale(0.680272) translate(-41.7,-61.4) translate(0.000000,95.000000) scale(0.100000,-0.100000)" fill="currentColor" stroke="none">
<path d="M101 882 c0 -4 29 -31 63 -59 l63 -53 87 0 c47 0 86 3 86 7 0 4 -10 31 -22 60 l-21 52 -129 0 c-70 0 -128 -3 -127 -7z" fill="currentColor" stroke="none" /><path d="M380 881 c0 -4 10 -31 21 -60 21 -49 23 -51 61 -51 l39 0 -3 60 -3 60 -57 0 c-32 0 -58 -4 -58 -9z" fill="currentColor" stroke="none" /><path d="M262 578 c2 -35 6 -62 11 -60 4 1 79 2 167 2 l160 0 0 60 0 60 -170 0 -171 0 3 -62z" fill="currentColor" stroke="none" /><path d="M260 405 l0 -35 160 0 160 0 0 35 0 35 -160 0 -160 0 0 -35z" fill="currentColor" stroke="none" /><path d="M72 867 c-5 -7 -12 -30 -14 -52 -5 -39 -4 -42 34 -64 l39 -22 36 22 36 22 -24 20 c-13 10 -40 34 -61 53 -27 24 -39 30 -46 21z" fill="currentColor" stroke="none" /><path d="M50 535 c1 -113 5 -207 10 -210 4 -3 15 -2 24 1 14 5 16 32 16 196 0 170 -2 192 -17 204 -10 7 -22 14 -26 14 -4 0 -7 -92 -7 -205z" fill="currentColor" stroke="none" /><path d="M730 555 l0 -35 53 0 c29 0 57 4 63 9 5 6 32 11 59 13 43 3 50 6 53 26 3 22 2 22 -112 22 l-116 0 0 -35z" fill="currentColor" stroke="none" /><path d="M895 510 c12 -13 15 -27 11 -45 -6 -24 -9 -25 -81 -25 -63 0 -76 -3 -85 -19 -7 -13 -7 -22 0 -26 5 -3 10 -21 10 -40 0 -26 7 -38 29 -54 16 -12 32 -21 35 -21 3 0 6 20 6 44 0 25 4 47 9 50 9 6 31 -37 31 -62 0 -9 5 -33 10 -53 13 -46 58 -60 96 -30 27 21 18 36 -26 44 -14 2 3 5 38 6 l62 1 0 40 c0 22 -5 40 -11 40 -5 0 -8 -4 -5 -9 8 -12 -23 -18 -64 -11 -23 3 -36 11 -38 23 -6 29 17 46 70 53 39 5 47 9 33 16 -9 6 -25 8 -35 5 -11 -3 -25 2 -32 10 -11 13 -13 13 -18 -3 -6 -16 -7 -15 -12 4 -4 14 -2 20 5 15 7 -4 8 0 3 13 -5 10 -11 27 -13 37 -3 9 -15 17 -26 17 -19 0 -19 -1 -2 -20z" fill="currentColor" stroke="none" /><path d="m15 -182 c0 -16 -3 -19 -11 -11 -6 6 -8 16 -5 22 11 17 16 13 16 -11z" fill="currentColor" stroke="none" /><path d="M825 490 l-29 -30 27 0 c20 0 30 7 37 26 18 45 6 47 -35 4z" fill="currentColor" stroke="none" /><path d="M944 498 c3 -7 9 -20 12 -29 4 -12 18 -17 45 -17 37 -1 39 1 39 29 0 28 -1 29 -51 29 -37 0 -49 -3 -45 -12z" fill="currentColor" stroke="none" /><path d="M731 468 c1 -18 3 -25 6 -15 3 10 14 17 28 17 12 0 28 7 35 15 11 13 7 15 -29 15 -40 0 -41 -1 -40 -32z" fill="currentColor" stroke="none" /><path d="M876 483 c-4 -9 -2 -21 4 -27 7 -7 10 -2 10 17 0 31 -5 34 -14 10z" fill="currentColor" stroke="none" /><path d="M940 385 c-17 -20 -4 -35 31 -35 30 0 38 17 17 38 -16 16 -33 15 -48 -3z" fill="currentColor" stroke="none" /><path d="M1005 390 c3 -5 13 -10 21 -10 8 0 14 5 14 10 0 6 -9 10 -21 10 -11 0 -17 -4 -14 -10z" fill="currentColor" stroke="none" /></g>
</svg>