<?xml version='1.0' encoding='utf-8'?>
<svg xmlns="http://www.w3.org/2000/svg" viewBox="0 0 100 100">
<g transform="translate(50,50) scale(0.609292) translate(-31.35,-62.9) translate(0.000000,96.000000) scale(0.100000,-0.100000)" fill="currentColor" stroke="none">
<path d="M962 585 l-1 -45 39 0 40 0 0 45 0 45 -39 0 -38 0 -1 -45z" fill="currentColor" stroke="none" /><path d="M115 692 l0 -207 -32 -3 -33 -3 0 -66 0 -65 36 7 c20 3 47 10 60 15 l24 10 0 225 0 225 30 0 c28 0 30 3 30 35 l0 35 -57 0 -58 0 0 -208z" fill="currentColor" stroke="none" /><path d="M240 870 c0 -29 1 -30 48 -30 26 0 90 5 142 10 52 6 185 19 295 29 l200 19 -342 1 -343 1 0 -30z" fill="currentColor" stroke="none" /><path d="M67 859 c-9 -23 -15 -84 -16 -191 -2 -135 0 -158 13 -158 12 0 15 29 18 188 2 103 2 189 1 191 -1 2 -8 -12 -16 -30z" fill="currentColor" stroke="none" /><path d="M767 862 c6 -4 13 -23 16 -42 4 -33 4 -33 5 8 2 34 -1 42 -15 42 -12 0 -14 -3 -6 -8z" fill="currentColor" stroke="none" /><path d="M860 861 l-55 -6 -3 -42 -3 -43 48 0 c83 0 93 6 93 56 0 29 -4 43 -12 42 -7 -1 -38 -4 -68 -7z" fill="currentColor" stroke="none" /><path d="M970 826 c0 -46 0 -46 36 -46 l35 0 -3 43 c-3 39 -5 42 -35 45 -33 3 -33 3 -33 -42z" fill="currentColor" stroke="none" /><path d="M680 844 c-8 -1 -41 -6 -72 -9 l-58 -6 0 -35 0 -34 94 0 c120 0 126 2 126 51 0 39 0 39 -37 38 -21 -1 -45 -3 -53 -5z" fill="currentColor" stroke="none" /><path d="M952 825 c0 -16 2 -22 5 -12 2 9 2 23 0 30 -3 6 -5 -1 -5 -18z" fill="currentColor" stroke="none" /><path d="M458 823 c-24 -4 -28 -9 -28 -39 l0 -34 50 0 50 0 0 40 c0 43 -1 44 -72 33z" fill="currentColor" stroke="none" /><path d="M278 813 l-78 -4 0 -34 0 -35 54 0 c29 0 74 3 100 6 44 6 46 8 46 40 0 29 -3 34 -22 32 -13 -1 -58 -4 -100 -5z" fill="currentColor" stroke="none" /><path d="M623 743 c15 -2 37 -2 50 0 12 2 0 4 -28 4 -27 0 -38 -2 -22 -4z" fill="currentColor" stroke="none" /><path d="M959 746 c-3 -3 -3 -23 -1 -45 4 -40 5 -41 43 -41 l39 0 0 45 0 45 -38 0 c-21 0 -41 -2 -43 -4z" fill="currentColor" stroke="none" /><path d="M603 733 l-123 -4 0 -95 0 -95 52 3 52 3 -3 66 -2 66 65 5 c36 3 80 3 98 -1 27 -6 33 -11 32 -31 -1 -14 -2 -42 -3 -62 -1 -37 -2 -38 -38 -40 l-38 -1 35 -5 c33 -5 34 -5 10 -12 -15 -5 20 -8 87 -8 l113 0 -2 109 -2 109 -105 -2 c-58 -1 -161 -4 -228 -5z" fill="currentColor" stroke="none" /><path d="M238 723 c-34 -4 -38 -7 -38 -34 0 -16 3 -29 8 -29 4 0 49 -3 100 -7 l92 -6 0 42 0 41 -62 -2 c-35 -1 -80 -3 -100 -5z" fill="currentColor" stroke="none" /><path d="M430 703 c4 -63 1 -73 -25 -73 -23 0 -25 -4 -25 -46 0 -25 5 -54 11 -66 6 -11 11 -45 12 -76 2 -52 4 -57 29 -66 15 -5 29 -8 32 -5 14 15 11 111 -5 163 -19 58 -25 116 -12 102 4 -3 10 -25 14 -49 5 -32 7 -21 8 51 1 87 0 92 -20 92 -16 0 -20 -6 -19 -27z" fill="currentColor" stroke="none" /><path d="M590 643 c0 -68 5 -71 91 -75 l79 -3 0 53 0 52 -85 0 -85 0 0 -27z" fill="currentColor" stroke="none" /><path d="M253 632 l-53 -3 0 -35 0 -34 80 0 80 0 0 38 c0 43 7 41 -107 34z" fill="currentColor" stroke="none" /><path d="M628 553 c7 -3 16 -2 19 1 4 3 -2 6 -13 5 -11 0 -14 -3 -6 -6z" fill="currentColor" stroke="none" /><path d="M200 516 l0 -34 90 -7 c65 -5 90 -11 90 -20 0 -11 -19 -12 -90 -8 l-90 6 0 -30 0 -31 88 -11 c48 -7 101 -19 117 -27 22 -11 24 -13 8 -10 -13 2 -23 0 -23 -6 0 -5 10 -8 23 -7 12 2 33 -1 46 -5 14 -5 27 -4 34 3 14 14 6 21 -31 25 -59 8 -72 22 -72 78 0 28 -5 67 -12 85 l-12 33 -83 0 -83 0 0 -34z" fill="currentColor" stroke="none" /><path d="M543 503 c15 -2 39 -2 55 0 15 2 2 4 -28 4 -30 0 -43 -2 -27 -4z" fill="currentColor" stroke="none" /><path d="M967 503 c-5 -9 -10 -50 -8 -71 1 -9 11 -12 29 -11 15 2 33 0 40 -4 9 -6 12 4 12 42 l0 51 -34 0 c-19 0 -37 -3 -39 -7z" fill="currentColor" stroke="none" /><path d="M68 493 c6 -2 18 -2 25 0 6 3 1 5 -13 5 -14 0 -19 -2 -12 -5z" fill="currentColor" stroke="none" /><path d="M718 493 c7 -3 16 -2 19 1 4 3 -2 6 -13 5 -11 0 -14 -3 -6 -6z" fill="currentColor" stroke="none" /><path d="M917 493 c-4 -3 -7 -53 -7 -110 0 -79 3 -104 12 -101 9 3 13 37 14 111 2 99 -2 118 -19 100z" fill="currentColor" stroke="none" /><path d="M518 483 c12 -2 32 -2 45 0 12 2 2 4 -23 4 -25 0 -35 -2 -22 -4z" fill="currentColor" stroke="none" /><path d="M858 483 c6 -2 18 -2 25 0 6 3 1 5 -13 5 -14 0 -19 -2 -12 -5z" fill="currentColor" stroke="none" /><path d="M623 473 c20 -2 54 -2 75 0 20 2 3 4 -38 4 -41 0 -58 -2 -37 -4z" fill="currentColor" stroke="none" /><path d="M740 474 c1 -24 21 -34 78 -40 59 -7 62 -6 62 15 0 18 -6 21 -47 21 -27 0 -58 3 -70 6 -13 4 -23 2 -23 -2z" fill="currentColor" stroke="none" /><path d="M604 448 c-4 -6 3 -19 16 -28 26 -20 19 -40 -14 -40 -13 0 -29 -6 -35 -14 -15 -18 -2 -23 88 -32 l71 -7 1 29 c1 30 -2 88 -4 90 -12 8 -118 10 -123 2z" fill="currentColor" stroke="none" /><path d="M543 443 c9 -2 25 -2 35 0 9 3 1 5 -18 5 -19 0 -27 -2 -17 -5z" fill="currentColor" stroke="none" /><path d="M513 423 c9 -2 25 -2 35 0 9 3 1 5 -18 5 -19 0 -27 -2 -17 -5z" fill="currentColor" stroke="none" /><path d="M750 407 c0 -24 3 -25 65 -29 55 -2 65 0 65 13 0 12 -13 18 -50 23 -28 4 -57 9 -65 12 -11 5 -15 -1 -15 -19z" fill="currentColor" stroke="none" /><path d="M486 394 c-9 -23 -4 -25 32 -18 41 8 43 34 3 34 -18 0 -31 -6 -35 -16z" fill="currentColor" stroke="none" /><path d="M585 400 c3 -5 12 -7 20 -3 21 7 19 13 -6 13 -11 0 -18 -4 -14 -10z" fill="currentColor" stroke="none" /><path d="M960 346 c0 -46 9 -56 56 -56 22 0 24 4 24 50 l0 50 -40 0 -40 0 0 -44z" fill="currentColor" stroke="none" /><path d="M115 346 l-60 -23 -3 -80 c-3 -74 -1 -83 24 -112 l26 -31 447 0 448 0 21 23 c17 18 22 36 22 79 l0 57 -54 6 c-35 5 -61 3 -76 -5 -34 -18 -171 6 -177 31 -4 13 -22 20 -71 28 -111 17 -142 18 -142 5 0 -16 24 -24 71 -24 30 0 37 -3 33 -15 -9 -22 16 -76 30 -68 21 14 48 14 43 0 -3 -9 7 -12 39 -10 45 3 58 -5 48 -30 -7 -20 -110 -19 -106 1 1 6 -2 12 -8 12 -5 0 -10 -8 -11 -17 0 -15 -2 -15 -9 2 -7 17 -9 17 -9 3 -1 -23 -21 -24 -21 -1 0 15 -1 15 -12 1 -21 -25 -76 -40 -99 -25 -10 6 -19 19 -20 27 0 10 -3 8 -8 -5 l-8 -20 -5 20 c-4 14 -6 15 -7 4 -1 -19 -62 -24 -73 -6 -6 9 -8 9 -8 0 0 -18 -20 -16 -42 4 -17 15 -18 15 -18 0 0 -10 -4 -17 -10 -17 -5 0 -10 11 -10 25 0 23 4 25 40 25 25 0 40 -5 40 -12 0 -10 3 -9 9 1 6 8 16 11 31 6 14 -4 20 -3 17 2 -4 6 2 25 11 44 l18 35 -33 -11 c-18 -5 -33 -13 -33 -17 0 -5 -4 -8 -10 -8 -5 0 -10 8 -10 19 0 13 11 21 43 28 36 9 38 11 13 12 -16 0 -37 7 -45 15 -9 8 -48 20 -86 25 -39 6 -83 13 -100 15 -17 3 -55 -5 -90 -18z" fill="currentColor" stroke="none" /><path d="M750 330 c0 -45 1 -46 78 -55 l52 -6 0 46 c0 41 -2 45 -24 45 -13 0 -26 -5 -28 -11 -3 -8 -12 -9 -28 -4 l-25 9 25 7 c22 6 20 7 -12 8 -38 1 -38 1 -38 -39z" fill="currentColor" stroke="none" /></g>
</svg>