<?xml version='1.0' encoding='utf-8'?>
<svg xmlns="http://www.w3.org/2000/svg" viewBox="0 0 114.000000 96.000000">
<g transform="translate(0.000000,96.000000) scale(0.100000,-0.100000)" fill="currentColor" stroke="none">
<path d="M126 878 c-14 -19 -16 -73 -16 -380 0 -340 1 -359 19 -377 19 -19 39 -20 430 -21 l411 -1 -36 48 -36 47 4 288 c1 158 1 288 -2 288 -3 0 -18 -12 -33 -26 l-29 -24 -1 -225 c-1 -124 -5 -224 -9 -222 -4 1 -39 38 -78 82 l-70 80 0 70 c0 38 -3 87 -6 108 l-7 37 -73 0 -74 0 0 -110 0 -109 -72 -73 c-77 -77 -102 -113 -91 -131 3 -5 1 -7 -4 -4 -8 5 -72 -60 -110 -112 -2 -2 -6 -2 -9 2 -4 3 19 37 51 74 l58 68 -73 -73 c-39 -41 -74 -71 -77 -68 -3 3 31 43 76 90 l81 85 0 246 c0 222 2 246 15 235 9 -7 13 -20 10 -29 -3 -8 -3 -12 1 -8 4 4 16 0 26 -10 16 -14 18 -34 18 -192 l1 -176 44 50 45 50 0 96 0 97 -82 125 -83 126 -102 1 c-94 0 -103 -2 -117 -22z m556 -660 c3 -7 18 -11 36 -10 25 2 31 -2 35 -20 4 -20 4 -19 6 5 1 37 21 35 21 -3 0 -29 -2 -30 -45 -30 -36 0 -45 4 -46 18 0 13 -2 14 -6 2 -4 -8 -13 -20 -22 -26 -20 -15 -71 2 -72 24 -1 15 -2 15 -6 0 -2 -10 -9 -18 -14 -18 -5 0 -10 8 -10 18 -1 14 -2 15 -6 1 -6 -22 -109 -21 -123 1 -8 13 -10 12 -10 -2 0 -10 -4 -18 -10 -18 -5 0 -10 11 -10 24 0 24 0 24 103 23 98 -2 102 -3 105 -24 3 -17 10 -23 28 -23 21 0 24 5 24 35 0 34 14 48 22 23z m115 -40 c-2 -13 -4 -5 -4 17 -1 22 1 32 4 23 2 -10 2 -28 0 -40z" />
<path d="M370 892 c0 -10 57 -100 74 -118 8 -7 17 -10 21 -6 5 4 5 2 2 -5 -4 -6 5 -30 20 -52 l27 -41 85 0 86 1 65 95 c36 53 71 104 79 115 13 19 8 19 -223 19 -130 0 -236 -4 -236 -8z" />
<path d="M809 825 c-29 -42 -69 -96 -86 -120 -33 -43 -33 -45 -33 -152 l1 -108 64 -70 64 -70 1 207 0 208 36 32 c68 63 64 80 64 -244 l0 -293 56 -58 c59 -61 78 -65 102 -26 11 17 14 98 14 371 0 303 -3 352 -16 374 -16 23 -22 24 -114 24 l-98 0 -55 -75z" />
<path d="M378 687 c-12 -30 -10 -383 2 -371 7 7 9 80 8 200 -2 104 -6 181 -10 171z" />
</g>
</svg>