<?xml version='1.0' encoding='utf-8'?>
<svg xmlns="http://www.w3.org/2000/svg" viewBox="0 0 114.000000 96.000000">
<g transform="translate(0.000000,96.000000) scale(0.100000,-0.100000)" fill="currentColor" stroke="none">
<path d="M86 878 c-14 -19 -16 -64 -16 -285 l0 -262 31 9 c18 5 33 11 36 13 2 3 -2 37 -8 77 -12 71 -12 74 10 92 14 11 39 18 65 18 37 0 43 -3 53 -29 10 -27 16 -30 59 -33 42 -3 49 -6 52 -26 2 -13 8 -20 14 -16 6 4 8 3 5 -2 -3 -6 -2 -16 3 -23 10 -17 93 -6 114 15 11 10 16 11 19 1 3 -6 6 3 6 21 1 34 -14 44 -22 15 -4 -14 -5 -13 -6 4 0 12 3 25 9 28 6 4 10 68 10 159 l0 153 -82 19 c-46 10 -90 19 -98 20 -8 1 -22 4 -30 7 -39 16 -102 27 -112 21 -6 -4 -8 -3 -5 3 4 6 -7 13 -24 17 -52 10 -67 7 -83 -16z" />
<path d="M238 890 c12 -5 38 -10 57 -12 19 -1 35 -5 35 -9 0 -4 15 -9 33 -11 17 -3 62 -13 99 -23 l68 -19 192 38 c106 22 195 40 197 42 2 2 -155 4 -350 3 -222 0 -346 -4 -331 -9z" />
<path d="M845 865 c-83 -18 -185 -38 -228 -45 l-77 -13 0 -150 0 -150 36 6 c20 3 42 14 49 23 11 15 28 16 191 8 176 -9 179 -9 182 -32 3 -18 34 -42 56 -42 1 0 0 89 -2 198 -3 162 -6 200 -19 215 -20 21 -6 22 -188 -18z" />
<path d="M630 500 c0 -25 4 -30 35 -36 42 -7 40 -9 48 34 l7 32 -45 0 c-43 0 -45 -1 -45 -30z" />
<path d="M727 498 c-2 -18 -3 -34 -2 -36 2 -2 26 -6 54 -9 45 -4 51 -2 51 14 0 10 3 28 6 41 6 21 3 22 -49 22 -54 0 -55 0 -60 -32z" />
<path d="M858 524 c-5 -4 -8 -25 -8 -46 0 -35 2 -38 29 -38 16 0 31 6 34 14 3 8 22 18 41 22 26 4 36 11 36 25 0 12 -7 19 -19 19 -10 0 -38 3 -62 6 -24 3 -47 2 -51 -2z" />
<path d="M143 514 c-24 -10 29 -47 74 -52 24 -2 46 -9 49 -13 3 -5 26 -9 50 -9 62 0 54 24 -10 28 -39 3 -49 7 -58 28 -9 20 -18 24 -52 23 -23 0 -46 -3 -53 -5z" />
<path d="M563 493 c-14 -3 -23 -12 -23 -23 0 -16 4 -17 32 -9 18 5 34 9 35 9 2 0 3 7 3 15 0 15 -6 16 -47 8z" />
<path d="M134 470 c3 -14 9 -44 12 -66 6 -37 10 -43 36 -48 46 -9 109 -6 148 7 27 9 35 17 35 37 0 16 -6 26 -18 28 -30 6 -65 -7 -70 -26 -3 -12 -7 -9 -17 16 -10 28 -17 32 -48 32 -23 0 -44 8 -60 23 l-25 22 7 -25z" />
<path d="M948 457 c-26 -10 -28 -15 -28 -73 0 -69 9 -79 52 -58 22 11 27 22 30 56 3 36 6 43 24 42 16 0 20 5 16 23 -3 18 -10 23 -36 22 -17 -1 -43 -6 -58 -12z" />
<path d="M586 451 c-41 -9 -43 -28 -4 -34 24 -3 38 1 50 13 15 16 15 19 2 24 -9 3 -16 5 -17 5 -1 -1 -15 -4 -31 -8z" />
<path d="M673 439 c-46 -13 -41 -27 13 -35 38 -5 48 -3 64 14 19 20 18 20 -3 26 -27 7 -34 7 -74 -5z" />
<path d="M810 432 c-26 -4 -50 -19 -50 -31 0 -4 32 -12 70 -17 53 -7 70 -7 70 2 0 7 3 19 6 27 4 11 -4 16 -33 18 -21 2 -49 2 -63 1z" />
<path d="M519 399 c-20 -12 134 -31 171 -21 30 9 32 10 10 12 -14 1 -58 5 -98 9 -40 4 -77 4 -83 0z" />
<path d="M1015 361 c4 -49 -9 -77 -25 -51 -6 9 -13 7 -29 -9 -24 -24 -37 -26 -44 -7 -3 7 -25 16 -49 19 -23 3 -58 9 -75 13 -31 6 -33 5 -33 -21 0 -24 -3 -26 -29 -20 -23 5 -35 1 -51 -15 -11 -11 -18 -26 -15 -33 4 -7 -4 0 -17 15 -16 19 -40 31 -73 38 -116 24 -115 24 -115 5 0 -9 -6 -15 -12 -12 -9 2 -12 21 -10 55 3 41 0 52 -12 52 -19 0 -46 -27 -46 -46 0 -17 -27 -19 -32 -2 -6 18 -58 -6 -58 -27 0 -8 -7 -15 -15 -15 -8 0 -15 7 -15 15 0 10 -10 15 -29 15 -16 0 -36 3 -45 6 -11 4 -16 1 -16 -10 0 -9 -4 -16 -10 -16 -5 0 -10 5 -10 11 0 6 -16 9 -37 7 l-38 -3 -3 -90 c-2 -80 0 -93 18 -113 l21 -22 448 0 c413 0 450 1 470 17 19 17 21 29 22 153 1 129 0 135 -19 138 -19 3 -21 -1 -17 -47z m-417 -167 c-4 -47 -27 -63 -62 -44 -14 7 -27 20 -27 29 -1 13 -2 12 -6 -1 -2 -10 -9 -18 -14 -18 -5 0 -9 8 -10 18 0 14 -2 14 -9 -3 -8 -18 -9 -17 -9 6 -1 22 4 27 29 31 36 5 40 2 40 -29 0 -21 4 -24 28 -21 24 3 27 7 24 36 -2 19 1 32 8 32 7 0 10 -14 8 -36z m41 8 c7 -2 22 5 32 14 18 16 19 16 20 -7 0 -13 3 -18 6 -11 2 6 13 12 24 12 14 0 19 -7 18 -27 0 -25 -1 -26 -9 -8 -7 17 -9 17 -9 3 -1 -20 -21 -25 -21 -5 0 8 -4 7 -10 -3 -8 -12 -11 -13 -19 -1 -7 11 -9 11 -14 0 -5 -11 -9 -10 -21 4 -14 18 -14 18 -19 0 -3 -10 -5 0 -5 22 0 22 2 33 6 25 4 -8 13 -16 21 -18z m-238 -4 c0 -10 2 -10 6 0 2 6 13 12 24 12 29 0 26 -46 -3 -52 -37 -6 -68 2 -68 18 0 23 -18 16 -23 -8 -3 -20 -4 -21 -11 -5 -14 29 1 47 39 47 21 0 35 -5 36 -12z m399 -11 c0 -25 -17 -47 -36 -47 -11 0 -17 47 -7 63 2 4 13 7 24 7 13 0 19 -7 19 -23z" />
<path d="M470 360 c10 -6 11 -10 3 -10 -7 0 -13 -4 -13 -10 0 -5 8 -10 19 -10 10 0 34 -6 52 -14 19 -7 51 -16 72 -20 36 -7 37 -6 37 24 0 19 -5 30 -14 30 -7 0 -27 3 -44 6 -24 5 -31 2 -35 -12 -4 -16 -5 -15 -6 4 -1 19 -6 22 -43 22 -32 0 -39 -3 -28 -10z" />
<path d="M695 360 c-4 -6 5 -10 19 -10 14 0 26 5 26 10 0 6 -9 10 -19 10 -11 0 -23 -4 -26 -10z" />
<path d="M760 356 c0 -10 16 -16 58 -21 31 -4 65 -9 74 -11 15 -4 16 -1 9 18 -7 20 -16 23 -75 26 -53 2 -66 0 -66 -12z" />
</g>
</svg>