<?xml version='1.0' encoding='utf-8'?>
<svg xmlns="http://www.w3.org/2000/svg" viewBox="0 0 100 100">
<g transform="translate(50,50) scale(0.625489) translate(-30.75,-71.15) translate(0.000000,95.000000) scale(0.100000,-0.100000)" fill="currentColor" stroke="none">
<path d="M498 441 c-1 -5 -44 -56 -93 -113 -50 -57 -103 -121 -118 -143 -14 -22 -38 -55 -53 -72 l-27 -33 393 0 392 0 -40 47 c-21 27 -46 62 -55 78 -8 17 -59 78 -112 138 l-98 107 -92 0 c-52 0 -95 -4 -97 -9z" fill="currentColor" stroke="none" /><path d="M136 869 l-26 -20 0 -363 c0 -393 0 -393 55 -401 26 -4 34 1 63 43 l34 47 -42 -43 c-56 -58 -62 -47 -8 16 39 46 70 70 52 40 -4 -7 -3 -8 4 -4 6 4 9 13 5 21 -3 8 0 15 6 15 8 0 11 90 10 313 -1 171 1 312 4 312 3 0 28 -19 56 -43 l51 -43 0 -196 0 -196 25 23 c24 23 25 27 25 167 0 79 4 143 9 143 22 0 31 -34 34 -136 l3 -109 2 117 2 116 -76 101 -76 101 -93 0 c-78 0 -96 -3 -119 -21z" fill="currentColor" stroke="none" /><path d="M376 878 c5 -7 37 -50 73 -95 l64 -83 88 0 87 0 71 90 c39 49 71 92 71 95 0 3 -104 5 -231 5 -181 0 -229 -3 -223 -12z" fill="currentColor" stroke="none" /><path d="M320 518 l0 -261 30 29 c29 28 29 32 30 126 0 68 -4 98 -12 101 -10 4 -10 8 -1 14 7 5 11 45 12 107 1 89 -1 102 -21 123 -12 13 -25 23 -30 23 -4 0 -8 -118 -8 -262z" fill="currentColor" stroke="none" /><path d="M846 769 c2 -4 0 -10 -6 -14 -6 -4 -10 -86 -10 -222 0 -215 0 -215 25 -245 l25 -30 0 121 c0 101 -2 121 -15 121 -8 0 -15 5 -15 10 0 6 6 10 14 10 11 0 14 26 15 129 2 124 1 130 -18 128 -11 0 -18 -4 -15 -8z" fill="currentColor" stroke="none" /><path d="M520 570 c0 -67 4 -110 10 -110 6 0 10 40 10 100 l0 101 58 -3 57 -3 3 -92 c1 -51 7 -93 12 -93 6 0 11 17 11 38 1 20 2 44 3 52 0 8 -3 18 -8 21 -4 4 -4 15 2 25 6 11 8 32 5 47 -5 27 -6 27 -84 27 l-79 0 0 -110z" fill="currentColor" stroke="none" /><path d="M564 548 l5 -83 30 -3 c30 -3 31 -2 31 37 0 22 -5 42 -12 44 -10 4 -10 6 0 6 7 1 12 16 12 41 0 39 -1 40 -35 40 l-36 0 5 -82z" fill="currentColor" stroke="none" /><path d="M721 574 c0 -11 3 -14 6 -6 3 7 2 16 -1 19 -3 4 -6 -2 -5 -13z" fill="currentColor" stroke="none" /></g>
</svg>