<?xml version='1.0' encoding='utf-8'?>
<svg xmlns="http://www.w3.org/2000/svg" viewBox="0 0 114.000000 96.000000">
<g transform="translate(0.000000,96.000000) scale(0.100000,-0.100000)" fill="currentColor" stroke="none">
<path d="M117 882 c-13 -14 -17 -37 -17 -95 0 -70 2 -77 20 -77 11 0 20 7 20 15 0 8 4 15 9 15 10 0 3 112 -8 143 -7 17 -8 17 -24 -1z" />
<path d="M170 855 c0 -24 5 -67 11 -96 l11 -51 37 6 c20 3 42 6 49 6 9 0 12 25 12 90 l0 90 -60 0 -60 0 0 -45z" />
<path d="M301 850 c-1 -44 2 -50 20 -50 18 0 20 5 16 48 -2 32 -8 48 -19 50 -12 2 -16 -8 -17 -48z" />
<path d="M350 881 c0 -10 3 -33 6 -50 l7 -31 118 0 118 0 4 43 c3 40 4 40 5 -10 2 -41 -1 -53 -13 -53 -10 0 -15 -10 -15 -29 0 -24 3 -28 20 -24 11 3 20 9 20 14 0 5 7 9 15 9 11 0 15 17 18 73 l3 72 2 -82 2 -83 34 0 35 0 3 85 3 85 -192 0 c-182 0 -193 -1 -193 -19z" />
<path d="M750 816 c0 -95 1 -96 92 -96 l47 0 3 90 3 90 -72 0 -73 0 0 -84z" />
<path d="M910 810 c0 -89 0 -90 25 -90 24 0 25 3 25 59 0 86 -9 121 -31 121 -17 0 -19 -9 -19 -90z" />
<path d="M978 855 c-2 -25 -2 -65 0 -90 4 -41 6 -45 31 -45 26 0 26 0 26 81 0 44 3 83 8 86 4 2 7 -34 7 -81 0 -70 3 -86 15 -86 12 0 15 14 15 65 0 83 -18 115 -65 115 -32 0 -33 -2 -37 -45z" />
<path d="M305 748 l0 -43 -102 -3 -103 -3 0 -91 0 -90 53 5 c28 3 117 15 197 26 80 12 163 24 185 26 22 3 70 10 108 17 l67 11 0 53 0 53 -107 3 -106 3 -4 30 c-3 16 -10 33 -16 37 -7 4 -48 8 -92 8 l-80 0 0 -42z" />
<path d="M515 753 c1 -22 7 -29 28 -31 24 -3 27 0 27 27 0 27 -3 31 -28 31 -24 0 -28 -4 -27 -27z" />
<path d="M158 713 c7 -3 16 -2 19 1 4 3 -2 6 -13 5 -11 0 -14 -3 -6 -6z" />
<path d="M720 655 c0 -62 -14 -54 140 -79 152 -24 180 -27 181 -19 1 5 3 17 5 28 1 11 6 30 10 43 4 13 2 22 -5 22 -6 0 -11 -9 -11 -20 0 -11 -4 -20 -10 -20 -11 0 -13 20 -4 44 7 19 40 21 47 4 3 -7 6 2 6 20 l1 32 -180 0 -180 0 0 -55z" />
<path d="M615 570 c-41 -5 -46 -8 -30 -15 11 -5 36 -9 55 -8 46 1 136 1 182 -1 20 0 34 -5 30 -10 -3 -5 2 -6 12 -3 10 4 22 7 27 7 5 0 9 4 9 8 0 10 -149 33 -200 30 -19 0 -57 -4 -85 -8z" />
<path d="M445 549 c-33 -4 -78 -12 -100 -17 l-40 -8 54 -14 c52 -12 99 -9 221 17 23 5 24 6 5 13 -38 14 -80 17 -140 9z" />
<path d="M680 519 l-35 -10 2 -121 c2 -67 5 -123 6 -125 2 -1 18 3 35 9 l32 12 0 123 c0 68 -1 123 -2 122 -2 -1 -19 -5 -38 -10z" />
<path d="M730 465 c0 -34 3 -89 6 -122 6 -56 9 -62 40 -77 l34 -16 1 93 c0 50 1 109 2 130 1 20 0 37 -3 37 -3 0 -22 4 -42 9 l-38 9 0 -63z" />
<path d="M1015 517 c33 -7 62 -12 64 -10 10 7 -9 13 -65 17 l-59 5 60 -12z" />
<path d="M210 514 c-8 -1 -36 -6 -62 -9 -47 -6 -48 -7 -48 -41 0 -19 3 -34 8 -34 4 0 43 9 87 20 44 11 99 22 123 26 23 3 42 10 42 14 0 18 -102 35 -150 24z" />
<path d="M575 514 c-11 -3 -38 -9 -60 -14 -22 -5 -55 -12 -72 -15 -27 -5 -33 -11 -33 -32 0 -17 4 -24 14 -20 8 3 57 16 110 28 77 19 96 26 96 41 0 18 -12 20 -55 12z" />
<path d="M830 481 c0 -25 5 -32 28 -36 15 -3 56 -14 92 -25 36 -10 80 -21 98 -25 30 -6 32 -5 32 23 0 33 -12 38 -154 67 -44 9 -83 18 -88 21 -4 3 -8 -8 -8 -25z" />
<path d="M988 483 c7 -3 16 -2 19 1 4 3 -2 6 -13 5 -11 0 -14 -3 -6 -6z" />
<path d="M1038 473 c6 -2 18 -2 25 0 6 3 1 5 -13 5 -14 0 -19 -2 -12 -5z" />
<path d="M360 458 c-42 -13 -237 -58 -252 -58 -13 0 -18 -43 -6 -55 6 -6 188 41 197 51 6 6 -30 0 -71 -12 -10 -3 -18 -1 -18 5 0 12 13 14 107 15 69 1 76 5 71 38 -3 20 -7 23 -28 16z" />
<path d="M580 458 c-14 -5 -34 -11 -45 -12 -11 -2 -44 -8 -72 -15 l-53 -13 0 -99 c0 -82 -3 -99 -15 -99 -9 0 -19 8 -23 19 -6 16 -11 17 -38 7 -18 -6 -77 -27 -133 -45 -59 -21 -101 -40 -101 -48 0 -7 9 -22 20 -33 18 -18 37 -19 468 -20 370 0 451 2 461 13 12 15 -21 32 -230 122 l-87 36 -47 -15 c-25 -9 -51 -14 -56 -10 -6 3 -30 -4 -54 -15 -25 -12 -49 -21 -54 -21 -4 0 -6 -11 -3 -25 3 -18 11 -25 28 -25 20 0 24 5 24 30 0 17 3 30 8 30 16 0 34 -19 28 -29 -4 -6 -3 -11 3 -11 5 0 11 11 13 24 3 21 6 22 28 13 31 -12 63 -14 71 -4 9 12 39 -4 39 -21 0 -13 2 -13 14 3 8 11 19 16 30 12 9 -4 16 -2 16 2 0 5 9 7 20 4 14 -4 20 -13 19 -32 0 -22 -2 -23 -8 -7 -7 18 -8 18 -14 2 -9 -22 -78 -19 -89 4 -5 12 -7 12 -7 -2 -1 -22 -21 -24 -21 -3 0 8 -7 15 -15 15 -8 0 -15 -5 -15 -11 0 -5 5 -7 10 -4 6 3 10 1 10 -4 0 -17 -28 -13 -40 7 -9 13 -10 13 -7 1 4 -13 -4 -16 -38 -17 -24 -1 -56 -7 -70 -12 -31 -12 -43 -6 -55 24 -7 17 -9 17 -9 4 -1 -23 -18 -23 -24 0 -4 15 -5 15 -6 -1 0 -10 -7 -17 -13 -14 -7 2 -23 0 -36 -4 -15 -6 -21 -5 -17 1 4 7 -2 9 -18 5 -18 -5 -28 -2 -36 12 -10 17 -10 17 -11 1 0 -10 -4 -18 -10 -18 -15 0 -12 36 5 50 8 7 15 8 15 3 0 -5 33 -8 73 -6 92 3 210 48 215 80 3 21 2 21 -40 8 -24 -7 -67 -22 -96 -34 -29 -12 -57 -21 -62 -21 -6 0 -10 35 -10 80 l0 79 48 14 c26 8 73 20 105 27 31 7 57 17 57 22 0 10 -19 9 -50 -4z m-281 -252 c-8 -8 -172 -66 -165 -58 12 12 129 60 150 61 11 1 17 -1 15 -3z m20 -82 c-13 -7 -31 -13 -39 -13 -9 0 -6 5 8 12 12 7 20 16 16 19 -3 4 4 4 16 1 l22 -6 -23 -13z" />
<path d="M575 428 c-16 -5 -52 -15 -79 -21 l-50 -12 -1 -68 c-2 -59 0 -68 14 -63 9 3 49 17 88 32 l72 26 -3 55 c-2 30 -6 56 -8 57 -1 2 -16 -1 -33 -6z" />
<path d="M830 341 l0 -96 53 -21 52 -22 3 86 c2 57 -1 88 -8 90 -7 3 -5 9 5 16 13 10 6 14 -44 28 l-61 16 0 -97z" />
<path d="M270 367 c-58 -16 -120 -31 -138 -34 l-32 -5 0 -75 c0 -68 2 -74 17 -68 10 4 72 26 138 49 l119 41 4 37 c2 20 -1 39 -7 42 -9 6 -77 -10 -193 -44 -35 -10 -37 -13 -41 -58 -4 -44 -4 -43 -3 7 l1 55 120 30 c134 34 128 32 124 44 -2 5 -51 -5 -109 -21z m20 -65 c0 -4 -18 -13 -40 -19 -48 -12 -54 0 -7 15 42 13 47 14 47 4z" />
<path d="M970 389 c11 -8 12 -12 3 -16 -9 -3 -13 -32 -13 -94 l0 -89 52 -24 c29 -13 56 -22 60 -20 5 3 8 54 8 113 l0 107 -53 17 c-62 19 -78 21 -57 6z" />
</g>
</svg>