<?xml version='1.0' encoding='utf-8'?>
<svg xmlns="http://www.w3.org/2000/svg" viewBox="0 0 100 100">
<g transform="translate(50,50) scale(0.614439) translate(-34.75,-72.8) translate(0.000000,95.000000) scale(0.100000,-0.100000)" fill="currentColor" stroke="none">
<path d="M573 793 c-23 -4 -23 -6 -23 -174 0 -93 3 -169 8 -169 4 0 7 -45 7 -99 0 -55 2 -102 5 -104 3 -3 17 -3 33 0 l27 5 0 274 c0 301 5 279 -57 267z" fill="currentColor" stroke="none" /><path d="m27 -429 c0 -8 -19 -13 -24 -6 -3 5 1 9 9 9 8 0 15 -2 15 -3z" fill="currentColor" stroke="none" /><path d="M121 873 c-22 -18 -22 -21 -22 -388 1 -365 1 -370 22 -387 13 -11 38 -18 62 -18 l42 0 -38 25 -37 26 0 149 0 148 28 6 c15 3 46 8 70 11 23 4 40 11 36 16 -3 5 4 9 16 9 11 0 23 7 26 15 9 23 44 19 44 -5 0 -18 7 -20 70 -20 l70 0 0 215 0 215 -184 0 c-160 0 -187 -2 -205 -17z" fill="currentColor" stroke="none" /><path d="M200 695 l0 -155 110 0 c61 0 110 3 110 8 0 4 -47 6 -105 4 l-105 -3 0 140 c0 158 -3 153 80 132 48 -12 114 -21 107 -15 -3 3 -38 12 -79 20 -40 8 -83 17 -95 19 l-23 5 0 -155z" fill="currentColor" stroke="none" /><path d="M220 693 c0 -91 3 -123 13 -124 14 -1 77 -1 130 0 l37 1 0 110 c0 61 -3 110 -7 111 -5 0 -45 6 -90 13 l-83 12 0 -123z" fill="currentColor" stroke="none" /><path d="M705 816 l-60 -11 -3 -274 -2 -274 37 8 c21 4 53 7 71 7 l32 -1 0 280 c0 153 -3 279 -7 278 -5 -1 -35 -6 -68 -13z" fill="currentColor" stroke="none" /><path d="M790 545 l0 -282 28 -6 c15 -3 35 -9 45 -12 16 -7 17 11 17 279 l0 286 -27 5 c-70 15 -63 43 -63 -270z" fill="currentColor" stroke="none" /><path d="M900 520 c0 -254 2 -289 16 -294 9 -3 20 -4 25 0 5 3 9 129 9 288 l0 284 -25 4 -25 5 0 -287z" fill="currentColor" stroke="none" /><path d="M522 595 c0 -16 2 -22 5 -12 2 9 2 23 0 30 -3 6 -5 -1 -5 -18z" fill="currentColor" stroke="none" /><path d="M381 439 c-24 -5 -46 -11 -49 -14 -7 -6 84 6 118 16 l25 7 -25 0 c-14 0 -45 -4 -69 -9z" fill="currentColor" stroke="none" /><path d="M238 423 c12 -2 32 -2 45 0 12 2 2 4 -23 4 -25 0 -35 -2 -22 -4z" fill="currentColor" stroke="none" /><path d="M405 404 c-44 -7 -94 -13 -111 -13 l-31 -1 -1 -67 c0 -44 2 -58 6 -38 5 20 15 31 32 36 25 7 25 7 -3 8 -52 2 -18 18 50 25 136 13 203 29 203 48 0 21 -25 22 -145 2z" fill="currentColor" stroke="none" /><path d="M170 271 l0 -139 36 -21 c19 -12 37 -21 40 -21 2 0 4 69 4 154 l0 154 -31 6 c-17 3 -35 6 -40 6 -5 0 -9 -63 -9 -139z" fill="currentColor" stroke="none" /><path d="M490 341 c-18 -5 -26 -15 -28 -35 -3 -26 -2 -27 35 -24 35 3 38 6 41 36 3 34 -1 36 -48 23z" fill="currentColor" stroke="none" /><path d="M307 313 c-27 -4 -29 -7 -22 -40 5 -26 2 -40 -11 -54 -20 -23 -24 -22 109 -20 86 1 87 1 87 -24 0 -20 5 -25 25 -25 22 0 25 4 25 35 0 19 5 35 10 35 15 0 12 26 -4 39 -20 17 -66 3 -66 -20 0 -10 -4 -19 -10 -19 -5 0 -10 20 -10 44 0 41 -2 44 -31 50 -33 6 -54 6 -102 -1z" fill="currentColor" stroke="none" /></g>
</svg>