<?xml version='1.0' encoding='utf-8'?>
<svg xmlns="http://www.w3.org/2000/svg" viewBox="0 0 114.000000 96.000000">
<defs><clipPath id="compact-icon-artwork"><rect x="0.0" y="0.0" width="114.0" height="72.960000" /></clipPath></defs><g transform="translate(0.000000,96.000000) scale(0.100000,-0.100000)" fill="currentColor" stroke="none" clip-path="url(#compact-icon-artwork)">
<path d="M142 877 c-20 -21 -20 -34 -18 -372 1 -192 6 -358 10 -368 5 -10 17 -22 27 -27 26 -14 884 -13 910 1 12 6 18 17 15 25 -3 8 -2 13 3 10 18 -11 21 45 21 368 l0 328 -22 -5 c-13 -3 -70 -15 -128 -27 -58 -13 -122 -27 -142 -32 l-38 -9 0 -143 c0 -153 1 -156 52 -156 29 0 71 -28 85 -56 15 -31 0 -31 -17 0 -15 30 -23 33 -105 46 -49 8 -97 6 -202 -6 -76 -9 -145 -20 -155 -25 -18 -10 -40 -46 -52 -86 -6 -20 0 -26 53 -52 33 -15 74 -39 92 -51 l32 -23 28 34 c16 19 29 40 29 46 0 7 10 15 23 18 12 3 71 16 130 30 136 31 137 31 137 -3 0 -26 -4 -29 -72 -44 -141 -32 -233 -60 -248 -77 -8 -9 -14 -26 -12 -38 3 -18 10 -23 33 -23 17 0 28 4 25 9 -4 5 -3 17 0 26 9 23 57 16 66 -10 6 -20 6 -19 7 1 1 18 8 21 54 22 28 1 61 2 72 4 15 2 20 -3 20 -22 1 -23 -3 -26 -38 -27 -32 -2 -38 1 -33 15 6 16 5 16 -7 0 -10 -12 -26 -16 -55 -15 -26 2 -43 -2 -46 -10 -11 -27 -115 -3 -117 26 0 12 -2 11 -8 -4 l-8 -20 -5 20 c-4 14 -6 15 -7 4 -1 -22 -110 -24 -118 -3 -7 19 -23 18 -23 -1 0 -8 -4 -15 -10 -15 -5 0 -10 11 -10 24 0 22 4 25 40 24 23 0 40 -5 40 -12 0 -7 4 -6 9 2 4 8 14 13 22 12 8 -1 25 -2 39 -1 24 2 24 2 5 13 -11 6 -22 14 -25 18 -3 4 -45 27 -95 51 -136 65 -135 63 -135 190 0 85 3 108 15 112 17 7 246 6 293 0 27 -5 32 -9 32 -32 0 -39 20 -59 65 -64 22 -3 50 -8 63 -12 l22 -7 0 146 c0 143 0 146 -22 151 -13 2 -61 13 -108 24 -183 43 -271 61 -294 61 -13 0 -37 7 -52 15 -29 15 -29 16 26 14 30 -2 57 -6 60 -10 5 -7 140 -40 240 -58 25 -5 71 -16 102 -25 53 -14 62 -14 135 3 159 38 221 51 237 51 21 0 20 13 -3 34 -17 15 -59 17 -469 15 -448 -1 -450 -1 -470 -22z" />
<path d="M283 484 c7 -100 17 -140 17 -65 0 26 5 44 14 47 10 4 11 15 6 45 l-7 39 71 2 c39 1 87 3 106 4 19 1 52 2 73 3 20 0 37 6 37 11 0 6 -60 10 -161 10 l-162 0 6 -96z" />
<path d="M480 544 c0 -1 5 -15 11 -32 10 -28 13 -30 47 -25 20 3 43 12 50 21 9 12 12 13 12 2 0 -7 2 -11 5 -9 2 3 2 14 -1 26 -5 18 -13 21 -65 19 -32 0 -59 -1 -59 -2z" />
<path d="M337 500 c3 -19 7 -37 9 -39 2 -2 35 2 73 9 l70 13 -14 26 c-12 24 -18 26 -78 26 l-65 0 5 -35z" />
<path d="M636 481 c-4 -5 3 -7 14 -4 23 6 26 13 6 13 -8 0 -17 -4 -20 -9z" />
<path d="M525 474 c-91 -11 -135 -26 -155 -53 -31 -45 -41 -78 -25 -85 9 -3 24 12 42 47 30 56 46 65 163 85 53 9 37 13 -25 6z" />
<path d="M310 431 c0 -11 6 -22 13 -25 10 -5 10 -7 0 -12 -7 -3 -13 -15 -13 -27 1 -16 7 -11 25 23 30 57 30 60 0 60 -18 0 -25 -5 -25 -19z" />
</g>
</svg>