<?xml version='1.0' encoding='utf-8'?>
<svg xmlns="http://www.w3.org/2000/svg" viewBox="0 0 114.000000 95.000000">
<defs><clipPath id="compact-icon-artwork"><rect x="0.0" y="0.0" width="114.0" height="72.200000" /></clipPath></defs><g transform="translate(0.000000,95.000000) scale(0.100000,-0.100000)" fill="currentColor" stroke="none" clip-path="url(#compact-icon-artwork)">
<path d="M121 873 c-22 -18 -22 -21 -22 -388 1 -365 1 -370 22 -387 13 -11 38 -18 62 -18 l42 0 -38 25 -37 26 0 149 0 148 28 6 c15 3 46 8 70 11 23 4 40 11 36 16 -3 5 4 9 16 9 11 0 23 7 26 15 9 23 44 19 44 -5 0 -18 7 -20 70 -20 l70 0 0 215 0 215 -184 0 c-160 0 -187 -2 -205 -17z m179 -27 c52 -9 105 -19 118 -21 22 -5 22 -8 22 -149 l0 -143 -97 -6 c-54 -4 -113 -7 -130 -7 l-33 0 0 168 c0 158 3 187 19 177 4 -2 49 -11 101 -19z" />
<path d="M200 695 l0 -155 110 0 c61 0 110 3 110 8 0 4 -47 6 -105 4 l-105 -3 0 140 c0 158 -3 153 80 132 48 -12 114 -21 107 -15 -3 3 -38 12 -79 20 -40 8 -83 17 -95 19 l-23 5 0 -155z" />
<path d="M220 693 c0 -91 3 -123 13 -124 14 -1 77 -1 130 0 l37 1 0 110 c0 61 -3 110 -7 111 -5 0 -45 6 -90 13 l-83 12 0 -123z" />
<path d="M520 846 l0 -45 33 10 c17 5 78 19 134 30 96 18 107 19 170 4 37 -9 83 -20 101 -26 l32 -11 0 -313 0 -313 25 -6 c24 -6 36 -36 14 -36 -5 0 -8 4 -5 9 7 11 -56 24 -78 15 -9 -3 -13 -10 -10 -15 9 -15 -30 3 -43 19 -11 14 -13 13 -13 -6 0 -15 -9 -26 -27 -33 -26 -11 -27 -12 -8 -20 25 -11 -39 -3 -107 13 -37 9 -50 18 -57 37 -6 15 -10 19 -10 10 -1 -14 -14 -17 -73 -18 -40 -1 -75 -6 -79 -12 -11 -18 -53 -5 -67 21 l-13 25 3 -24 c3 -21 -6 -27 -67 -52 l-70 -28 363 0 363 -1 25 25 24 24 0 350 c0 367 -3 394 -44 405 -11 3 -132 6 -268 6 l-248 0 0 -44z" />
<path d="M705 816 l-60 -11 -3 -274 -2 -274 37 8 c21 4 53 7 71 7 l32 -1 0 280 c0 153 -3 279 -7 278 -5 -1 -35 -6 -68 -13z" />
<path d="M790 545 l0 -282 28 -6 c15 -3 35 -9 45 -12 16 -7 17 11 17 279 l0 286 -27 5 c-70 15 -63 43 -63 -270z" />
<path d="M900 520 c0 -254 2 -289 16 -294 9 -3 20 -4 25 0 5 3 9 129 9 288 l0 284 -25 4 -25 5 0 -287z" />
<path d="M573 793 c-23 -4 -23 -6 -23 -174 0 -93 3 -169 8 -169 4 0 7 -45 7 -99 0 -55 2 -102 5 -104 3 -3 17 -3 33 0 l27 5 0 274 c0 301 5 279 -57 267z m27 -429 c0 -8 -19 -13 -24 -6 -3 5 1 9 9 9 8 0 15 -2 15 -3z" />
<path d="M522 595 c0 -16 2 -22 5 -12 2 9 2 23 0 30 -3 6 -5 -1 -5 -18z" />
<path d="M381 439 c-24 -5 -46 -11 -49 -14 -7 -6 84 6 118 16 l25 7 -25 0 c-14 0 -45 -4 -69 -9z" />
<path d="M238 423 c12 -2 32 -2 45 0 12 2 2 4 -23 4 -25 0 -35 -2 -22 -4z" />
<path d="M405 404 c-44 -7 -94 -13 -111 -13 l-31 -1 -1 -67 c0 -44 2 -58 6 -38 5 20 15 31 32 36 25 7 25 7 -3 8 -52 2 -18 18 50 25 136 13 203 29 203 48 0 21 -25 22 -145 2z" />
<path d="M170 271 l0 -139 36 -21 c19 -12 37 -21 40 -21 2 0 4 69 4 154 l0 154 -31 6 c-17 3 -35 6 -40 6 -5 0 -9 -63 -9 -139z" />
</g>
</svg>