<?xml version='1.0' encoding='utf-8'?>
<svg xmlns="http://www.w3.org/2000/svg" viewBox="0 0 114.000000 95.000000">
<defs><clipPath id="compact-icon-artwork"><rect x="0.0" y="0.0" width="114.0" height="72.200000" /></clipPath></defs><g transform="translate(0.000000,95.000000) scale(0.100000,-0.100000)" fill="currentColor" stroke="none" clip-path="url(#compact-icon-artwork)">
<path d="M136 869 l-26 -20 0 -363 c0 -393 0 -393 55 -401 26 -4 34 1 63 43 l34 47 -42 -43 c-56 -58 -62 -47 -8 16 39 46 70 70 52 40 -4 -7 -3 -8 4 -4 6 4 9 13 5 21 -3 8 0 15 6 15 8 0 11 90 10 313 -1 171 1 312 4 312 3 0 28 -19 56 -43 l51 -43 0 -196 0 -196 25 23 c24 23 25 27 25 167 0 79 4 143 9 143 22 0 31 -34 34 -136 l3 -109 2 117 2 116 -76 101 -76 101 -93 0 c-78 0 -96 -3 -119 -21z" />
<path d="M376 878 c5 -7 37 -50 73 -95 l64 -83 88 0 87 0 71 90 c39 49 71 92 71 95 0 3 -104 5 -231 5 -181 0 -229 -3 -223 -12z" />
<path d="M777 792 l-77 -101 2 -118 2 -118 3 112 c3 100 6 114 23 123 19 10 20 7 21 -67 1 -43 1 -106 0 -141 -1 -55 2 -68 24 -94 l25 -30 0 200 0 200 52 45 c29 25 54 44 55 43 2 -1 3 -140 4 -309 l1 -306 65 -71 c36 -38 60 -70 55 -70 -6 0 -35 28 -66 62 -67 74 -75 72 -11 -3 25 -29 45 -56 45 -61 0 -15 47 -8 69 10 22 17 22 21 23 385 2 336 0 369 -15 385 -14 13 -40 18 -120 20 l-103 4 -77 -100z" />
<path d="M320 518 l0 -261 30 29 c29 28 29 32 30 126 0 68 -4 98 -12 101 -10 4 -10 8 -1 14 7 5 11 45 12 107 1 89 -1 102 -21 123 -12 13 -25 23 -30 23 -4 0 -8 -118 -8 -262z" />
<path d="M846 769 c2 -4 0 -10 -6 -14 -6 -4 -10 -86 -10 -222 0 -215 0 -215 25 -245 l25 -30 0 121 c0 101 -2 121 -15 121 -8 0 -15 5 -15 10 0 6 6 10 14 10 11 0 14 26 15 129 2 124 1 130 -18 128 -11 0 -18 -4 -15 -8z" />
<path d="M520 570 c0 -67 4 -110 10 -110 6 0 10 40 10 100 l0 101 58 -3 57 -3 3 -92 c1 -51 7 -93 12 -93 6 0 11 17 11 38 1 20 2 44 3 52 0 8 -3 18 -8 21 -4 4 -4 15 2 25 6 11 8 32 5 47 -5 27 -6 27 -84 27 l-79 0 0 -110z" />
<path d="M564 548 l5 -83 30 -3 c30 -3 31 -2 31 37 0 22 -5 42 -12 44 -10 4 -10 6 0 6 7 1 12 16 12 41 0 39 -1 40 -35 40 l-36 0 5 -82z" />
<path d="M721 574 c0 -11 3 -14 6 -6 3 7 2 16 -1 19 -3 4 -6 -2 -5 -13z" />
<path d="M498 441 c-1 -5 -44 -56 -93 -113 -50 -57 -103 -121 -118 -143 -14 -22 -38 -55 -53 -72 l-27 -33 393 0 392 0 -40 47 c-21 27 -46 62 -55 78 -8 17 -59 78 -112 138 l-98 107 -92 0 c-52 0 -95 -4 -97 -9z m252 -236 c0 -16 29 -10 42 9 4 6 8 -6 8 -26 0 -36 -1 -37 -35 -36 -24 1 -35 6 -36 17 -1 9 -5 5 -9 -9 l-8 -25 -7 23 c-8 25 -25 30 -25 6 0 -8 -4 -13 -9 -9 -5 3 -12 1 -16 -5 -4 -6 -12 -7 -22 -2 -18 10 -63 4 -63 -9 0 -14 -40 -11 -54 4 -7 7 -15 19 -19 27 -4 12 -6 11 -6 -2 -1 -10 -5 -18 -11 -18 -5 0 -10 8 -11 18 0 14 -2 15 -7 2 -11 -24 -108 -25 -121 -2 -10 16 -10 16 -11 0 0 -10 -4 -18 -10 -18 -5 0 -10 11 -10 24 0 22 3 23 65 23 41 0 65 -4 65 -11 0 -6 4 -6 9 2 5 8 21 12 37 10 21 -2 30 -9 32 -25 5 -31 52 -33 52 -3 0 21 26 38 38 25 4 -4 1 -10 -5 -12 -7 -3 -13 -10 -13 -16 1 -7 10 -1 21 12 17 21 23 23 40 13 11 -7 19 -8 19 -2 0 5 14 10 30 10 17 0 30 5 30 10 0 6 5 10 10 10 6 0 10 -7 10 -15z m101 -17 c0 -10 2 -10 6 0 2 6 12 12 20 12 10 0 13 -6 9 -16 -3 -9 -6 -19 -6 -23 0 -4 -16 -8 -35 -9 -28 -1 -35 2 -35 17 0 10 3 21 7 24 11 12 33 8 34 -5z" />
</g>
</svg>