<?xml version='1.0' encoding='utf-8'?>
<svg xmlns="http://www.w3.org/2000/svg" viewBox="0 0 114.000000 95.000000">
<defs><clipPath id="compact-icon-artwork"><rect x="0.0" y="0.0" width="114.0" height="72.200000" /></clipPath></defs><g transform="translate(0.000000,95.000000) scale(0.100000,-0.100000)" fill="currentColor" stroke="none" clip-path="url(#compact-icon-artwork)">
<path d="M101 864 c-20 -26 -21 -38 -21 -383 0 -347 1 -358 21 -379 l20 -22 450 0 451 1 24 24 c23 23 25 31 22 107 -2 54 -7 83 -15 86 -7 2 -13 -3 -13 -11 0 -11 -8 -15 -27 -13 -15 2 -55 -3 -88 -11 -33 -8 -96 -21 -140 -29 -115 -22 -115 -21 -115 -55 0 -32 -24 -40 -49 -16 -10 8 -12 8 -7 0 4 -8 -5 -12 -32 -11 -21 0 -48 -6 -60 -13 -17 -11 -25 -11 -46 0 -14 8 -27 21 -29 30 -4 14 -5 14 -6 0 -1 -14 -13 -17 -70 -17 -72 0 -95 14 -65 38 11 10 17 10 28 1 8 -7 17 -8 20 -3 3 5 30 10 61 11 52 1 55 0 55 -24 0 -20 5 -25 25 -25 21 0 25 5 25 28 0 33 -69 105 -141 146 l-46 26 -8 131 c-4 72 -3 135 2 139 4 4 97 11 205 15 l197 7 7 -51 c4 -28 11 -51 16 -51 5 0 7 -4 4 -8 -3 -5 53 -24 125 -42 119 -30 132 -36 160 -69 l29 -36 0 228 0 228 -25 24 -24 25 -450 0 -450 0 -20 -26z m185 -680 c-3 -9 -6 -20 -6 -25 0 -5 -4 -9 -10 -9 -5 0 -10 11 -10 25 0 16 6 25 16 25 11 0 14 -5 10 -16z m460 3 c4 -4 12 -3 18 2 6 5 36 8 66 8 49 -2 55 -5 58 -24 3 -19 -1 -23 -22 -23 -18 0 -26 6 -27 18 -1 14 -2 15 -6 1 -6 -22 -109 -21 -123 1 -8 13 -10 12 -10 -2 0 -10 -4 -18 -10 -18 -5 0 -10 11 -10 24 0 20 5 23 29 22 16 -1 33 -5 37 -9z" />
<path d="M341 543 c1 -99 12 -175 21 -150 4 9 3 28 -2 42 -11 28 -4 55 15 55 9 0 10 11 5 42 -5 24 -6 46 -4 50 3 5 67 8 143 8 143 0 201 6 201 21 0 5 -85 9 -190 9 l-190 0 1 -77z" />
<path d="M397 535 c8 -56 15 -60 74 -47 28 7 61 12 73 12 24 0 27 14 12 56 -6 20 -13 22 -86 20 l-79 -1 6 -40z" />
<path d="M578 550 c2 -17 9 -33 14 -36 13 -8 143 6 132 14 -5 4 -9 16 -9 27 0 18 -8 20 -71 23 l-71 3 5 -31z" />
<path d="M729 505 c-3 -2 -34 -5 -69 -6 -36 0 -92 -8 -125 -16 -65 -16 -85 -21 -98 -22 -5 -1 -5 -5 -2 -11 3 -5 0 -7 -8 -4 -16 6 -57 -52 -57 -79 0 -33 19 -25 45 18 14 25 36 52 48 59 12 8 67 20 122 26 55 7 109 13 120 15 11 2 40 4 65 5 38 2 41 3 20 10 -30 10 -55 12 -61 5z" />
<path d="M370 461 c0 -12 3 -21 8 -21 12 1 47 30 35 30 -6 0 -18 3 -27 6 -12 4 -16 0 -16 -15z" />
<path d="M675 469 c-190 -25 -204 -29 -234 -73 -33 -49 -44 -76 -30 -76 5 0 41 -30 80 -66 46 -43 75 -64 85 -60 9 3 18 6 20 6 2 0 4 6 4 13 0 23 45 64 80 71 19 4 106 20 193 37 l158 30 19 -23 19 -23 1 26 c0 14 -14 44 -31 67 -23 32 -42 45 -82 58 -63 20 -188 26 -282 13z" />
</g>
</svg>