<?xml version='1.0' encoding='utf-8'?>
<svg xmlns="http://www.w3.org/2000/svg" viewBox="0 0 114.000000 96.000000">
<defs><clipPath id="compact-icon-artwork"><rect x="0.0" y="0.0" width="114.0" height="72.960000" /></clipPath></defs><g transform="translate(0.000000,96.000000) scale(0.100000,-0.100000)" fill="currentColor" stroke="none" clip-path="url(#compact-icon-artwork)">
<path d="M140 897 c-19 -20 -20 -35 -20 -254 1 -182 4 -233 14 -233 7 0 37 8 67 19 30 10 71 21 91 25 37 7 65 35 50 51 -4 5 -1 5 6 1 9 -6 12 31 12 168 l0 176 -47 30 c-27 16 -41 30 -32 30 8 0 20 -5 26 -11 7 -7 33 -13 58 -14 37 -2 43 0 35 11 -9 10 -7 13 9 11 12 -1 21 -4 21 -8 0 -4 21 -22 48 -39 26 -18 68 -48 95 -67 82 -60 52 -12 -37 59 l-84 66 -146 1 c-137 0 -148 -2 -166 -22z" />
<path d="M512 892 c64 -55 116 -92 128 -92 6 0 9 4 6 8 -2 4 -1 14 5 22 7 12 9 10 9 -7 0 -13 6 -23 13 -23 6 0 54 -2 105 -3 89 -2 92 -1 92 20 0 12 5 25 10 28 6 4 10 -5 10 -19 0 -28 26 -36 48 -14 9 9 12 9 12 -2 0 -9 6 -5 16 9 11 16 19 19 24 11 5 -7 18 5 37 34 17 25 34 42 38 38 5 -4 5 -1 1 6 -10 18 -13 16 -42 -28 -33 -49 -45 -45 -14 4 12 20 17 36 12 36 -5 0 -19 -21 -32 -46 -22 -42 -40 -64 -40 -49 0 4 12 26 26 51 l26 44 -261 0 -262 0 33 -28z" />
<path d="M388 863 c6 -2 18 -2 25 0 6 3 1 5 -13 5 -14 0 -19 -2 -12 -5z" />
<path d="M1046 857 c-11 -8 -17 -19 -15 -24 2 -6 12 0 22 13 20 27 19 30 -7 11z" />
<path d="M447 845 c-7 -18 42 -55 74 -55 20 0 21 1 6 18 -9 9 -29 25 -45 34 -26 15 -31 16 -35 3z" />
<path d="M1097 853 c-11 -10 -8 -53 3 -53 6 0 10 14 10 30 0 31 -2 35 -13 23z" />
<path d="M370 679 c0 -163 1 -169 20 -169 20 0 20 5 18 167 -3 149 -5 166 -20 169 -17 2 -18 -12 -18 -167z" />
<path d="M441 660 c1 -145 3 -156 31 -151 4 0 3 -11 -2 -25 -6 -14 -10 -50 -10 -80 0 -52 1 -54 20 -42 18 11 21 24 21 88 1 41 3 128 5 193 4 117 4 118 -22 142 -15 14 -31 25 -36 25 -5 0 -8 -67 -7 -150z" />
<path d="M1044 550 c0 -146 2 -205 3 -132 2 72 2 192 0 265 -1 72 -3 13 -3 -133z" />
<path d="M1022 775 c0 -16 2 -22 5 -12 2 9 2 23 0 30 -3 6 -5 -1 -5 -18z" />
<path d="M1098 784 c-5 -4 -8 -21 -8 -38 0 -21 3 -27 11 -19 6 6 9 23 7 38 -2 15 -6 23 -10 19z" />
<path d="M560 771 c0 -10 30 -24 37 -17 3 2 -5 9 -16 16 -12 6 -21 7 -21 1z" />
<path d="M630 770 c0 -5 5 -10 10 -10 6 0 10 5 10 10 0 6 -4 10 -10 10 -5 0 -10 -4 -10 -10z" />
<path d="M660 770 c0 -6 41 -10 104 -10 59 0 108 4 111 10 4 6 -33 10 -104 10 -67 0 -111 -4 -111 -10z" />
<path d="M890 770 c0 -5 7 -10 15 -10 8 0 15 5 15 10 0 6 -7 10 -15 10 -8 0 -15 -4 -15 -10z" />
<path d="M527 763 c-11 -11 -8 -223 3 -223 6 0 10 45 10 115 0 63 -1 115 -3 115 -2 0 -7 -3 -10 -7z" />
<path d="M560 646 c0 -64 4 -106 10 -106 6 0 10 40 10 99 0 56 -4 103 -10 106 -6 4 -10 -32 -10 -99z" />
<path d="M604 645 c0 -55 1 -76 3 -47 2 29 2 74 0 100 -2 26 -3 2 -3 -53z" />
<path d="M660 650 c0 -65 3 -90 13 -91 6 0 54 -1 105 -2 l92 -3 0 93 0 93 -105 0 -105 0 0 -90z" />
<path d="M890 633 c0 -65 4 -103 9 -94 7 11 9 11 14 0 3 -8 6 34 6 94 1 89 -2 107 -14 107 -12 0 -15 -19 -15 -107z" />
<path d="M631 633 c2 -86 3 -92 9 -48 12 72 12 133 0 140 -6 4 -10 -29 -9 -92z" />
<path d="M991 714 c0 -11 3 -14 6 -6 3 7 2 16 -1 19 -3 4 -6 -2 -5 -13z" />
<path d="M1090 680 c0 -16 5 -30 10 -30 6 0 10 14 10 30 0 17 -4 30 -10 30 -5 0 -10 -13 -10 -30z" />
<path d="M992 670 c0 -14 2 -19 5 -12 2 6 2 18 0 25 -3 6 -5 1 -5 -13z" />
<path d="M1023 645 c0 -27 2 -38 4 -22 2 15 2 37 0 50 -2 12 -4 0 -4 -28z" />
<path d="M1090 610 c0 -16 5 -30 10 -30 6 0 10 14 10 30 0 17 -4 30 -10 30 -5 0 -10 -13 -10 -30z" />
<path d="M992 590 c0 -14 2 -19 5 -12 2 6 2 18 0 25 -3 6 -5 1 -5 -13z" />
<path d="M1090 540 c0 -16 5 -30 10 -30 6 0 10 14 10 30 0 17 -4 30 -10 30 -5 0 -10 -13 -10 -30z" />
<path d="M691 524 c0 -11 3 -14 6 -6 3 7 2 16 -1 19 -3 4 -6 -2 -5 -13z" />
<path d="M792 510 c0 -19 2 -27 5 -17 2 9 2 25 0 35 -3 9 -5 1 -5 -18z" />
<path d="M831 524 c0 -11 3 -14 6 -6 3 7 2 16 -1 19 -3 4 -6 -2 -5 -13z" />
<path d="M613 475 c0 -27 2 -38 4 -22 2 15 2 37 0 50 -2 12 -4 0 -4 -28z" />
<path d="M383 493 c9 -2 23 -2 30 0 6 3 -1 5 -18 5 -16 0 -22 -2 -12 -5z" />
<path d="M510 440 c0 -53 2 -60 20 -60 18 0 20 7 20 60 0 53 -2 60 -20 60 -18 0 -20 -7 -20 -60z" />
<path d="M1090 466 c0 -36 17 -41 18 -6 0 17 -4 30 -9 30 -5 0 -9 -11 -9 -24z" />
<path d="M438 463 c-2 -5 0 -46 3 -93 l5 -85 2 93 c2 83 -1 106 -10 85z" />
<path d="M394 435 c-3 -14 -4 -55 -2 -90 2 -39 0 -66 -7 -69 -5 -2 0 -5 13 -5 21 -1 22 2 22 94 0 92 -12 125 -26 70z" />
<path d="M693 453 c15 -2 37 -2 50 0 12 2 0 4 -28 4 -27 0 -38 -2 -22 -4z" />
<path d="M944 428 c3 -25 56 -109 56 -89 0 7 -12 28 -26 47 -15 19 -24 37 -22 40 3 3 14 -6 25 -19 l19 -25 1 34 c1 19 -4 34 -9 34 -6 0 -8 -7 -4 -15 7 -19 -3 -19 -25 1 -16 15 -17 14 -15 -8z" />
<path d="M207 409 c7 -7 15 -10 18 -7 3 3 -2 9 -12 12 -14 6 -15 5 -6 -5z" />
<path d="M248 413 c7 -3 16 -2 19 1 4 3 -2 6 -13 5 -11 0 -14 -3 -6 -6z" />
<path d="M1090 396 c0 -14 5 -28 10 -31 6 -4 10 7 10 24 0 17 -4 31 -10 31 -5 0 -10 -11 -10 -24z" />
<path d="M138 383 c-16 -4 -18 -17 -16 -116 l2 -112 3 106 c3 98 5 107 26 117 23 11 16 13 -15 5z" />
<path d="M184 280 c0 -58 1 -81 3 -52 2 28 2 76 0 105 -2 28 -3 5 -3 -53z" />
<path d="M154 362 c-18 -11 -19 -215 -2 -210 9 3 13 34 15 111 1 59 1 107 0 107 -1 0 -7 -4 -13 -8z" />
</g>
</svg>