<?xml version='1.0' encoding='utf-8'?>
<svg xmlns="http://www.w3.org/2000/svg" viewBox="0 0 100 100">
<g transform="translate(50,50) scale(0.643087) translate(-24,-71.4) translate(0.000000,96.000000) scale(0.100000,-0.100000)" fill="currentColor" stroke="none">
<path d="M100 868 c-19 -31 -20 -52 -20 -376 l0 -343 25 -25 c32 -32 43 -28 63 21 13 33 16 101 17 398 l2 357 -34 0 c-27 0 -37 -6 -53 -32z" fill="currentColor" stroke="none" /><path d="M202 729 l3 -172 115 7 c63 3 184 9 268 13 l152 6 0 159 0 158 -270 0 -270 0 2 -171z" fill="currentColor" stroke="none" /><path d="M750 740 c0 -125 3 -160 13 -160 7 0 25 -6 41 -12 l27 -13 -3 -136 -3 -135 103 -80 c56 -43 107 -80 112 -82 24 -9 30 64 30 384 0 281 -2 340 -15 364 l-16 30 -144 0 -145 0 0 -160z" fill="currentColor" stroke="none" /><path d="M500 560 c-91 -4 -192 -8 -224 -9 -40 -1 -57 -4 -50 -11 10 -10 521 13 532 25 6 5 1 5 -258 -5z" fill="currentColor" stroke="none" /><path d="M693 541 c-37 -4 -50 -10 -45 -18 11 -17 172 -5 172 13 0 15 -29 16 -127 5z" fill="currentColor" stroke="none" /><path d="M410 526 c0 -2 7 -6 15 -10 8 -3 15 -1 15 4 0 6 -7 10 -15 10 -8 0 -15 -2 -15 -4z" fill="currentColor" stroke="none" /><path d="M450 508 c0 -15 3 -19 10 -12 6 6 33 9 61 6 43 -4 49 -2 43 12 -5 12 -19 16 -60 16 -49 0 -54 -2 -54 -22z" fill="currentColor" stroke="none" /><path d="M223 450 c0 -41 2 -58 4 -37 2 20 2 54 0 75 -2 20 -4 3 -4 -38z" fill="currentColor" stroke="none" /><path d="M254 506 c-17 -13 -17 -15 -3 -21 9 -3 38 -5 65 -3 37 2 50 7 52 21 3 14 -4 17 -45 17 -27 0 -58 -6 -69 -14z" fill="currentColor" stroke="none" /><path d="M390 500 c0 -5 5 -10 11 -10 5 0 7 5 4 10 -3 6 -8 10 -11 10 -2 0 -4 -4 -4 -10z" fill="currentColor" stroke="none" /><path d="M710 501 l-55 -6 -3 -107 -3 -106 43 5 c24 3 61 9 83 12 l40 7 3 102 3 102 -28 -2 c-15 -1 -53 -4 -83 -7z" fill="currentColor" stroke="none" /><path d="M483 483 l-33 -4 0 -113 0 -113 63 9 c34 4 74 11 90 14 l27 6 0 104 0 104 -57 -2 c-32 0 -73 -3 -90 -5z" fill="currentColor" stroke="none" /><path d="M365 472 c-22 -1 -59 -5 -82 -8 l-43 -5 1 -120 1 -120 27 5 c32 7 153 26 164 26 4 0 7 51 7 114 0 103 -2 115 -17 113 -10 -1 -36 -3 -58 -5z" fill="currentColor" stroke="none" /><path d="M203 340 c0 -30 2 -43 4 -27 2 15 2 39 0 55 -2 15 -4 2 -4 -28z" fill="currentColor" stroke="none" /><path d="M222 345 c0 -16 2 -22 5 -12 2 9 2 23 0 30 -3 6 -5 -1 -5 -18z" fill="currentColor" stroke="none" /></g>
</svg>