<?xml version='1.0' encoding='utf-8'?>
<svg xmlns="http://www.w3.org/2000/svg" viewBox="0 0 100 100">
<g transform="translate(50,50) scale(0.650407) translate(-31.9,-101.5) translate(0.000000,95.000000) scale(0.100000,-0.100000)" fill="currentColor" stroke="none">
<path d="m185 -680 c-3 -9 -6 -20 -6 -25 0 -5 -4 -9 -10 -9 -5 0 -10 11 -10 25 0 16 6 25 16 25 11 0 14 -5 10 -16z" fill="currentColor" stroke="none" /><path d="M341 543 c1 -99 12 -175 21 -150 4 9 3 28 -2 42 -11 28 -4 55 15 55 9 0 10 11 5 42 -5 24 -6 46 -4 50 3 5 67 8 143 8 143 0 201 6 201 21 0 5 -85 9 -190 9 l-190 0 1 -77z" fill="currentColor" stroke="none" /><path d="M397 535 c8 -56 15 -60 74 -47 28 7 61 12 73 12 24 0 27 14 12 56 -6 20 -13 22 -86 20 l-79 -1 6 -40z" fill="currentColor" stroke="none" /><path d="M578 550 c2 -17 9 -33 14 -36 13 -8 143 6 132 14 -5 4 -9 16 -9 27 0 18 -8 20 -71 23 l-71 3 5 -31z" fill="currentColor" stroke="none" /><path d="M729 505 c-3 -2 -34 -5 -69 -6 -36 0 -92 -8 -125 -16 -65 -16 -85 -21 -98 -22 -5 -1 -5 -5 -2 -11 3 -5 0 -7 -8 -4 -16 6 -57 -52 -57 -79 0 -33 19 -25 45 18 14 25 36 52 48 59 12 8 67 20 122 26 55 7 109 13 120 15 11 2 40 4 65 5 38 2 41 3 20 10 -30 10 -55 12 -61 5z" fill="currentColor" stroke="none" /><path d="M370 461 c0 -12 3 -21 8 -21 12 1 47 30 35 30 -6 0 -18 3 -27 6 -12 4 -16 0 -16 -15z" fill="currentColor" stroke="none" /><path d="M675 469 c-190 -25 -204 -29 -234 -73 -33 -49 -44 -76 -30 -76 5 0 41 -30 80 -66 46 -43 75 -64 85 -60 9 3 18 6 20 6 2 0 4 6 4 13 0 23 45 64 80 71 19 4 106 20 193 37 l158 30 19 -23 19 -23 1 26 c0 14 -14 44 -31 67 -23 32 -42 45 -82 58 -63 20 -188 26 -282 13z" fill="currentColor" stroke="none" /><path d="M920 315 c-36 -7 -110 -20 -165 -30 -83 -15 -104 -22 -122 -44 -27 -30 -30 -56 -7 -47 9 3 18 6 20 6 3 0 3 4 0 8 -3 5 20 14 52 21 31 7 93 21 137 31 44 10 106 22 138 25 47 6 57 11 57 26 0 22 -14 23 -110 4z" fill="currentColor" stroke="none" /></g>
</svg>