<?xml version='1.0' encoding='utf-8'?>
<svg xmlns="http://www.w3.org/2000/svg" viewBox="0 0 100 100">
<g transform="translate(50,50) scale(0.798403) translate(-33.9,-75.8) translate(0.000000,96.000000) scale(0.100000,-0.100000)" fill="currentColor" stroke="none">
<path d="M283 484 c7 -100 17 -140 17 -65 0 26 5 44 14 47 10 4 11 15 6 45 l-7 39 71 2 c39 1 87 3 106 4 19 1 52 2 73 3 20 0 37 6 37 11 0 6 -60 10 -161 10 l-162 0 6 -96z" fill="currentColor" stroke="none" /><path d="M480 544 c0 -1 5 -15 11 -32 10 -28 13 -30 47 -25 20 3 43 12 50 21 9 12 12 13 12 2 0 -7 2 -11 5 -9 2 3 2 14 -1 26 -5 18 -13 21 -65 19 -32 0 -59 -1 -59 -2z" fill="currentColor" stroke="none" /><path d="M337 500 c3 -19 7 -37 9 -39 2 -2 35 2 73 9 l70 13 -14 26 c-12 24 -18 26 -78 26 l-65 0 5 -35z" fill="currentColor" stroke="none" /><path d="M636 481 c-4 -5 3 -7 14 -4 23 6 26 13 6 13 -8 0 -17 -4 -20 -9z" fill="currentColor" stroke="none" /><path d="M525 474 c-91 -11 -135 -26 -155 -53 -31 -45 -41 -78 -25 -85 9 -3 24 12 42 47 30 56 46 65 163 85 53 9 37 13 -25 6z" fill="currentColor" stroke="none" /><path d="M310 431 c0 -11 6 -22 13 -25 10 -5 10 -7 0 -12 -7 -3 -13 -15 -13 -27 1 -16 7 -11 25 23 30 57 30 60 0 60 -18 0 -25 -5 -25 -19z" fill="currentColor" stroke="none" /><path d="M840 346 c-25 -8 -80 -21 -122 -31 -70 -16 -110 -37 -96 -51 3 -3 65 11 137 30 72 20 134 36 136 36 3 0 5 7 5 15 0 18 -1 18 -60 1z" fill="currentColor" stroke="none" /></g>
</svg>