<?xml version='1.0' encoding='utf-8'?>
<svg xmlns="http://www.w3.org/2000/svg" viewBox="0 0 114.000000 95.000000">
<defs><clipPath id="compact-icon-artwork"><rect x="0.0" y="0.0" width="114.0" height="72.200000" /></clipPath></defs><g transform="translate(0.000000,95.000000) scale(0.100000,-0.100000)" fill="currentColor" stroke="none" clip-path="url(#compact-icon-artwork)">
<path d="M92 874 c-21 -15 -22 -20 -22 -208 l0 -194 25 -16 c32 -21 35 -20 35 9 0 14 -4 25 -10 25 -5 0 -6 7 -3 17 4 11 3 14 -5 9 -21 -13 -14 49 8 69 25 23 25 31 -2 81 -12 22 -19 48 -15 56 10 27 94 89 123 91 22 2 30 -4 38 -26 7 -20 7 -33 -2 -47 -21 -34 6 -23 62 25 29 25 58 45 64 45 7 0 46 -12 88 -26 78 -26 127 -26 92 0 -15 11 -16 19 -7 49 9 32 14 37 39 37 36 0 140 -38 140 -51 0 -6 5 -7 10 -4 11 7 6 -27 -11 -73 -14 -36 -12 -39 38 -56 26 -9 47 -16 49 -16 1 0 1 22 1 48 0 26 3 53 7 60 10 16 50 15 110 -3 79 -24 96 -39 96 -86 0 -22 -4 -38 -9 -35 -4 3 -13 -6 -19 -19 -7 -14 -8 -25 -3 -25 5 0 16 -3 25 -6 14 -5 16 9 16 120 0 113 -2 128 -20 146 -19 19 -33 20 -468 20 -389 0 -450 -2 -470 -16z" />
<path d="M576 835 c-11 -29 -7 -33 52 -50 31 -9 65 -21 75 -27 22 -11 26 -9 29 21 4 32 -35 59 -98 67 -42 5 -52 3 -58 -11z" />
<path d="M190 781 c-71 -44 -80 -59 -63 -100 l14 -33 27 35 c15 20 39 41 55 46 21 8 27 16 27 40 0 16 -4 32 -8 35 -4 2 -28 -8 -52 -23z" />
<path d="M335 754 c-50 -45 -50 -45 -19 -41 26 4 34 0 47 -22 15 -25 15 -30 1 -49 -21 -31 -109 -32 -119 -2 -3 11 -10 20 -14 20 -11 0 -111 -91 -111 -102 0 -4 5 -8 10 -8 6 0 29 -9 53 -19 95 -43 204 -89 242 -101 22 -7 45 -16 50 -19 31 -22 146 -62 157 -55 7 4 10 3 5 -1 -10 -12 123 -67 142 -60 8 3 12 3 8 -1 -8 -8 69 -46 114 -57 24 -6 28 -1 84 111 44 89 59 130 63 173 l4 56 -43 18 c-24 10 -61 21 -81 25 -33 6 -36 5 -28 -10 13 -25 -16 -58 -56 -66 -24 -4 -37 0 -62 21 -18 15 -32 31 -32 36 0 19 41 49 68 50 20 1 22 3 7 6 -39 9 -150 44 -167 54 -28 15 -36 11 -30 -16 3 -20 -1 -27 -24 -36 -37 -14 -95 -5 -111 18 -19 25 -16 31 18 52 l32 19 -64 20 c-35 11 -71 23 -79 26 -9 3 -35 -12 -65 -40z m173 -210 c12 -8 22 -26 22 -39 0 -48 -80 -73 -128 -39 -47 33 -13 94 53 94 17 0 41 -7 53 -16z m293 -107 c40 -27 40 -51 3 -84 -29 -27 -51 -29 -99 -9 -30 13 -35 20 -35 49 0 29 5 37 33 51 43 21 58 20 98 -7z" />
<path d="M424 525 c-19 -15 -19 -15 0 -30 25 -19 45 -19 70 0 21 16 21 17 -11 34 -28 14 -35 14 -59 -4z" />
<path d="M687 423 c-4 -3 -7 -11 -7 -17 0 -6 5 -5 12 2 6 6 9 14 7 17 -3 3 -9 2 -12 -2z" />
<path d="M717 423 c-13 -12 -7 -41 9 -47 29 -11 53 -6 63 12 7 13 6 23 -1 30 -13 13 -60 16 -71 5z" />
<path d="M592 764 c2 -13 20 -25 57 -36 30 -10 57 -16 59 -13 13 12 -12 35 -48 45 -23 6 -48 14 -57 17 -11 4 -14 1 -11 -13z" />
<path d="M846 754 c-10 -25 -7 -44 7 -44 7 0 45 -11 84 -23 l71 -24 13 24 c16 30 2 45 -64 67 -61 21 -103 21 -111 0z" />
<path d="M192 682 c-38 -35 -53 -62 -36 -62 16 0 91 79 85 89 -5 7 -22 -3 -49 -27z" />
<path d="M524 706 c-16 -12 -16 -15 -4 -20 21 -7 80 -3 80 6 0 8 -34 28 -47 28 -5 0 -18 -6 -29 -14z" />
<path d="M278 679 c-30 -17 -20 -29 22 -29 41 0 57 21 24 34 -21 8 -26 7 -46 -5z" />
<path d="M856 681 c-9 -14 19 -31 74 -46 44 -12 52 -12 57 1 7 18 10 16 -52 37 -56 19 -71 21 -79 8z" />
<path d="M787 606 c-4 -10 5 -16 27 -20 41 -8 67 1 59 20 -7 19 -79 19 -86 0z" />
<path d="M164 464 c1 -32 5 -44 16 -44 34 0 77 -38 84 -74 4 -20 11 -36 17 -36 5 0 7 11 3 25 -6 23 -4 25 17 20 19 -5 31 1 53 24 28 29 28 51 1 51 -8 0 -31 9 -52 19 -21 11 -61 29 -89 40 l-51 20 1 -45z" />
<path d="M90 433 c0 -21 144 -93 158 -79 9 10 -20 36 -52 45 -17 5 -48 16 -68 25 -21 9 -38 13 -38 9z" />
<path d="M1033 413 c-7 -16 -35 -71 -63 -123 -28 -52 -55 -113 -61 -135 -6 -22 -12 -48 -15 -57 -5 -16 2 -18 54 -18 42 0 66 5 81 18 21 16 22 24 19 180 -3 138 -5 158 -15 135z" />
<path d="M66 409 c1 -13 3 -83 3 -155 1 -171 -1 -168 130 -172 112 -4 101 -11 106 68 4 58 5 60 15 60 6 0 10 -7 10 -16 0 -12 4 -14 13 -7 6 5 49 10 94 11 l82 2 -10 -32 c-5 -17 -6 -34 -4 -37 3 -2 5 1 5 7 0 7 13 12 30 12 21 0 28 4 24 14 -3 8 -13 12 -26 8 -15 -3 -19 -1 -16 9 3 8 17 14 32 15 35 1 48 20 42 61 -3 18 0 35 5 38 21 13 6 34 -33 48 -24 8 -68 26 -98 40 -71 31 -79 28 -69 -29 5 -25 11 -49 14 -54 9 -14 65 -23 78 -12 9 8 13 0 15 -29 3 -52 -11 -56 -90 -30 -63 21 -91 21 -44 0 14 -7 26 -17 26 -22 0 -5 -12 -2 -26 8 -14 9 -32 14 -40 11 -8 -3 -14 1 -14 9 0 7 -5 26 -11 42 -17 46 -28 9 -22 -78 4 -50 2 -79 -4 -79 -11 0 -33 95 -33 140 0 15 -6 32 -12 37 -22 16 -70 34 -63 23 13 -21 -13 -9 -28 13 -15 21 -16 18 -16 -55 -1 -45 -5 -78 -11 -78 -11 0 -12 6 -10 77 2 64 -7 96 -23 86 -9 -5 -9 -3 0 8 9 11 8 19 -6 38 l-18 23 3 -23z m516 -161 c-7 -7 -12 -8 -12 -2 0 14 12 26 19 19 2 -3 -1 -11 -7 -17z" />
<path d="M137 365 c12 -9 41 -22 65 -31 23 -8 46 -20 50 -27 4 -7 8 -7 8 -2 0 20 -16 32 -63 45 -26 7 -50 17 -53 21 -3 5 -10 9 -17 9 -6 0 -2 -7 10 -15z" />
</g>
</svg>