<?xml version='1.0' encoding='utf-8'?>
<svg xmlns="http://www.w3.org/2000/svg" viewBox="0 0 114.000000 95.000000">
<defs><clipPath id="compact-icon-artwork"><rect x="0.0" y="0.0" width="114.0" height="72.200000" /></clipPath></defs><g transform="translate(0.000000,95.000000) scale(0.100000,-0.100000)" fill="currentColor" stroke="none" clip-path="url(#compact-icon-artwork)">
<path d="M101 882 c0 -4 29 -31 63 -59 l63 -53 87 0 c47 0 86 3 86 7 0 4 -10 31 -22 60 l-21 52 -129 0 c-70 0 -128 -3 -127 -7z m209 -94 c0 -18 -17 -5 -45 35 -44 61 -42 68 4 17 23 -25 41 -48 41 -52z" />
<path d="M380 881 c0 -4 10 -31 21 -60 21 -49 23 -51 61 -51 l39 0 -3 60 -3 60 -57 0 c-32 0 -58 -4 -58 -9z" />
<path d="M615 880 c102 -7 77 -23 -29 -18 l-76 3 0 -47 c0 -44 2 -48 25 -48 21 0 25 5 25 31 0 17 4 28 10 24 6 -3 10 -19 10 -36 l0 -29 -180 0 c-162 0 -185 -2 -220 -20 l-40 -20 -1 -175 c-1 -96 -3 -179 -4 -185 -1 -5 -3 -16 -4 -24 0 -8 -18 -18 -38 -23 l-38 -9 0 -93 c0 -142 -42 -131 490 -131 432 0 443 0 469 21 20 16 26 29 26 60 0 27 -4 39 -14 39 -8 0 -17 -6 -19 -12 -4 -10 -6 -10 -6 0 -1 7 -16 12 -41 12 -33 0 -40 -3 -40 -20 0 -17 -7 -20 -40 -20 -43 0 -60 18 -60 64 0 32 -25 56 -59 56 -41 0 -51 42 -51 203 l0 137 134 0 c142 0 146 -1 146 -50 0 -11 9 -19 25 -22 l25 -5 0 152 c0 211 22 195 -273 193 -146 -1 -202 -4 -152 -8z m395 -70 c0 -6 -37 -10 -90 -10 -53 0 -90 4 -90 10 0 6 37 10 90 10 53 0 90 -4 90 -10z m-404 -162 c6 -7 9 -42 9 -78 l-1 -65 -187 -3 -187 -2 0 73 c0 41 3 76 6 80 3 3 83 6 178 7 130 0 175 -3 182 -12z m6 -253 c-3 -69 -12 -90 -27 -65 -10 16 -322 13 -328 -2 -9 -25 -15 -2 -19 70 l-4 72 191 0 190 0 -3 -75z m-132 -221 c0 -20 5 -24 31 -24 16 0 28 4 25 9 -4 5 -3 16 0 25 5 14 25 16 140 15 100 -2 134 -6 138 -16 3 -8 -2 -13 -12 -13 -15 0 -15 -2 -2 -10 12 -8 11 -10 -7 -10 -12 0 -23 8 -26 18 -3 10 -5 6 -6 -10 -1 -28 -23 -39 -36 -18 -3 5 -17 10 -31 10 -16 0 -24 6 -25 18 -1 16 -2 16 -6 0 -3 -13 -14 -18 -38 -18 -27 0 -34 4 -38 23 -3 16 -5 13 -6 -10 -1 -33 -2 -33 -50 -33 -45 0 -50 3 -59 28 -7 17 -11 21 -11 10 -1 -10 -5 -18 -11 -18 -5 0 -10 8 -11 18 0 13 -2 14 -6 2 -9 -23 -24 -29 -50 -19 -12 4 -30 6 -39 2 -11 -4 -22 1 -30 12 -13 17 -14 17 -14 2 0 -18 -15 -23 -24 -8 -4 5 -3 16 0 24 4 12 26 15 105 15 97 -1 99 -1 99 -24z" />
<path d="M262 578 c2 -35 6 -62 11 -60 4 1 79 2 167 2 l160 0 0 60 0 60 -170 0 -171 0 3 -62z" />
<path d="M260 405 l0 -35 160 0 160 0 0 35 0 35 -160 0 -160 0 0 -35z" />
<path d="M72 867 c-5 -7 -12 -30 -14 -52 -5 -39 -4 -42 34 -64 l39 -22 36 22 36 22 -24 20 c-13 10 -40 34 -61 53 -27 24 -39 30 -46 21z" />
<path d="M50 535 c1 -113 5 -207 10 -210 4 -3 15 -2 24 1 14 5 16 32 16 196 0 170 -2 192 -17 204 -10 7 -22 14 -26 14 -4 0 -7 -92 -7 -205z" />
<path d="M730 555 l0 -35 53 0 c29 0 57 4 63 9 5 6 32 11 59 13 43 3 50 6 53 26 3 22 2 22 -112 22 l-116 0 0 -35z" />
<path d="M895 510 c12 -13 15 -27 11 -45 -6 -24 -9 -25 -81 -25 -63 0 -76 -3 -85 -19 -7 -13 -7 -22 0 -26 5 -3 10 -21 10 -40 0 -26 7 -38 29 -54 16 -12 32 -21 35 -21 3 0 6 20 6 44 0 25 4 47 9 50 9 6 31 -37 31 -62 0 -9 5 -33 10 -53 13 -46 58 -60 96 -30 27 21 18 36 -26 44 -14 2 3 5 38 6 l62 1 0 40 c0 22 -5 40 -11 40 -5 0 -8 -4 -5 -9 8 -12 -23 -18 -64 -11 -23 3 -36 11 -38 23 -6 29 17 46 70 53 39 5 47 9 33 16 -9 6 -25 8 -35 5 -11 -3 -25 2 -32 10 -11 13 -13 13 -18 -3 -6 -16 -7 -15 -12 4 -4 14 -2 20 5 15 7 -4 8 0 3 13 -5 10 -11 27 -13 37 -3 9 -15 17 -26 17 -19 0 -19 -1 -2 -20z m15 -182 c0 -16 -3 -19 -11 -11 -6 6 -8 16 -5 22 11 17 16 13 16 -11z" />
<path d="M825 490 l-29 -30 27 0 c20 0 30 7 37 26 18 45 6 47 -35 4z" />
<path d="M944 498 c3 -7 9 -20 12 -29 4 -12 18 -17 45 -17 37 -1 39 1 39 29 0 28 -1 29 -51 29 -37 0 -49 -3 -45 -12z" />
<path d="M731 468 c1 -18 3 -25 6 -15 3 10 14 17 28 17 12 0 28 7 35 15 11 13 7 15 -29 15 -40 0 -41 -1 -40 -32z" />
<path d="M876 483 c-4 -9 -2 -21 4 -27 7 -7 10 -2 10 17 0 31 -5 34 -14 10z" />
<path d="M940 385 c-17 -20 -4 -35 31 -35 30 0 38 17 17 38 -16 16 -33 15 -48 -3z" />
<path d="M1005 390 c3 -5 13 -10 21 -10 8 0 14 5 14 10 0 6 -9 10 -21 10 -11 0 -17 -4 -14 -10z" />
</g>
</svg>