<?xml version='1.0' encoding='utf-8'?>
<svg xmlns="http://www.w3.org/2000/svg" viewBox="0 0 100 100">
<g transform="translate(50,50) scale(0.546822) translate(-29.6,-87.15) translate(0.000000,96.000000) scale(0.100000,-0.100000)" fill="currentColor" stroke="none">
<path d="m536 -54 c44 -17 95 -38 114 -48 l35 -17 0 -219 0 -218 -32 -18 c-17 -10 -51 -24 -75 -32 -23 -9 -67 -25 -96 -36 -62 -24 -42 -31 -209 73 l-63 39 0 217 0 218 33 6 c51 10 188 52 213 65 1 1 37 -13 80 -30z" fill="currentColor" stroke="none" /><path d="m-6 -643 c14 1 31 -3 38 -8 8 -7 12 -7 12 1 0 6 7 11 16 11 11 0 14 -6 8 -22 -9 -31 -14 -35 -23 -19 -7 10 -10 9 -14 -3 -6 -16 -31 -17 -54 -3 -6 4 -14 1 -16 -5 -3 -7 -6 5 -6 27 0 22 3 35 7 30 4 -6 18 -10 32 -9z" fill="currentColor" stroke="none" /><path d="M525 820 c-11 -5 -14 -9 -7 -9 7 -1 11 -5 7 -11 -3 -5 7 -5 25 1 30 11 50 29 31 29 -5 0 -13 -4 -16 -10 -3 -5 -11 -10 -16 -10 -6 0 -7 5 -4 10 7 11 7 11 -20 0z" fill="currentColor" stroke="none" /><path d="M574 785 c-17 -13 -16 -14 14 -4 33 11 41 19 19 19 -7 0 -22 -7 -33 -15z" fill="currentColor" stroke="none" /><path d="M785 770 c-32 -13 -56 -22 -125 -45 l-65 -21 -6 -101 c-4 -56 -5 -114 -3 -130 2 -15 4 -58 5 -95 1 -50 4 -68 14 -68 8 0 15 -6 17 -14 4 -21 186 52 184 74 -1 8 5 14 12 13 9 -2 12 39 12 182 0 160 -2 184 -15 179 -10 -4 -15 0 -15 11 0 11 5 15 15 11 8 -3 15 -1 15 4 0 12 -18 12 -45 0z" fill="currentColor" stroke="none" /><path d="M712 704 c-7 -8 -18 -11 -24 -8 -6 4 -8 3 -5 -4 9 -13 44 -4 51 14 7 18 -5 17 -22 -2z" fill="currentColor" stroke="none" /><path d="M749 688 c-6 -21 -5 -38 2 -38 5 0 9 9 9 20 0 16 -7 28 -11 18z" fill="currentColor" stroke="none" /><path d="M665 661 c-7 -22 3 -51 17 -51 6 0 6 6 -2 15 -6 8 -9 23 -5 35 3 11 4 20 1 20 -2 0 -7 -8 -11 -19z" fill="currentColor" stroke="none" /><path d="M674 538 c-19 -23 -19 -23 1 -7 11 9 27 19 35 22 13 5 13 6 -1 6 -9 1 -24 -9 -35 -21z" fill="currentColor" stroke="none" /><path d="M697 519 c-21 -12 -47 -61 -47 -87 0 -10 9 -27 20 -37 27 -25 64 -8 87 40 29 62 -8 115 -60 84z" fill="currentColor" stroke="none" /><path d="M692 478 c-20 -20 -14 -38 12 -36 17 2 22 7 18 20 -6 24 -16 30 -30 16z" fill="currentColor" stroke="none" /><path d="M801 484 c0 -11 3 -14 6 -6 3 7 2 16 -1 19 -3 4 -6 -2 -5 -13z" fill="currentColor" stroke="none" /><path d="M620 426 c0 -14 4 -27 8 -30 5 -3 6 8 4 25 -5 35 -12 38 -12 5z" fill="currentColor" stroke="none" /><path d="M510 750 c8 -6 24 -16 35 -22 18 -9 17 -8 -2 11 -12 11 -28 21 -35 21 -9 0 -9 -3 2 -10z" fill="currentColor" stroke="none" /><path d="M485 720 c3 -5 8 -10 11 -10 2 0 4 5 4 10 0 6 -5 10 -11 10 -5 0 -7 -4 -4 -10z" fill="currentColor" stroke="none" /><path d="M431 674 c0 -11 3 -14 6 -6 3 7 2 16 -1 19 -3 4 -6 -2 -5 -13z" fill="currentColor" stroke="none" /><path d="M562 670 c0 -14 2 -19 5 -12 2 6 2 18 0 25 -3 6 -5 1 -5 -13z" fill="currentColor" stroke="none" /><path d="M392 650 c0 -14 2 -19 5 -12 2 6 2 18 0 25 -3 6 -5 1 -5 -13z" fill="currentColor" stroke="none" /><path d="M502 600 c0 -14 2 -19 5 -12 2 6 2 18 0 25 -3 6 -5 1 -5 -13z" fill="currentColor" stroke="none" /><path d="M452 560 c0 -14 2 -19 5 -12 2 6 2 18 0 25 -3 6 -5 1 -5 -13z" fill="currentColor" stroke="none" /><path d="M501 554 c0 -11 3 -14 6 -6 3 7 2 16 -1 19 -3 4 -6 -2 -5 -13z" fill="currentColor" stroke="none" /><path d="M541 524 c0 -11 3 -14 6 -6 3 7 2 16 -1 19 -3 4 -6 -2 -5 -13z" fill="currentColor" stroke="none" /><path d="M412 480 c0 -14 2 -19 5 -12 2 6 2 18 0 25 -3 6 -5 1 -5 -13z" fill="currentColor" stroke="none" /><path d="M541 484 c0 -11 3 -14 6 -6 3 7 2 16 -1 19 -3 4 -6 -2 -5 -13z" fill="currentColor" stroke="none" /><path d="M561 464 c0 -11 3 -14 6 -6 3 7 2 16 -1 19 -3 4 -6 -2 -5 -13z" fill="currentColor" stroke="none" /><path d="M460 440 c7 -14 7 -20 0 -20 -5 0 -10 -7 -10 -15 0 -8 7 -15 15 -15 8 0 15 6 15 13 0 6 3 22 6 35 5 18 2 22 -15 22 -19 0 -20 -3 -11 -20z" fill="currentColor" stroke="none" /><path d="M503 420 c0 -25 2 -35 4 -22 2 12 2 32 0 45 -2 12 -4 2 -4 -23z" fill="currentColor" stroke="none" /><path d="M563 355 c0 -22 2 -30 4 -17 2 12 2 30 0 40 -3 9 -5 -1 -4 -23z" fill="currentColor" stroke="none" /><path d="M401 377 c2 -1 12 -9 22 -16 14 -12 17 -11 17 3 0 10 -8 16 -22 16 -12 0 -19 -1 -17 -3z" fill="currentColor" stroke="none" /><path d="M530 344 c0 -21 4 -33 10 -29 6 3 10 19 10 36 0 16 -4 29 -10 29 -5 0 -10 -16 -10 -36z" fill="currentColor" stroke="none" /></g>
</svg>