<?xml version='1.0' encoding='utf-8'?>
<svg xmlns="http://www.w3.org/2000/svg" viewBox="0 0 114.000000 96.000000">
<g transform="translate(0.000000,96.000000) scale(0.100000,-0.100000)" fill="currentColor" stroke="none">
<path d="M150 913 c-39 -14 -40 -26 -40 -398 0 -338 1 -363 18 -378 17 -15 64 -17 474 -17 438 0 456 1 472 19 17 18 18 50 18 370 0 193 -4 360 -7 371 -4 12 -18 25 -32 31 -25 9 -876 12 -903 2z m536 -54 c44 -17 95 -38 114 -48 l35 -17 0 -219 0 -218 -32 -18 c-17 -10 -51 -24 -75 -32 -23 -9 -67 -25 -96 -36 -62 -24 -42 -31 -209 73 l-63 39 0 217 0 218 33 6 c51 10 188 52 213 65 1 1 37 -13 80 -30z m-6 -643 c14 1 31 -3 38 -8 8 -7 12 -7 12 1 0 6 7 11 16 11 11 0 14 -6 8 -22 -9 -31 -14 -35 -23 -19 -7 10 -10 9 -14 -3 -6 -16 -31 -17 -54 -3 -6 4 -14 1 -16 -5 -3 -7 -6 5 -6 27 0 22 3 35 7 30 4 -6 18 -10 32 -9z m-150 -8 c0 -6 6 -5 16 2 12 11 18 11 30 -1 12 -13 12 -17 0 -34 -11 -16 -17 -17 -27 -8 -9 9 -17 8 -35 -4 -16 -10 -24 -12 -24 -3 0 7 -8 9 -19 5 -19 -6 -32 17 -24 41 5 15 83 16 83 2z m98 -22 c3 -22 0 -27 -15 -24 -16 3 -25 32 -15 51 8 16 27 0 30 -27z" />
<path d="M525 820 c-11 -5 -14 -9 -7 -9 7 -1 11 -5 7 -11 -3 -5 7 -5 25 1 30 11 50 29 31 29 -5 0 -13 -4 -16 -10 -3 -5 -11 -10 -16 -10 -6 0 -7 5 -4 10 7 11 7 11 -20 0z" />
<path d="M574 785 c-17 -13 -16 -14 14 -4 33 11 41 19 19 19 -7 0 -22 -7 -33 -15z" />
<path d="M785 770 c-32 -13 -56 -22 -125 -45 l-65 -21 -6 -101 c-4 -56 -5 -114 -3 -130 2 -15 4 -58 5 -95 1 -50 4 -68 14 -68 8 0 15 -6 17 -14 4 -21 186 52 184 74 -1 8 5 14 12 13 9 -2 12 39 12 182 0 160 -2 184 -15 179 -10 -4 -15 0 -15 11 0 11 5 15 15 11 8 -3 15 -1 15 4 0 12 -18 12 -45 0z m-27 -52 c10 -13 15 -39 13 -71 0 -10 -12 -28 -26 -41 l-25 -24 33 -6 c38 -7 67 -48 67 -95 0 -39 -30 -103 -46 -97 -7 3 -18 -3 -26 -12 -12 -15 -11 -16 5 -3 20 16 24 -1 3 -18 -12 -10 -112 -34 -103 -24 3 2 -6 15 -19 28 -34 35 -33 101 3 158 15 23 26 46 25 50 -1 5 2 6 8 2 5 -3 18 -1 27 4 17 10 16 11 -2 12 -11 1 -24 0 -30 -1 -5 -1 -7 2 -3 5 4 4 1 16 -6 27 -38 54 60 156 102 106z m-141 -47 c0 -11 -5 -17 -9 -15 -11 7 -10 34 1 34 6 0 9 -9 8 -19z" />
<path d="M712 704 c-7 -8 -18 -11 -24 -8 -6 4 -8 3 -5 -4 9 -13 44 -4 51 14 7 18 -5 17 -22 -2z" />
<path d="M749 688 c-6 -21 -5 -38 2 -38 5 0 9 9 9 20 0 16 -7 28 -11 18z" />
<path d="M665 661 c-7 -22 3 -51 17 -51 6 0 6 6 -2 15 -6 8 -9 23 -5 35 3 11 4 20 1 20 -2 0 -7 -8 -11 -19z" />
<path d="M674 538 c-19 -23 -19 -23 1 -7 11 9 27 19 35 22 13 5 13 6 -1 6 -9 1 -24 -9 -35 -21z" />
<path d="M697 519 c-21 -12 -47 -61 -47 -87 0 -10 9 -27 20 -37 27 -25 64 -8 87 40 29 62 -8 115 -60 84z m63 -40 c0 -5 -5 -9 -12 -9 -6 0 -8 3 -5 7 4 3 1 13 -6 22 -11 14 -10 14 6 2 9 -7 17 -17 17 -22z m-32 -7 c2 -12 7 -20 11 -18 4 3 8 -1 8 -9 0 -8 -5 -11 -10 -8 -6 4 -8 0 -4 -10 4 -11 -1 -20 -14 -27 -20 -11 -43 -5 -34 10 3 5 1 11 -5 15 -14 9 -13 48 2 63 18 18 43 10 46 -16z" />
<path d="M692 478 c-20 -20 -14 -38 12 -36 17 2 22 7 18 20 -6 24 -16 30 -30 16z" />
<path d="M801 484 c0 -11 3 -14 6 -6 3 7 2 16 -1 19 -3 4 -6 -2 -5 -13z" />
<path d="M620 426 c0 -14 4 -27 8 -30 5 -3 6 8 4 25 -5 35 -12 38 -12 5z" />
<path d="M510 750 c8 -6 24 -16 35 -22 18 -9 17 -8 -2 11 -12 11 -28 21 -35 21 -9 0 -9 -3 2 -10z" />
<path d="M485 720 c3 -5 8 -10 11 -10 2 0 4 5 4 10 0 6 -5 10 -11 10 -5 0 -7 -4 -4 -10z" />
<path d="M431 674 c0 -11 3 -14 6 -6 3 7 2 16 -1 19 -3 4 -6 -2 -5 -13z" />
<path d="M562 670 c0 -14 2 -19 5 -12 2 6 2 18 0 25 -3 6 -5 1 -5 -13z" />
<path d="M392 650 c0 -14 2 -19 5 -12 2 6 2 18 0 25 -3 6 -5 1 -5 -13z" />
<path d="M502 600 c0 -14 2 -19 5 -12 2 6 2 18 0 25 -3 6 -5 1 -5 -13z" />
<path d="M452 560 c0 -14 2 -19 5 -12 2 6 2 18 0 25 -3 6 -5 1 -5 -13z" />
<path d="M501 554 c0 -11 3 -14 6 -6 3 7 2 16 -1 19 -3 4 -6 -2 -5 -13z" />
<path d="M541 524 c0 -11 3 -14 6 -6 3 7 2 16 -1 19 -3 4 -6 -2 -5 -13z" />
<path d="M412 480 c0 -14 2 -19 5 -12 2 6 2 18 0 25 -3 6 -5 1 -5 -13z" />
<path d="M541 484 c0 -11 3 -14 6 -6 3 7 2 16 -1 19 -3 4 -6 -2 -5 -13z" />
<path d="M561 464 c0 -11 3 -14 6 -6 3 7 2 16 -1 19 -3 4 -6 -2 -5 -13z" />
<path d="M460 440 c7 -14 7 -20 0 -20 -5 0 -10 -7 -10 -15 0 -8 7 -15 15 -15 8 0 15 6 15 13 0 6 3 22 6 35 5 18 2 22 -15 22 -19 0 -20 -3 -11 -20z" />
<path d="M503 420 c0 -25 2 -35 4 -22 2 12 2 32 0 45 -2 12 -4 2 -4 -23z" />
<path d="M563 355 c0 -22 2 -30 4 -17 2 12 2 30 0 40 -3 9 -5 -1 -4 -23z" />
<path d="M401 377 c2 -1 12 -9 22 -16 14 -12 17 -11 17 3 0 10 -8 16 -22 16 -12 0 -19 -1 -17 -3z" />
<path d="M530 344 c0 -21 4 -33 10 -29 6 3 10 19 10 36 0 16 -4 29 -10 29 -5 0 -10 -16 -10 -36z" />
</g>
</svg>