<?xml version='1.0' encoding='utf-8'?>
<svg xmlns="http://www.w3.org/2000/svg" viewBox="0 0 100 100">
<g transform="translate(50,50) scale(0.508906) translate(-17.5,-86.7) translate(0.000000,96.000000) scale(0.100000,-0.100000)" fill="currentColor" stroke="none">
<path d="m564 -89 c33 -8 68 -17 79 -19 38 -9 103 -70 122 -114 18 -43 18 -108 -1 -145 -8 -15 -12 -33 -8 -39 3 -5 1 -7 -4 -4 -6 4 -22 -2 -36 -13 -73 -58 -223 -85 -350 -64 -81 13 -109 22 -102 34 3 5 -4 6 -14 3 -14 -4 -35 9 -68 40 -48 45 -48 46 -48 110 0 72 -13 75 -40 10 -13 -31 -13 -38 5 -72 30 -60 107 -111 208 -137 67 -18 260 -21 290 -5 11 6 28 11 36 11 23 0 106 40 144 69 18 15 40 41 49 59 20 42 43 42 43 -1 0 -42 -77 -125 -152 -163 -190 -96 -496 -58 -611 77 -64 74 -60 192 9 263 91 93 294 139 449 100z" fill="currentColor" stroke="none" /><path d="m-120 -617 c-5 -21 -5 -21 6 1 14 25 34 31 25 6 -3 -9 -6 -21 -6 -28 0 -6 -9 -12 -20 -13 -14 -1 -20 4 -20 18 0 10 -4 19 -9 19 -5 0 -8 -8 -7 -17 2 -31 -27 -20 -31 11 -4 25 -1 28 16 23 12 -3 24 -1 27 4 10 17 25 -2 19 -24z" fill="currentColor" stroke="none" /><path d="M488 803 c6 -2 18 -2 25 0 6 3 1 5 -13 5 -14 0 -19 -2 -12 -5z" fill="currentColor" stroke="none" /><path d="M638 803 c7 -3 16 -2 19 1 4 3 -2 6 -13 5 -11 0 -14 -3 -6 -6z" fill="currentColor" stroke="none" /><path d="M368 781 c-72 -29 -113 -57 -142 -101 -14 -22 -26 -41 -26 -43 0 -3 21 16 47 42 26 25 46 51 44 56 -1 6 1 7 4 3 4 -4 29 4 56 18 27 13 66 28 86 33 36 8 36 9 8 10 -16 0 -51 -8 -77 -18z" fill="currentColor" stroke="none" /><path d="M688 793 c7 -3 16 -2 19 1 4 3 -2 6 -13 5 -11 0 -14 -3 -6 -6z" fill="currentColor" stroke="none" /><path d="M428 772 c-229 -69 -201 -241 46 -288 39 -8 87 -14 106 -14 39 0 151 22 191 38 40 16 96 69 103 98 8 30 -11 97 -25 89 -5 -4 -9 0 -9 7 0 16 -38 40 -100 63 -68 25 -240 29 -312 7z" fill="currentColor" stroke="none" /><path d="M339 693 l-24 -28 28 24 c15 14 27 26 27 28 0 8 -8 1 -31 -24z" fill="currentColor" stroke="none" /><path d="M785 689 c6 -28 8 -30 23 -13 10 11 8 15 -7 24 -17 9 -19 7 -16 -11z" fill="currentColor" stroke="none" /><path d="M548 693 c12 -2 32 -2 45 0 12 2 2 4 -23 4 -25 0 -35 -2 -22 -4z" fill="currentColor" stroke="none" /><path d="M525 669 c-11 -17 5 -24 26 -11 11 7 30 10 41 6 14 -4 18 -2 14 5 -9 14 -73 14 -81 0z" fill="currentColor" stroke="none" /><path d="M350 650 c-6 -11 -8 -20 -6 -20 3 0 10 9 16 20 6 11 8 20 6 20 -3 0 -10 -9 -16 -20z" fill="currentColor" stroke="none" /><path d="M633 659 c-12 -12 -6 -49 8 -49 15 0 22 27 12 44 -6 12 -12 13 -20 5z" fill="currentColor" stroke="none" /><path d="M745 658 c-10 -34 -11 -65 -1 -65 6 0 11 18 11 39 0 39 -3 47 -10 26z" fill="currentColor" stroke="none" /><path d="M818 644 c6 -33 22 -41 22 -11 0 14 -6 27 -13 30 -10 4 -13 -2 -9 -19z" fill="currentColor" stroke="none" /><path d="M307 647 c-4 -10 -2 -28 4 -39 15 -28 19 -19 10 22 -5 28 -8 31 -14 17z" fill="currentColor" stroke="none" /><path d="M480 641 c0 -14 23 -29 55 -35 24 -5 26 -5 9 3 -12 5 -24 16 -27 25 -7 17 -37 23 -37 7z" fill="currentColor" stroke="none" /><path d="M721 634 c0 -11 3 -14 6 -6 3 7 2 16 -1 19 -3 4 -6 -2 -5 -13z" fill="currentColor" stroke="none" /><path d="M762 630 c0 -14 2 -19 5 -12 2 6 2 18 0 25 -3 6 -5 1 -5 -13z" fill="currentColor" stroke="none" /><path d="M782 625 c0 -16 2 -22 5 -12 2 9 2 23 0 30 -3 6 -5 -1 -5 -18z" fill="currentColor" stroke="none" /><path d="M555 630 c3 -5 15 -10 26 -10 10 0 19 5 19 10 0 6 -12 10 -26 10 -14 0 -23 -4 -19 -10z" fill="currentColor" stroke="none" /><path d="M361 603 c-1 -17 16 -25 25 -12 4 7 3 9 -4 5 -5 -3 -13 0 -15 6 -4 9 -6 10 -6 1z" fill="currentColor" stroke="none" /><path d="M528 583 c7 -3 16 -2 19 1 4 3 -2 6 -13 5 -11 0 -14 -3 -6 -6z" fill="currentColor" stroke="none" /><path d="M961 514 c0 -11 3 -14 6 -6 3 7 2 16 -1 19 -3 4 -6 -2 -5 -13z" fill="currentColor" stroke="none" /><path d="M790 495 c-11 -13 -10 -14 4 -9 9 3 16 10 16 15 0 13 -6 11 -20 -6z" fill="currentColor" stroke="none" /><path d="M370 480 c0 -5 5 -10 10 -10 6 0 10 5 10 10 0 6 -4 10 -10 10 -5 0 -10 -4 -10 -10z" fill="currentColor" stroke="none" /><path d="M705 469 c-10 -15 1 -23 20 -15 9 3 13 10 10 16 -8 13 -22 13 -30 -1z" fill="currentColor" stroke="none" /><path d="M440 460 c0 -5 5 -10 10 -10 6 0 10 5 10 10 0 6 -4 10 -10 10 -5 0 -10 -4 -10 -10z" fill="currentColor" stroke="none" /><path d="M480 450 c0 -5 5 -10 11 -10 5 0 7 5 4 10 -3 6 -8 10 -11 10 -2 0 -4 -4 -4 -10z" fill="currentColor" stroke="none" /><path d="M536 445 c-4 -10 1 -15 14 -15 11 0 20 7 20 15 0 8 -6 15 -14 15 -8 0 -16 -7 -20 -15z" fill="currentColor" stroke="none" /><path d="M616 446 c3 -8 12 -12 20 -9 17 6 9 23 -11 23 -8 0 -12 -6 -9 -14z" fill="currentColor" stroke="none" /><path d="M882 451 c-8 -5 -12 -16 -10 -24 2 -11 7 -14 16 -8 8 5 12 16 10 24 -2 11 -7 14 -16 8z" fill="currentColor" stroke="none" /><path d="M280 430 c0 -11 5 -20 10 -20 6 0 10 9 10 20 0 11 -4 20 -10 20 -5 0 -10 -9 -10 -20z" fill="currentColor" stroke="none" /><path d="M340 401 c0 -22 26 -35 33 -17 6 14 -10 36 -25 36 -4 0 -8 -9 -8 -19z" fill="currentColor" stroke="none" /><path d="M820 399 c0 -11 5 -17 10 -14 6 3 10 13 10 21 0 8 -4 14 -10 14 -5 0 -10 -9 -10 -21z" fill="currentColor" stroke="none" /><path d="M784 402 c-16 -10 -13 -41 3 -35 7 3 13 14 13 24 0 21 -1 22 -16 11z" fill="currentColor" stroke="none" /><path d="M732 370 c0 -14 2 -19 5 -12 2 6 2 18 0 25 -3 6 -5 1 -5 -13z" fill="currentColor" stroke="none" /><path d="M452 363 c2 -10 12 -18 22 -18 11 0 20 8 22 18 2 12 -5 17 -23 17 -18 0 -24 -5 -21 -17z" fill="currentColor" stroke="none" /><path d="M530 361 c0 -10 7 -21 15 -25 10 -3 15 1 15 13 0 10 -7 21 -15 25 -10 3 -15 -1 -15 -13z" fill="currentColor" stroke="none" /><path d="M647 360 c3 -11 7 -20 9 -20 2 0 4 9 4 20 0 11 -4 20 -9 20 -5 0 -7 -9 -4 -20z" fill="currentColor" stroke="none" /><path d="M692 360 c0 -14 2 -19 5 -12 2 6 2 18 0 25 -3 6 -5 1 -5 -13z" fill="currentColor" stroke="none" /><path d="M590 350 c0 -11 5 -20 10 -20 6 0 10 9 10 20 0 11 -4 20 -10 20 -5 0 -10 -9 -10 -20z" fill="currentColor" stroke="none" /></g>
</svg>