<?xml version='1.0' encoding='utf-8'?>
<svg xmlns="http://www.w3.org/2000/svg" viewBox="0 0 100 100">
<g transform="translate(50,50) scale(0.542741) translate(-32.85,-85.1) translate(0.000000,96.000000) scale(0.100000,-0.100000)" fill="currentColor" stroke="none">
<path d="m793 -42 c28 -5 33 -9 28 -27 -4 -12 -9 -40 -12 -63 -6 -39 -5 -42 19 -48 14 -4 32 -3 39 1 7 4 10 4 6 -1 -4 -4 -3 -14 2 -20 8 -9 6 -14 -5 -19 -8 -3 -15 -11 -15 -19 0 -7 -16 -19 -35 -26 -33 -12 -63 -46 -51 -59 3 -3 6 -1 6 5 0 6 16 14 35 17 19 4 48 18 65 32 16 14 34 23 39 20 10 -6 8 -13 -29 -121 -14 -39 -23 -99 -27 -172 -4 -85 -9 -113 -19 -113 -10 0 -14 18 -15 68 -1 37 -1 71 0 75 1 4 -13 0 -31 -9 -55 -28 -51 -32 8 -8 14 6 14 4 3 -13 -6 -11 -19 -20 -28 -19 -13 1 -16 -14 -19 -87 -2 -63 -6 -87 -15 -84 -16 5 -29 74 -24 120 5 34 3 37 -14 32 -13 -5 -19 -2 -19 10 0 14 -36 35 -61 35 -5 0 -9 -22 -9 -49 0 -48 -13 -72 -30 -55 -4 5 -5 46 -3 92 5 78 7 84 33 97 21 11 28 23 33 57 3 23 4 44 2 46 -6 6 -70 -30 -77 -43 -5 -7 -16 -11 -26 -8 -40 10 -52 -21 -52 -133 0 -95 -2 -104 -19 -104 -15 0 -19 11 -25 61 -3 34 -6 79 -6 100 0 37 0 37 -28 27 -22 -9 -35 -7 -69 11 -49 25 -53 25 -53 8 0 -7 14 -21 30 -30 30 -18 30 -19 30 -108 0 -68 -3 -90 -12 -87 -7 3 -17 29 -22 59 -5 30 -10 55 -11 56 -5 8 -55 -24 -55 -34 0 -16 -12 -17 -28 -1 -9 9 -12 0 -12 -44 0 -75 -10 -118 -26 -118 -11 0 -14 19 -14 79 0 71 -2 82 -22 95 -33 23 -38 20 -39 -21 -1 -48 -11 -84 -24 -86 -6 -1 -11 39 -12 103 -2 93 -7 118 -40 216 -26 74 -35 111 -26 111 7 0 10 -4 8 -8 -7 -10 27 -21 34 -11 3 5 28 17 54 27 48 18 49 19 42 54 -4 20 -13 53 -20 73 l-12 37 63 21 c35 11 67 20 72 20 5 0 15 -33 21 -74 l12 -74 102 34 c56 19 113 38 127 42 14 5 35 6 45 2 81 -29 98 -32 106 -19 5 8 9 30 9 50 0 46 4 49 48 38 20 -5 52 -12 70 -16z" fill="currentColor" stroke="none" /><path d="m-321 -628 c14 -14 17 -14 29 2 12 17 13 16 14 -7 0 -18 3 -21 9 -11 13 20 40 6 38 -18 -1 -23 -37 -30 -37 -8 0 8 -3 9 -8 1 -4 -6 -37 -12 -73 -13 -61 -2 -67 0 -72 20 -9 32 -1 38 38 29 27 -6 35 -5 35 6 0 18 8 18 27 -1z" fill="currentColor" stroke="none" /><path d="M810 846 c0 -10 9 -17 25 -17 14 -1 31 -2 38 -3 6 -1 15 -5 19 -11 5 -6 8 -3 8 6 0 10 -11 19 -27 22 -16 3 -36 9 -45 12 -13 5 -18 2 -18 -9z" fill="currentColor" stroke="none" /><path d="M289 836 c-20 -6 -34 -16 -32 -22 3 -9 13 -9 36 -1 18 5 38 11 45 13 6 2 12 8 12 14 0 12 -14 11 -61 -4z" fill="currentColor" stroke="none" /><path d="M805 806 c-3 -9 -7 -23 -10 -31 -2 -8 -1 -15 4 -15 5 0 11 12 14 28 6 30 0 44 -8 18z" fill="currentColor" stroke="none" /><path d="M832 786 c-1 -13 6 -30 16 -37 15 -12 15 -12 6 1 -6 8 -10 25 -8 38 2 12 0 22 -4 22 -4 0 -9 -11 -10 -24z" fill="currentColor" stroke="none" /><path d="M285 790 c-3 -5 2 -10 12 -11 10 0 13 -3 6 -6 -15 -6 -17 -29 -3 -38 6 -3 7 1 4 9 -3 9 -2 16 4 16 6 0 13 -6 15 -12 3 -7 6 2 6 20 1 25 -3 32 -18 32 -11 0 -23 -4 -26 -10z" fill="currentColor" stroke="none" /><path d="M346 768 c9 -46 21 -56 16 -13 -2 19 -8 38 -13 41 -5 3 -6 -10 -3 -28z" fill="currentColor" stroke="none" /><path d="M871 744 c0 -11 3 -14 6 -6 3 7 2 16 -1 19 -3 4 -6 -2 -5 -13z" fill="currentColor" stroke="none" /><path d="M540 746 c0 -2 7 -6 15 -10 8 -3 15 -1 15 4 0 6 -7 10 -15 10 -8 0 -15 -2 -15 -4z" fill="currentColor" stroke="none" /><path d="M780 740 c8 -5 22 -9 30 -9 10 0 8 3 -5 9 -27 12 -43 12 -25 0z" fill="currentColor" stroke="none" /><path d="M596 731 c-3 -5 1 -11 9 -14 9 -4 12 -1 8 9 -6 16 -10 17 -17 5z" fill="currentColor" stroke="none" /><path d="M830 726 c0 -2 7 -7 16 -10 8 -3 12 -2 9 4 -6 10 -25 14 -25 6z" fill="currentColor" stroke="none" /><path d="M410 716 c0 -3 9 -10 20 -16 11 -6 20 -8 20 -6 0 3 -9 10 -20 16 -11 6 -20 8 -20 6z" fill="currentColor" stroke="none" /><path d="M540 700 c-9 -6 -10 -10 -3 -10 6 0 15 5 18 10 8 12 4 12 -15 0z" fill="currentColor" stroke="none" /><path d="M334 678 c-14 -17 -15 -20 -2 -9 9 7 22 10 27 6 7 -3 8 0 5 9 -8 20 -7 20 -30 -6z" fill="currentColor" stroke="none" /><path d="M875 690 c-3 -6 1 -7 9 -4 18 7 21 14 7 14 -6 0 -13 -4 -16 -10z" fill="currentColor" stroke="none" /><path d="M387 659 c7 -7 15 -10 18 -7 3 3 -2 9 -12 12 -14 6 -15 5 -6 -5z" fill="currentColor" stroke="none" /><path d="M770 660 c8 -5 20 -10 25 -10 6 0 3 5 -5 10 -8 5 -19 10 -25 10 -5 0 -3 -5 5 -10z" fill="currentColor" stroke="none" /><path d="M230 649 c-11 -8 -9 -9 9 -4 17 5 21 4 16 -5 -6 -9 -3 -9 14 -1 11 7 21 13 21 14 0 8 -47 5 -60 -4z" fill="currentColor" stroke="none" /><path d="M450 651 c0 -10 19 -25 25 -20 1 2 -3 10 -11 17 -8 7 -14 8 -14 3z" fill="currentColor" stroke="none" /><path d="M186 641 c-3 -4 7 -14 22 -20 27 -13 27 -13 8 8 -22 24 -23 24 -30 12z" fill="currentColor" stroke="none" /><path d="M492 628 c-8 -10 -4 -13 13 -14 16 -1 22 2 18 12 -6 17 -17 18 -31 2z" fill="currentColor" stroke="none" /><path d="M623 629 c9 -6 15 -14 12 -19 -3 -4 2 -11 11 -14 10 -4 13 -2 8 6 -5 8 -2 9 9 5 29 -11 19 1 -15 17 -35 18 -53 21 -25 5z" fill="currentColor" stroke="none" /><path d="M285 620 c3 -5 11 -10 16 -10 6 0 7 5 4 10 -3 6 -11 10 -16 10 -6 0 -7 -4 -4 -10z" fill="currentColor" stroke="none" /><path d="M375 610 c10 -11 28 -20 39 -19 12 0 15 3 8 6 -6 2 -10 9 -7 14 4 5 -1 6 -9 3 -9 -3 -16 -1 -16 5 0 6 -7 11 -17 11 -14 0 -14 -2 2 -20z" fill="currentColor" stroke="none" /><path d="M250 608 c0 -6 3 -8 6 -5 4 3 18 -3 32 -13 30 -24 39 -25 39 -5 0 8 -2 13 -5 10 -2 -2 -17 2 -33 10 -34 18 -39 18 -39 3z" fill="currentColor" stroke="none" /><path d="M978 603 c-10 -2 -18 -9 -18 -14 0 -6 -5 -7 -12 -3 -7 4 -8 3 -4 -4 4 -7 2 -12 -5 -12 -7 0 -10 -3 -6 -6 10 -10 47 7 57 27 6 10 9 18 8 18 -2 -1 -11 -3 -20 -6z" fill="currentColor" stroke="none" /><path d="M163 574 c33 -28 47 -30 47 -6 0 14 -2 15 -10 2 -8 -13 -10 -12 -10 3 0 9 -3 17 -7 18 -5 0 -17 2 -28 4 -17 3 -15 0 8 -21z" fill="currentColor" stroke="none" /><path d="M456 585 c7 -18 20 -19 30 -3 4 7 3 8 -4 4 -7 -4 -12 -2 -12 3 0 6 -4 11 -10 11 -5 0 -7 -7 -4 -15z" fill="currentColor" stroke="none" /><path d="M596 591 c-3 -5 1 -11 9 -14 9 -4 12 -1 8 9 -6 16 -10 17 -17 5z" fill="currentColor" stroke="none" /><path d="M377 579 c7 -7 15 -10 18 -7 3 3 -2 9 -12 12 -14 6 -15 5 -6 -5z" fill="currentColor" stroke="none" /><path d="M345 571 c-3 -5 -2 -12 3 -15 5 -3 9 1 9 9 0 17 -3 19 -12 6z" fill="currentColor" stroke="none" /><path d="M485 564 c-11 -8 -25 -12 -32 -10 -19 8 -16 -5 5 -20 23 -18 37 -18 23 0 -9 11 -8 15 5 20 9 3 20 4 25 1 5 -4 6 1 3 9 -3 9 -7 16 -8 16 0 0 -10 -7 -21 -16z" fill="currentColor" stroke="none" /><path d="M810 569 c0 -5 -4 -8 -9 -5 -10 6 -21 -26 -21 -61 0 -16 6 -21 20 -20 17 1 20 8 20 49 0 26 -2 48 -5 48 -3 0 -5 -5 -5 -11z" fill="currentColor" stroke="none" /><path d="M833 545 c0 -22 2 -30 4 -17 2 12 2 30 0 40 -3 9 -5 -1 -4 -23z" fill="currentColor" stroke="none" /><path d="M221 554 c0 -11 3 -14 6 -6 3 7 2 16 -1 19 -3 4 -6 -2 -5 -13z" fill="currentColor" stroke="none" /><path d="M714 554 c-18 -14 -18 -14 6 -3 31 14 36 19 24 19 -6 0 -19 -7 -30 -16z" fill="currentColor" stroke="none" /><path d="M851 554 c0 -11 3 -14 6 -6 3 7 2 16 -1 19 -3 4 -6 -2 -5 -13z" fill="currentColor" stroke="none" /><path d="M370 555 c0 -8 118 -65 134 -65 8 0 18 4 21 10 3 6 -1 7 -10 4 -8 -4 -25 0 -38 8 -12 8 -34 18 -49 22 -16 3 -28 11 -28 16 0 6 -7 10 -15 10 -8 0 -15 -2 -15 -5z" fill="currentColor" stroke="none" /><path d="M530 550 c0 -8 24 -20 41 -20 6 0 8 4 5 9 -8 12 -46 21 -46 11z" fill="currentColor" stroke="none" /><path d="M304 512 c3 -5 1 -12 -6 -14 -8 -3 -6 -7 5 -11 20 -7 24 17 5 29 -6 4 -8 3 -4 -4z" fill="currentColor" stroke="none" /><path d="M331 504 c0 -11 3 -14 6 -6 3 7 2 16 -1 19 -3 4 -6 -2 -5 -13z" fill="currentColor" stroke="none" /><path d="M615 510 c-3 -6 1 -7 9 -4 18 7 21 14 7 14 -6 0 -13 -4 -16 -10z" fill="currentColor" stroke="none" /><path d="M350 491 c0 -6 5 -13 10 -16 6 -3 10 1 10 9 0 9 -4 16 -10 16 -5 0 -10 -4 -10 -9z" fill="currentColor" stroke="none" /><path d="M564 484 c-18 -14 -18 -14 6 -3 31 14 36 19 24 19 -6 0 -19 -7 -30 -16z" fill="currentColor" stroke="none" /><path d="M271 464 c0 -11 3 -14 6 -6 3 7 2 16 -1 19 -3 4 -6 -2 -5 -13z" fill="currentColor" stroke="none" /><path d="M309 463 c-18 -4 -15 -43 3 -43 6 0 8 6 5 14 -3 8 1 17 9 20 8 3 13 2 10 -3 -3 -5 2 -15 11 -22 15 -12 16 -12 10 5 -6 16 -5 17 8 6 10 -8 15 -9 15 -2 0 12 -33 33 -47 31 -4 -1 -15 -3 -24 -6z" fill="currentColor" stroke="none" /><path d="M815 450 c10 -11 13 -20 7 -20 -6 0 -14 5 -17 10 -3 6 -14 10 -23 10 -16 -1 -16 -1 1 -11 9 -5 17 -14 17 -19 0 -9 -39 -1 -57 12 -7 5 -14 5 -17 -1 -4 -6 9 -13 29 -17 19 -3 33 -10 30 -14 -3 -5 4 -6 15 -3 11 3 17 10 13 16 -4 6 0 8 9 4 11 -4 15 -1 13 11 -2 9 -4 20 -4 23 -1 4 -9 10 -18 13 -15 6 -15 4 2 -14z" fill="currentColor" stroke="none" /><path d="M394 431 c8 -13 -22 -22 -49 -15 -12 3 -26 1 -29 -5 -4 -6 -2 -11 4 -11 6 0 8 -6 5 -12 -4 -7 1 -4 9 6 9 11 16 15 16 9 0 -6 7 -14 16 -17 10 -4 13 -2 8 6 -5 8 -2 9 10 5 9 -4 25 -1 36 5 17 11 17 13 2 25 -20 14 -36 17 -28 4z" fill="currentColor" stroke="none" /><path d="M582 410 c0 -19 2 -27 5 -17 2 9 2 25 0 35 -3 9 -5 1 -5 -18z" fill="currentColor" stroke="none" /><path d="M851 414 c0 -11 3 -14 6 -6 3 7 2 16 -1 19 -3 4 -6 -2 -5 -13z" fill="currentColor" stroke="none" /><path d="M765 366 c28 -14 55 -25 60 -25 15 0 -56 36 -85 43 -14 3 -2 -5 25 -18z" fill="currentColor" stroke="none" /><path d="M220 376 c0 -3 9 -10 20 -16 11 -6 20 -8 20 -6 0 3 -9 10 -20 16 -11 6 -20 8 -20 6z" fill="currentColor" stroke="none" /><path d="M360 360 c-46 -25 -34 -25 21 0 24 11 37 19 29 19 -8 0 -31 -8 -50 -19z" fill="currentColor" stroke="none" /></g>
</svg>