<svg xmlns="http://www.w3.org/2000/svg" viewBox="0 0 114.000000 95.000000" width="114.000000pt" height="95.000000pt">
<g transform="translate(0.000000,95.000000) scale(0.100000,-0.100000)"
fill="white" stroke="none">
<path d="M0 475 l0 -475 570 0 570 0 -1 58 c0 42 -3 51 -9 36 -22 -55 -17 -54
-517 -54 l-462 0 -28 24 -28 24 0 375 0 375 24 26 24 26 464 0 c298 0 471 -4
483 -10 11 -6 26 -23 34 -38 15 -26 15 -25 16 41 l0 67 -570 0 -570 0 0 -475z"/>
<path d="M144 849 c-18 -20 -19 -42 -20 -380 -1 -332 0 -362 16 -382 l18 -22
447 -3 446 -3 29 30 30 29 0 350 0 349 -25 27 -24 26 -449 0 c-444 0 -449 0
-468 -21z m532 -49 c40 -15 87 -59 102 -93 23 -55 15 -115 -24 -186 -38 -69
-63 -151 -64 -212 0 -24 -7 -42 -22 -56 -38 -34 -62 -37 -95 -9 -27 23 -31 33
-35 96 -3 38 -10 76 -17 83 -6 8 -8 17 -5 20 4 3 -6 28 -22 54 -16 26 -35 61
-42 78 -13 30 -13 137 0 129 5 -3 8 1 8 9 0 17 53 68 88 83 34 16 93 17 128 4z
m302 -46 c-3 -27 -4 -26 -9 8 -3 22 -1 34 4 29 5 -5 7 -21 5 -37z m-1 -181
c-3 -10 -5 -4 -5 12 0 17 2 24 5 18 2 -7 2 -21 0 -30z m-421 -388 c8 -8 21
-12 29 -9 10 4 15 -1 16 -17 l2 -24 4 23 c2 12 9 20 14 17 5 -4 9 -1 9 4 0 18
36 13 61 -8 16 -13 21 -23 14 -30 -13 -13 -114 -21 -121 -10 -2 5 -16 4 -29
-1 -24 -9 -25 -8 -25 30 0 44 4 47 26 25z"/>
<path d="M520 764 c-71 -61 -81 -145 -25 -236 19 -32 40 -81 47 -110 10 -43
17 -54 36 -56 21 -3 22 -1 22 81 0 82 -1 85 -25 91 -30 8 -49 40 -41 72 10 40
44 31 65 -18 l17 -41 13 31 c7 17 11 35 8 39 -10 16 50 13 63 -2 19 -23 -3
-64 -40 -77 l-30 -10 0 -84 c0 -76 2 -84 19 -84 25 0 37 17 44 60 3 20 22 65
43 100 61 104 50 193 -30 248 -49 33 -143 31 -186 -4z"/>
<path d="M651 589 c-13 -39 -10 -44 19 -29 13 7 20 19 18 32 -5 34 -25 32 -37
-3z"/>
<path d="M545 600 c-9 -14 13 -50 30 -50 18 0 18 1 5 34 -10 27 -24 33 -35 16z"/>
<path d="M611 514 c0 -11 3 -14 6 -6 3 7 2 16 -1 19 -3 4 -6 -2 -5 -13z"/>
<path d="M558 333 c7 -3 16 -2 19 1 4 3 -2 6 -13 5 -11 0 -14 -3 -6 -6z"/>
<path d="M618 333 c12 -2 32 -2 45 0 12 2 2 4 -23 4 -25 0 -35 -2 -22 -4z"/>
<path d="M603 303 c15 -2 39 -2 55 0 15 2 2 4 -28 4 -30 0 -43 -2 -27 -4z"/>
<path d="M588 283 c17 -2 47 -2 65 0 17 2 3 4 -33 4 -36 0 -50 -2 -32 -4z"/>
<path d="M582 254 c11 -12 24 -15 43 -10 34 9 31 11 -20 20 -38 7 -39 6 -23
-10z"/>
</g>
</svg>